<?xml version="1.0" standalone="no"?>
 <!DOCTYPE svg PUBLIC "-//W3C//DTD SVG 1.1//EN" 
 "http://www.w3.org/Graphics/SVG/1.1/DTD/svg11.dtd"> 
<svg
  xmlns:svg="http://www.w3.org/2000/svg"
  xmlns="http://www.w3.org/2000/svg"
  xmlns:xlink="http://www.w3.org/1999/xlink"
  version="1.1"
  width="13.200380cm" height="14.000480cm" viewBox="0 0 51970 55120">
<title>SVG Picture created as Sebessegmero-B_Mask.svg date 2020/12/12 03:01:01 </title>
  <desc>Picture generated by PCBNEW </desc>
<g style="fill:#000000; fill-opacity:1;stroke:#000000; stroke-opacity:1;
stroke-linecap:round; stroke-linejoin:round;"
 transform="translate(0 0) scale(1 1)">
</g>
<g style="fill:#000000; fill-opacity:0.0; 
stroke:#000000; stroke-width:-0.000393701; stroke-opacity:1; 
stroke-linecap:round; stroke-linejoin:round;">
<g >
</g>
<g >
</g>
<g style="fill:#000000; fill-opacity:0.0; 
stroke:#000000; stroke-width:-0.000393701; stroke-opacity:1; 
stroke-linecap:round; stroke-linejoin:round;">
</g>
<g style="fill:#000000; fill-opacity:1.0; 
stroke:#000000; stroke-width:0; stroke-opacity:1; 
stroke-linecap:round; stroke-linejoin:round;">
<circle cx="21000" cy="30500" r="629.921" /> 
</g>
<g style="fill:#000000; fill-opacity:1.0; 
stroke:#000000; stroke-width:39.3701; stroke-opacity:1; 
stroke-linecap:round; stroke-linejoin:round;">
</g>
<g >
</g>
<g style="fill:#000000; fill-opacity:1.0; 
stroke:#000000; stroke-width:39.3701; stroke-opacity:1; 
stroke-linecap:round; stroke-linejoin:round;">
</g>
<g style="fill:#000000; fill-opacity:1.0; 
stroke:#000000; stroke-width:0; stroke-opacity:1; 
stroke-linecap:round; stroke-linejoin:round;">
<circle cx="19000" cy="13500" r="629.921" /> 
</g>
<g style="fill:#000000; fill-opacity:1.0; 
stroke:#000000; stroke-width:39.3701; stroke-opacity:1; 
stroke-linecap:round; stroke-linejoin:round;">
</g>
<g >
</g>
<g style="fill:#000000; fill-opacity:1.0; 
stroke:#000000; stroke-width:39.3701; stroke-opacity:1; 
stroke-linecap:round; stroke-linejoin:round;">
</g>
<g style="fill:#000000; fill-opacity:1.0; 
stroke:#000000; stroke-width:0; stroke-opacity:1; 
stroke-linecap:round; stroke-linejoin:round;">
<circle cx="34500" cy="30500" r="629.921" /> 
</g>
<g style="fill:#000000; fill-opacity:1.0; 
stroke:#000000; stroke-width:39.3701; stroke-opacity:1; 
stroke-linecap:round; stroke-linejoin:round;">
</g>
<g >
</g>
<g style="fill:#000000; fill-opacity:1.0; 
stroke:#000000; stroke-width:39.3701; stroke-opacity:1; 
stroke-linecap:round; stroke-linejoin:round;">
</g>
<g style="fill:#000000; fill-opacity:1.0; 
stroke:#000000; stroke-width:0; stroke-opacity:1; 
stroke-linecap:round; stroke-linejoin:round;">
<circle cx="24750" cy="30500" r="314.961" /> 
<circle cx="18750" cy="30500" r="314.961" /> 
<circle cx="24750" cy="16500" r="314.961" /> 
<circle cx="18750" cy="29500" r="314.961" /> 
<circle cx="24750" cy="17500" r="314.961" /> 
<circle cx="18750" cy="28500" r="314.961" /> 
<circle cx="24750" cy="18500" r="314.961" /> 
<circle cx="18750" cy="27500" r="314.961" /> 
<circle cx="24750" cy="19500" r="314.961" /> 
<circle cx="18750" cy="26500" r="314.961" /> 
<circle cx="24750" cy="20500" r="314.961" /> 
<circle cx="18750" cy="25500" r="314.961" /> 
<circle cx="24750" cy="21500" r="314.961" /> 
<circle cx="18750" cy="24500" r="314.961" /> 
<circle cx="24750" cy="22500" r="314.961" /> 
<circle cx="18750" cy="23500" r="314.961" /> 
<circle cx="24750" cy="23500" r="314.961" /> 
<circle cx="18750" cy="22500" r="314.961" /> 
<circle cx="24750" cy="24500" r="314.961" /> 
<circle cx="18750" cy="21500" r="314.961" /> 
<circle cx="24750" cy="25500" r="314.961" /> 
<circle cx="18750" cy="20500" r="314.961" /> 
<circle cx="24750" cy="26500" r="314.961" /> 
<circle cx="18750" cy="19500" r="314.961" /> 
<circle cx="24750" cy="27500" r="314.961" /> 
<circle cx="18750" cy="18500" r="314.961" /> 
<circle cx="24750" cy="28500" r="314.961" /> 
<circle cx="18750" cy="17500" r="314.961" /> 
<circle cx="24750" cy="29500" r="314.961" /> 
<path style="fill:#000000; fill-opacity:1.0; 
stroke:#000000; stroke-width:0; stroke-opacity:1; 
stroke-linecap:round; stroke-linejoin:round;fill-rule:evenodd;"
d="M 18435,16815
18435,16185
19065,16185
19065,16815
Z" /> 
</g>
<g >
</g>
<g >
</g>
<g >
</g>
<g >
</g>
<g >
</g>
<g >
</g>
<g >
</g>
<g >
</g>
<g >
</g>
<g >
</g>
<g >
</g>
<g >
</g>
<g >
</g>
<g >
</g>
<g >
</g>
<g >
</g>
<g >
</g>
<g >
</g>
<g >
</g>
<g >
</g>
<g >
</g>
<g >
</g>
<g >
</g>
<g >
</g>
<g style="fill:#000000; fill-opacity:1.0; 
stroke:#000000; stroke-width:0; stroke-opacity:1; 
stroke-linecap:round; stroke-linejoin:round;">
</g>
<g style="fill:#000000; fill-opacity:1.0; 
stroke:#000000; stroke-width:669.291; stroke-opacity:1; 
stroke-linecap:round; stroke-linejoin:round;">
</g>
<g style="fill:#000000; fill-opacity:0.0; 
stroke:#000000; stroke-width:669.291; stroke-opacity:1; 
stroke-linecap:round; stroke-linejoin:round;">
<path d="M27549 15468
L27450 15468
" />
<path d="M27549 14484
L27450 14484
" />
</g>
<g style="fill:#000000; fill-opacity:0.0; 
stroke:#000000; stroke-width:0; stroke-opacity:1; 
stroke-linecap:round; stroke-linejoin:round;">
</g>
<g style="fill:#000000; fill-opacity:1.0; 
stroke:#000000; stroke-width:0; stroke-opacity:1; 
stroke-linecap:round; stroke-linejoin:round;">
<path style="fill:#000000; fill-opacity:1.0; 
stroke:#000000; stroke-width:0; stroke-opacity:1; 
stroke-linecap:round; stroke-linejoin:round;fill-rule:evenodd;"
d="M 27795.1,13165.8
27804.6,13167.2
27814,13169.6
27823.1,13172.8
27831.8,13177
27840.1,13181.9
27847.9,13187.7
27855,13194.2
27861.5,13201.3
27867.3,13209.1
27872.2,13217.4
27876.4,13226.1
27879.6,13235.2
27882,13244.6
27883.4,13254.1
27883.9,13263.8
27883.9,13736.2
27883.4,13745.9
27882,13755.4
27879.6,13764.8
27876.4,13773.9
27872.2,13782.6
27867.3,13790.9
27861.5,13798.7
27855,13805.8
27847.9,13812.3
27840.1,13818.1
27831.8,13823
27823.1,13827.2
27814,13830.4
27804.6,13832.8
27795.1,13834.2
27785.4,13834.6
27214.6,13834.6
27204.9,13834.2
27195.4,13832.8
27186,13830.4
27176.9,13827.2
27168.2,13823
27159.9,13818.1
27152.1,13812.3
27145,13805.8
27138.5,13798.7
27132.7,13790.9
27127.8,13782.6
27123.6,13773.9
27120.4,13764.8
27118,13755.4
27116.6,13745.9
27116.1,13736.2
27116.1,13263.8
27116.6,13254.1
27118,13244.6
27120.4,13235.2
27123.6,13226.1
27127.8,13217.4
27132.7,13209.1
27138.5,13201.3
27145,13194.2
27152.1,13187.7
27159.9,13181.9
27168.2,13177
27176.9,13172.8
27186,13169.6
27195.4,13167.2
27204.9,13165.8
27214.6,13165.4
27785.4,13165.4
Z" /> 
</g>
<g >
</g>
<g style="fill:#000000; fill-opacity:1.0; 
stroke:#000000; stroke-width:0; stroke-opacity:1; 
stroke-linecap:round; stroke-linejoin:round;">
<circle cx="31250" cy="15950" r="334.646" /> 
<circle cx="30250" cy="15950" r="334.646" /> 
<circle cx="31250" cy="14950" r="334.646" /> 
<circle cx="30250" cy="14950" r="334.646" /> 
<circle cx="31250" cy="13950" r="334.646" /> 
<circle cx="30250" cy="13950" r="334.646" /> 
<circle cx="31250" cy="12950" r="334.646" /> 
<path style="fill:#000000; fill-opacity:1.0; 
stroke:#000000; stroke-width:0; stroke-opacity:1; 
stroke-linecap:round; stroke-linejoin:round;fill-rule:evenodd;"
d="M 29915.4,13284.6
29915.4,12615.4
30584.6,12615.4
30584.6,13284.6
Z" /> 
</g>
<g >
</g>
<g style="fill:#000000; fill-opacity:1.0; 
stroke:#000000; stroke-width:0; stroke-opacity:1; 
stroke-linecap:round; stroke-linejoin:round;">
<circle cx="29468.5" cy="29500" r="511.811" /> 
</g>
<g style="fill:#000000; fill-opacity:1.0; 
stroke:#000000; stroke-width:39.3701; stroke-opacity:1; 
stroke-linecap:round; stroke-linejoin:round;">
</g>
<g style="fill:#000000; fill-opacity:1.0; 
stroke:#000000; stroke-width:0; stroke-opacity:1; 
stroke-linecap:round; stroke-linejoin:round;">
<path style="fill:#000000; fill-opacity:1.0; 
stroke:#000000; stroke-width:0; stroke-opacity:1; 
stroke-linecap:round; stroke-linejoin:round;fill-rule:evenodd;"
d="M 26988.2,30011.8
26988.2,28988.2
28011.8,28988.2
28011.8,30011.8
Z" /> 
</g>
<g >
</g>
<g style="fill:#000000; fill-opacity:1.0; 
stroke:#000000; stroke-width:0; stroke-opacity:1; 
stroke-linecap:round; stroke-linejoin:round;">
</g>
<g style="fill:#000000; fill-opacity:1.0; 
stroke:#000000; stroke-width:669.291; stroke-opacity:1; 
stroke-linecap:round; stroke-linejoin:round;">
</g>
<g style="fill:#000000; fill-opacity:0.0; 
stroke:#000000; stroke-width:669.291; stroke-opacity:1; 
stroke-linecap:round; stroke-linejoin:round;">
<path d="M34059 14934
L33940 14934
" />
</g>
<g style="fill:#000000; fill-opacity:0.0; 
stroke:#000000; stroke-width:0; stroke-opacity:1; 
stroke-linecap:round; stroke-linejoin:round;">
</g>
<g style="fill:#000000; fill-opacity:1.0; 
stroke:#000000; stroke-width:0; stroke-opacity:1; 
stroke-linecap:round; stroke-linejoin:round;">
<path style="fill:#000000; fill-opacity:1.0; 
stroke:#000000; stroke-width:0; stroke-opacity:1; 
stroke-linecap:round; stroke-linejoin:round;fill-rule:evenodd;"
d="M 34304.9,13615.8
34314.5,13617.2
34323.8,13619.6
34332.9,13622.8
34341.7,13627
34350,13631.9
34357.7,13637.7
34364.9,13644.2
34371.4,13651.3
34377.1,13659.1
34382.1,13667.4
34386.2,13676.1
34389.5,13685.2
34391.8,13694.6
34393.2,13704.1
34393.7,13713.8
34393.7,14186.2
34393.2,14195.9
34391.8,14205.4
34389.5,14214.8
34386.2,14223.9
34382.1,14232.6
34377.1,14240.9
34371.4,14248.7
34364.9,14255.8
34357.7,14262.3
34350,14268.1
34341.7,14273
34332.9,14277.2
34323.8,14280.4
34314.5,14282.8
34304.9,14284.2
34295.3,14284.6
33704.7,14284.6
33695.1,14284.2
33685.5,14282.8
33676.2,14280.4
33667.1,14277.2
33658.3,14273
33650,14268.1
33642.3,14262.3
33635.1,14255.8
33628.6,14248.7
33622.9,14240.9
33617.9,14232.6
33613.8,14223.9
33610.5,14214.8
33608.2,14205.4
33606.8,14195.9
33606.3,14186.2
33606.3,13713.8
33606.8,13704.1
33608.2,13694.6
33610.5,13685.2
33613.8,13676.1
33617.9,13667.4
33622.9,13659.1
33628.6,13651.3
33635.1,13644.2
33642.3,13637.7
33650,13631.9
33658.3,13627
33667.1,13622.8
33676.2,13619.6
33685.5,13617.2
33695.1,13615.8
33704.7,13615.4
34295.3,13615.4
Z" /> 
</g>
<g >
</g>
<g style="fill:#000000; fill-opacity:1.0; 
stroke:#000000; stroke-width:0; stroke-opacity:1; 
stroke-linecap:round; stroke-linejoin:round;">
</g>
<g style="fill:#000000; fill-opacity:1.0; 
stroke:#000000; stroke-width:669.291; stroke-opacity:1; 
stroke-linecap:round; stroke-linejoin:round;">
</g>
<g style="fill:#000000; fill-opacity:0.0; 
stroke:#000000; stroke-width:669.291; stroke-opacity:1; 
stroke-linecap:round; stroke-linejoin:round;">
<path d="M34109 27184
L33990 27184
" />
</g>
<g style="fill:#000000; fill-opacity:0.0; 
stroke:#000000; stroke-width:0; stroke-opacity:1; 
stroke-linecap:round; stroke-linejoin:round;">
</g>
<g style="fill:#000000; fill-opacity:1.0; 
stroke:#000000; stroke-width:0; stroke-opacity:1; 
stroke-linecap:round; stroke-linejoin:round;">
<path style="fill:#000000; fill-opacity:1.0; 
stroke:#000000; stroke-width:0; stroke-opacity:1; 
stroke-linecap:round; stroke-linejoin:round;fill-rule:evenodd;"
d="M 34354.9,25865.8
34364.5,25867.2
34373.8,25869.6
34382.9,25872.8
34391.7,25877
34400,25881.9
34407.7,25887.7
34414.9,25894.2
34421.4,25901.3
34427.1,25909.1
34432.1,25917.4
34436.2,25926.1
34439.5,25935.2
34441.8,25944.6
34443.2,25954.1
34443.7,25963.8
34443.7,26436.2
34443.2,26445.9
34441.8,26455.4
34439.5,26464.8
34436.2,26473.9
34432.1,26482.6
34427.1,26490.9
34421.4,26498.7
34414.9,26505.8
34407.7,26512.3
34400,26518.1
34391.7,26523
34382.9,26527.2
34373.8,26530.4
34364.5,26532.8
34354.9,26534.2
34345.3,26534.6
33754.7,26534.6
33745.1,26534.2
33735.5,26532.8
33726.2,26530.4
33717.1,26527.2
33708.3,26523
33700,26518.1
33692.3,26512.3
33685.1,26505.8
33678.6,26498.7
33672.9,26490.9
33667.9,26482.6
33663.8,26473.9
33660.5,26464.8
33658.2,26455.4
33656.8,26445.9
33656.3,26436.2
33656.3,25963.8
33656.8,25954.1
33658.2,25944.6
33660.5,25935.2
33663.8,25926.1
33667.9,25917.4
33672.9,25909.1
33678.6,25901.3
33685.1,25894.2
33692.3,25887.7
33700,25881.9
33708.3,25877
33717.1,25872.8
33726.2,25869.6
33735.5,25867.2
33745.1,25865.8
33754.7,25865.4
34345.3,25865.4
Z" /> 
</g>
<g >
</g>
<g >
</g>
<g >
</g>
</g> 
</svg>
