<?xml version="1.0" standalone="no"?>
 <!DOCTYPE svg PUBLIC "-//W3C//DTD SVG 1.1//EN" 
 "http://www.w3.org/Graphics/SVG/1.1/DTD/svg11.dtd"> 
<svg
  xmlns:svg="http://www.w3.org/2000/svg"
  xmlns="http://www.w3.org/2000/svg"
  xmlns:xlink="http://www.w3.org/1999/xlink"
  version="1.1"
  width="13.200380cm" height="14.000480cm" viewBox="0 0 51970 55120">
<title>SVG Picture created as Sebessegmero-F_Mask.svg date 2020/12/12 03:01:01 </title>
  <desc>Picture generated by PCBNEW </desc>
<g style="fill:#000000; fill-opacity:1;stroke:#000000; stroke-opacity:1;
stroke-linecap:round; stroke-linejoin:round;"
 transform="translate(0 0) scale(1 1)">
</g>
<g style="fill:#000000; fill-opacity:0.0; 
stroke:#000000; stroke-width:-0.000393701; stroke-opacity:1; 
stroke-linecap:round; stroke-linejoin:round;">
<g >
</g>
<g style="fill:#000000; fill-opacity:0.0; 
stroke:#000000; stroke-width:0; stroke-opacity:1; 
stroke-linecap:round; stroke-linejoin:round;">
</g>
<g style="fill:#000000; fill-opacity:1.0; 
stroke:#000000; stroke-width:0; stroke-opacity:1; 
stroke-linecap:round; stroke-linejoin:round;">
<path style="fill:#000000; fill-opacity:1.0; 
stroke:#000000; stroke-width:0; stroke-opacity:1; 
stroke-linecap:round; stroke-linejoin:round;fill-rule:evenodd;"
d="M 32913.3,19382.2
32919,19383
32924.6,19384.4
32930.1,19386.4
32935.3,19388.9
32940.3,19391.8
32944.9,19395.3
32949.2,19399.2
32953.1,19403.5
32956.6,19408.1
32959.6,19413.1
32962,19418.3
32964,19423.8
32965.4,19429.4
32966.3,19435.2
32966.5,19440.9
32966.5,19559.1
32966.3,19564.8
32965.4,19570.6
32964,19576.2
32962,19581.7
32959.6,19586.9
32956.6,19591.9
32953.1,19596.5
32949.2,19600.8
32944.9,19604.7
32940.3,19608.2
32935.3,19611.1
32930.1,19613.6
32924.6,19615.6
32919,19617
32913.3,19617.8
32907.5,19618.1
32041.3,19618.1
32035.5,19617.8
32029.8,19617
32024.2,19615.6
32018.7,19613.6
32013.5,19611.1
32008.5,19608.2
32003.9,19604.7
31999.6,19600.8
31995.7,19596.5
31992.2,19591.9
31989.3,19586.9
31986.8,19581.7
31984.8,19576.2
31983.4,19570.6
31982.6,19564.8
31982.3,19559.1
31982.3,19440.9
31982.6,19435.2
31983.4,19429.4
31984.8,19423.8
31986.8,19418.3
31989.3,19413.1
31992.2,19408.1
31995.7,19403.5
31999.6,19399.2
32003.9,19395.3
32008.5,19391.8
32013.5,19388.9
32018.7,19386.4
32024.2,19384.4
32029.8,19383
32035.5,19382.2
32041.3,19381.9
32907.5,19381.9
Z" /> 
<path style="fill:#000000; fill-opacity:1.0; 
stroke:#000000; stroke-width:0; stroke-opacity:1; 
stroke-linecap:round; stroke-linejoin:round;fill-rule:evenodd;"
d="M 32913.3,19882.2
32919,19883
32924.6,19884.4
32930.1,19886.4
32935.3,19888.9
32940.3,19891.8
32944.9,19895.3
32949.2,19899.2
32953.1,19903.5
32956.6,19908.1
32959.6,19913.1
32962,19918.3
32964,19923.8
32965.4,19929.4
32966.3,19935.2
32966.5,19940.9
32966.5,20059.1
32966.3,20064.8
32965.4,20070.6
32964,20076.2
32962,20081.7
32959.6,20086.9
32956.6,20091.9
32953.1,20096.5
32949.2,20100.8
32944.9,20104.7
32940.3,20108.2
32935.3,20111.1
32930.1,20113.6
32924.6,20115.6
32919,20117
32913.3,20117.8
32907.5,20118.1
32041.3,20118.1
32035.5,20117.8
32029.8,20117
32024.2,20115.6
32018.7,20113.6
32013.5,20111.1
32008.5,20108.2
32003.9,20104.7
31999.6,20100.8
31995.7,20096.5
31992.2,20091.9
31989.3,20086.9
31986.8,20081.7
31984.8,20076.2
31983.4,20070.6
31982.6,20064.8
31982.3,20059.1
31982.3,19940.9
31982.6,19935.2
31983.4,19929.4
31984.8,19923.8
31986.8,19918.3
31989.3,19913.1
31992.2,19908.1
31995.7,19903.5
31999.6,19899.2
32003.9,19895.3
32008.5,19891.8
32013.5,19888.9
32018.7,19886.4
32024.2,19884.4
32029.8,19883
32035.5,19882.2
32041.3,19881.9
32907.5,19881.9
Z" /> 
<path style="fill:#000000; fill-opacity:1.0; 
stroke:#000000; stroke-width:0; stroke-opacity:1; 
stroke-linecap:round; stroke-linejoin:round;fill-rule:evenodd;"
d="M 32913.3,20382.2
32919,20383
32924.6,20384.4
32930.1,20386.4
32935.3,20388.9
32940.3,20391.8
32944.9,20395.3
32949.2,20399.2
32953.1,20403.5
32956.6,20408.1
32959.6,20413.1
32962,20418.3
32964,20423.8
32965.4,20429.4
32966.3,20435.2
32966.5,20440.9
32966.5,20559.1
32966.3,20564.8
32965.4,20570.6
32964,20576.2
32962,20581.7
32959.6,20586.9
32956.6,20591.9
32953.1,20596.5
32949.2,20600.8
32944.9,20604.7
32940.3,20608.2
32935.3,20611.1
32930.1,20613.6
32924.6,20615.6
32919,20617
32913.3,20617.8
32907.5,20618.1
32041.3,20618.1
32035.5,20617.8
32029.8,20617
32024.2,20615.6
32018.7,20613.6
32013.5,20611.1
32008.5,20608.2
32003.9,20604.7
31999.6,20600.8
31995.7,20596.5
31992.2,20591.9
31989.3,20586.9
31986.8,20581.7
31984.8,20576.2
31983.4,20570.6
31982.6,20564.8
31982.3,20559.1
31982.3,20440.9
31982.6,20435.2
31983.4,20429.4
31984.8,20423.8
31986.8,20418.3
31989.3,20413.1
31992.2,20408.1
31995.7,20403.5
31999.6,20399.2
32003.9,20395.3
32008.5,20391.8
32013.5,20388.9
32018.7,20386.4
32024.2,20384.4
32029.8,20383
32035.5,20382.2
32041.3,20381.9
32907.5,20381.9
Z" /> 
<path style="fill:#000000; fill-opacity:1.0; 
stroke:#000000; stroke-width:0; stroke-opacity:1; 
stroke-linecap:round; stroke-linejoin:round;fill-rule:evenodd;"
d="M 32913.3,20882.2
32919,20883
32924.6,20884.4
32930.1,20886.4
32935.3,20888.9
32940.3,20891.8
32944.9,20895.3
32949.2,20899.2
32953.1,20903.5
32956.6,20908.1
32959.6,20913.1
32962,20918.3
32964,20923.8
32965.4,20929.4
32966.3,20935.2
32966.5,20940.9
32966.5,21059.1
32966.3,21064.8
32965.4,21070.6
32964,21076.2
32962,21081.7
32959.6,21086.9
32956.6,21091.9
32953.1,21096.5
32949.2,21100.8
32944.9,21104.7
32940.3,21108.2
32935.3,21111.1
32930.1,21113.6
32924.6,21115.6
32919,21117
32913.3,21117.8
32907.5,21118.1
32041.3,21118.1
32035.5,21117.8
32029.8,21117
32024.2,21115.6
32018.7,21113.6
32013.5,21111.1
32008.5,21108.2
32003.9,21104.7
31999.6,21100.8
31995.7,21096.5
31992.2,21091.9
31989.3,21086.9
31986.8,21081.7
31984.8,21076.2
31983.4,21070.6
31982.6,21064.8
31982.3,21059.1
31982.3,20940.9
31982.6,20935.2
31983.4,20929.4
31984.8,20923.8
31986.8,20918.3
31989.3,20913.1
31992.2,20908.1
31995.7,20903.5
31999.6,20899.2
32003.9,20895.3
32008.5,20891.8
32013.5,20888.9
32018.7,20886.4
32024.2,20884.4
32029.8,20883
32035.5,20882.2
32041.3,20881.9
32907.5,20881.9
Z" /> 
<path style="fill:#000000; fill-opacity:1.0; 
stroke:#000000; stroke-width:0; stroke-opacity:1; 
stroke-linecap:round; stroke-linejoin:round;fill-rule:evenodd;"
d="M 32913.3,21382.2
32919,21383
32924.6,21384.4
32930.1,21386.4
32935.3,21388.9
32940.3,21391.8
32944.9,21395.3
32949.2,21399.2
32953.1,21403.5
32956.6,21408.1
32959.6,21413.1
32962,21418.3
32964,21423.8
32965.4,21429.4
32966.3,21435.2
32966.5,21440.9
32966.5,21559.1
32966.3,21564.8
32965.4,21570.6
32964,21576.2
32962,21581.7
32959.6,21586.9
32956.6,21591.9
32953.1,21596.5
32949.2,21600.8
32944.9,21604.7
32940.3,21608.2
32935.3,21611.1
32930.1,21613.6
32924.6,21615.6
32919,21617
32913.3,21617.8
32907.5,21618.1
32041.3,21618.1
32035.5,21617.8
32029.8,21617
32024.2,21615.6
32018.7,21613.6
32013.5,21611.1
32008.5,21608.2
32003.9,21604.7
31999.6,21600.8
31995.7,21596.5
31992.2,21591.9
31989.3,21586.9
31986.8,21581.7
31984.8,21576.2
31983.4,21570.6
31982.6,21564.8
31982.3,21559.1
31982.3,21440.9
31982.6,21435.2
31983.4,21429.4
31984.8,21423.8
31986.8,21418.3
31989.3,21413.1
31992.2,21408.1
31995.7,21403.5
31999.6,21399.2
32003.9,21395.3
32008.5,21391.8
32013.5,21388.9
32018.7,21386.4
32024.2,21384.4
32029.8,21383
32035.5,21382.2
32041.3,21381.9
32907.5,21381.9
Z" /> 
<path style="fill:#000000; fill-opacity:1.0; 
stroke:#000000; stroke-width:0; stroke-opacity:1; 
stroke-linecap:round; stroke-linejoin:round;fill-rule:evenodd;"
d="M 32913.3,21882.2
32919,21883
32924.6,21884.4
32930.1,21886.4
32935.3,21888.9
32940.3,21891.8
32944.9,21895.3
32949.2,21899.2
32953.1,21903.5
32956.6,21908.1
32959.6,21913.1
32962,21918.3
32964,21923.8
32965.4,21929.4
32966.3,21935.2
32966.5,21940.9
32966.5,22059.1
32966.3,22064.8
32965.4,22070.6
32964,22076.2
32962,22081.7
32959.6,22086.9
32956.6,22091.9
32953.1,22096.5
32949.2,22100.8
32944.9,22104.7
32940.3,22108.2
32935.3,22111.1
32930.1,22113.6
32924.6,22115.6
32919,22117
32913.3,22117.8
32907.5,22118.1
32041.3,22118.1
32035.5,22117.8
32029.8,22117
32024.2,22115.6
32018.7,22113.6
32013.5,22111.1
32008.5,22108.2
32003.9,22104.7
31999.6,22100.8
31995.7,22096.5
31992.2,22091.9
31989.3,22086.9
31986.8,22081.7
31984.8,22076.2
31983.4,22070.6
31982.6,22064.8
31982.3,22059.1
31982.3,21940.9
31982.6,21935.2
31983.4,21929.4
31984.8,21923.8
31986.8,21918.3
31989.3,21913.1
31992.2,21908.1
31995.7,21903.5
31999.6,21899.2
32003.9,21895.3
32008.5,21891.8
32013.5,21888.9
32018.7,21886.4
32024.2,21884.4
32029.8,21883
32035.5,21882.2
32041.3,21881.9
32907.5,21881.9
Z" /> 
<path style="fill:#000000; fill-opacity:1.0; 
stroke:#000000; stroke-width:0; stroke-opacity:1; 
stroke-linecap:round; stroke-linejoin:round;fill-rule:evenodd;"
d="M 32913.3,22382.2
32919,22383
32924.6,22384.4
32930.1,22386.4
32935.3,22388.9
32940.3,22391.8
32944.9,22395.3
32949.2,22399.2
32953.1,22403.5
32956.6,22408.1
32959.6,22413.1
32962,22418.3
32964,22423.8
32965.4,22429.4
32966.3,22435.2
32966.5,22440.9
32966.5,22559.1
32966.3,22564.8
32965.4,22570.6
32964,22576.2
32962,22581.7
32959.6,22586.9
32956.6,22591.9
32953.1,22596.5
32949.2,22600.8
32944.9,22604.7
32940.3,22608.2
32935.3,22611.1
32930.1,22613.6
32924.6,22615.6
32919,22617
32913.3,22617.8
32907.5,22618.1
32041.3,22618.1
32035.5,22617.8
32029.8,22617
32024.2,22615.6
32018.7,22613.6
32013.5,22611.1
32008.5,22608.2
32003.9,22604.7
31999.6,22600.8
31995.7,22596.5
31992.2,22591.9
31989.3,22586.9
31986.8,22581.7
31984.8,22576.2
31983.4,22570.6
31982.6,22564.8
31982.3,22559.1
31982.3,22440.9
31982.6,22435.2
31983.4,22429.4
31984.8,22423.8
31986.8,22418.3
31989.3,22413.1
31992.2,22408.1
31995.7,22403.5
31999.6,22399.2
32003.9,22395.3
32008.5,22391.8
32013.5,22388.9
32018.7,22386.4
32024.2,22384.4
32029.8,22383
32035.5,22382.2
32041.3,22381.9
32907.5,22381.9
Z" /> 
<path style="fill:#000000; fill-opacity:1.0; 
stroke:#000000; stroke-width:0; stroke-opacity:1; 
stroke-linecap:round; stroke-linejoin:round;fill-rule:evenodd;"
d="M 30964.5,22382.2
30970.2,22383
30975.8,22384.4
30981.3,22386.4
30986.5,22388.9
30991.5,22391.8
30996.1,22395.3
31000.4,22399.2
31004.3,22403.5
31007.8,22408.1
31010.7,22413.1
31013.2,22418.3
31015.2,22423.8
31016.6,22429.4
31017.4,22435.2
31017.7,22440.9
31017.7,22559.1
31017.4,22564.8
31016.6,22570.6
31015.2,22576.2
31013.2,22581.7
31010.7,22586.9
31007.8,22591.9
31004.3,22596.5
31000.4,22600.8
30996.1,22604.7
30991.5,22608.2
30986.5,22611.1
30981.3,22613.6
30975.8,22615.6
30970.2,22617
30964.5,22617.8
30958.7,22618.1
30092.5,22618.1
30086.7,22617.8
30081,22617
30075.4,22615.6
30069.9,22613.6
30064.7,22611.1
30059.7,22608.2
30055.1,22604.7
30050.8,22600.8
30046.9,22596.5
30043.4,22591.9
30040.4,22586.9
30038,22581.7
30036,22576.2
30034.6,22570.6
30033.7,22564.8
30033.5,22559.1
30033.5,22440.9
30033.7,22435.2
30034.6,22429.4
30036,22423.8
30038,22418.3
30040.4,22413.1
30043.4,22408.1
30046.9,22403.5
30050.8,22399.2
30055.1,22395.3
30059.7,22391.8
30064.7,22388.9
30069.9,22386.4
30075.4,22384.4
30081,22383
30086.7,22382.2
30092.5,22381.9
30958.7,22381.9
Z" /> 
<path style="fill:#000000; fill-opacity:1.0; 
stroke:#000000; stroke-width:0; stroke-opacity:1; 
stroke-linecap:round; stroke-linejoin:round;fill-rule:evenodd;"
d="M 30964.5,21882.2
30970.2,21883
30975.8,21884.4
30981.3,21886.4
30986.5,21888.9
30991.5,21891.8
30996.1,21895.3
31000.4,21899.2
31004.3,21903.5
31007.8,21908.1
31010.7,21913.1
31013.2,21918.3
31015.2,21923.8
31016.6,21929.4
31017.4,21935.2
31017.7,21940.9
31017.7,22059.1
31017.4,22064.8
31016.6,22070.6
31015.2,22076.2
31013.2,22081.7
31010.7,22086.9
31007.8,22091.9
31004.3,22096.5
31000.4,22100.8
30996.1,22104.7
30991.5,22108.2
30986.5,22111.1
30981.3,22113.6
30975.8,22115.6
30970.2,22117
30964.5,22117.8
30958.7,22118.1
30092.5,22118.1
30086.7,22117.8
30081,22117
30075.4,22115.6
30069.9,22113.6
30064.7,22111.1
30059.7,22108.2
30055.1,22104.7
30050.8,22100.8
30046.9,22096.5
30043.4,22091.9
30040.4,22086.9
30038,22081.7
30036,22076.2
30034.6,22070.6
30033.7,22064.8
30033.5,22059.1
30033.5,21940.9
30033.7,21935.2
30034.6,21929.4
30036,21923.8
30038,21918.3
30040.4,21913.1
30043.4,21908.1
30046.9,21903.5
30050.8,21899.2
30055.1,21895.3
30059.7,21891.8
30064.7,21888.9
30069.9,21886.4
30075.4,21884.4
30081,21883
30086.7,21882.2
30092.5,21881.9
30958.7,21881.9
Z" /> 
<path style="fill:#000000; fill-opacity:1.0; 
stroke:#000000; stroke-width:0; stroke-opacity:1; 
stroke-linecap:round; stroke-linejoin:round;fill-rule:evenodd;"
d="M 30964.5,21382.2
30970.2,21383
30975.8,21384.4
30981.3,21386.4
30986.5,21388.9
30991.5,21391.8
30996.1,21395.3
31000.4,21399.2
31004.3,21403.5
31007.8,21408.1
31010.7,21413.1
31013.2,21418.3
31015.2,21423.8
31016.6,21429.4
31017.4,21435.2
31017.7,21440.9
31017.7,21559.1
31017.4,21564.8
31016.6,21570.6
31015.2,21576.2
31013.2,21581.7
31010.7,21586.9
31007.8,21591.9
31004.3,21596.5
31000.4,21600.8
30996.1,21604.7
30991.5,21608.2
30986.5,21611.1
30981.3,21613.6
30975.8,21615.6
30970.2,21617
30964.5,21617.8
30958.7,21618.1
30092.5,21618.1
30086.7,21617.8
30081,21617
30075.4,21615.6
30069.9,21613.6
30064.7,21611.1
30059.7,21608.2
30055.1,21604.7
30050.8,21600.8
30046.9,21596.5
30043.4,21591.9
30040.4,21586.9
30038,21581.7
30036,21576.2
30034.6,21570.6
30033.7,21564.8
30033.5,21559.1
30033.5,21440.9
30033.7,21435.2
30034.6,21429.4
30036,21423.8
30038,21418.3
30040.4,21413.1
30043.4,21408.1
30046.9,21403.5
30050.8,21399.2
30055.1,21395.3
30059.7,21391.8
30064.7,21388.9
30069.9,21386.4
30075.4,21384.4
30081,21383
30086.7,21382.2
30092.5,21381.9
30958.7,21381.9
Z" /> 
<path style="fill:#000000; fill-opacity:1.0; 
stroke:#000000; stroke-width:0; stroke-opacity:1; 
stroke-linecap:round; stroke-linejoin:round;fill-rule:evenodd;"
d="M 30964.5,20882.2
30970.2,20883
30975.8,20884.4
30981.3,20886.4
30986.5,20888.9
30991.5,20891.8
30996.1,20895.3
31000.4,20899.2
31004.3,20903.5
31007.8,20908.1
31010.7,20913.1
31013.2,20918.3
31015.2,20923.8
31016.6,20929.4
31017.4,20935.2
31017.7,20940.9
31017.7,21059.1
31017.4,21064.8
31016.6,21070.6
31015.2,21076.2
31013.2,21081.7
31010.7,21086.9
31007.8,21091.9
31004.3,21096.5
31000.4,21100.8
30996.1,21104.7
30991.5,21108.2
30986.5,21111.1
30981.3,21113.6
30975.8,21115.6
30970.2,21117
30964.5,21117.8
30958.7,21118.1
30092.5,21118.1
30086.7,21117.8
30081,21117
30075.4,21115.6
30069.9,21113.6
30064.7,21111.1
30059.7,21108.2
30055.1,21104.7
30050.8,21100.8
30046.9,21096.5
30043.4,21091.9
30040.4,21086.9
30038,21081.7
30036,21076.2
30034.6,21070.6
30033.7,21064.8
30033.5,21059.1
30033.5,20940.9
30033.7,20935.2
30034.6,20929.4
30036,20923.8
30038,20918.3
30040.4,20913.1
30043.4,20908.1
30046.9,20903.5
30050.8,20899.2
30055.1,20895.3
30059.7,20891.8
30064.7,20888.9
30069.9,20886.4
30075.4,20884.4
30081,20883
30086.7,20882.2
30092.5,20881.9
30958.7,20881.9
Z" /> 
<path style="fill:#000000; fill-opacity:1.0; 
stroke:#000000; stroke-width:0; stroke-opacity:1; 
stroke-linecap:round; stroke-linejoin:round;fill-rule:evenodd;"
d="M 30964.5,20382.2
30970.2,20383
30975.8,20384.4
30981.3,20386.4
30986.5,20388.9
30991.5,20391.8
30996.1,20395.3
31000.4,20399.2
31004.3,20403.5
31007.8,20408.1
31010.7,20413.1
31013.2,20418.3
31015.2,20423.8
31016.6,20429.4
31017.4,20435.2
31017.7,20440.9
31017.7,20559.1
31017.4,20564.8
31016.6,20570.6
31015.2,20576.2
31013.2,20581.7
31010.7,20586.9
31007.8,20591.9
31004.3,20596.5
31000.4,20600.8
30996.1,20604.7
30991.5,20608.2
30986.5,20611.1
30981.3,20613.6
30975.8,20615.6
30970.2,20617
30964.5,20617.8
30958.7,20618.1
30092.5,20618.1
30086.7,20617.8
30081,20617
30075.4,20615.6
30069.9,20613.6
30064.7,20611.1
30059.7,20608.2
30055.1,20604.7
30050.8,20600.8
30046.9,20596.5
30043.4,20591.9
30040.4,20586.9
30038,20581.7
30036,20576.2
30034.6,20570.6
30033.7,20564.8
30033.5,20559.1
30033.5,20440.9
30033.7,20435.2
30034.6,20429.4
30036,20423.8
30038,20418.3
30040.4,20413.1
30043.4,20408.1
30046.9,20403.5
30050.8,20399.2
30055.1,20395.3
30059.7,20391.8
30064.7,20388.9
30069.9,20386.4
30075.4,20384.4
30081,20383
30086.7,20382.2
30092.5,20381.9
30958.7,20381.9
Z" /> 
<path style="fill:#000000; fill-opacity:1.0; 
stroke:#000000; stroke-width:0; stroke-opacity:1; 
stroke-linecap:round; stroke-linejoin:round;fill-rule:evenodd;"
d="M 30964.5,19882.2
30970.2,19883
30975.8,19884.4
30981.3,19886.4
30986.5,19888.9
30991.5,19891.8
30996.1,19895.3
31000.4,19899.2
31004.3,19903.5
31007.8,19908.1
31010.7,19913.1
31013.2,19918.3
31015.2,19923.8
31016.6,19929.4
31017.4,19935.2
31017.7,19940.9
31017.7,20059.1
31017.4,20064.8
31016.6,20070.6
31015.2,20076.2
31013.2,20081.7
31010.7,20086.9
31007.8,20091.9
31004.3,20096.5
31000.4,20100.8
30996.1,20104.7
30991.5,20108.2
30986.5,20111.1
30981.3,20113.6
30975.8,20115.6
30970.2,20117
30964.5,20117.8
30958.7,20118.1
30092.5,20118.1
30086.7,20117.8
30081,20117
30075.4,20115.6
30069.9,20113.6
30064.7,20111.1
30059.7,20108.2
30055.1,20104.7
30050.8,20100.8
30046.9,20096.5
30043.4,20091.9
30040.4,20086.9
30038,20081.7
30036,20076.2
30034.6,20070.6
30033.7,20064.8
30033.5,20059.1
30033.5,19940.9
30033.7,19935.2
30034.6,19929.4
30036,19923.8
30038,19918.3
30040.4,19913.1
30043.4,19908.1
30046.9,19903.5
30050.8,19899.2
30055.1,19895.3
30059.7,19891.8
30064.7,19888.9
30069.9,19886.4
30075.4,19884.4
30081,19883
30086.7,19882.2
30092.5,19881.9
30958.7,19881.9
Z" /> 
<path style="fill:#000000; fill-opacity:1.0; 
stroke:#000000; stroke-width:0; stroke-opacity:1; 
stroke-linecap:round; stroke-linejoin:round;fill-rule:evenodd;"
d="M 30964.5,19382.2
30970.2,19383
30975.8,19384.4
30981.3,19386.4
30986.5,19388.9
30991.5,19391.8
30996.1,19395.3
31000.4,19399.2
31004.3,19403.5
31007.8,19408.1
31010.7,19413.1
31013.2,19418.3
31015.2,19423.8
31016.6,19429.4
31017.4,19435.2
31017.7,19440.9
31017.7,19559.1
31017.4,19564.8
31016.6,19570.6
31015.2,19576.2
31013.2,19581.7
31010.7,19586.9
31007.8,19591.9
31004.3,19596.5
31000.4,19600.8
30996.1,19604.7
30991.5,19608.2
30986.5,19611.1
30981.3,19613.6
30975.8,19615.6
30970.2,19617
30964.5,19617.8
30958.7,19618.1
30092.5,19618.1
30086.7,19617.8
30081,19617
30075.4,19615.6
30069.9,19613.6
30064.7,19611.1
30059.7,19608.2
30055.1,19604.7
30050.8,19600.8
30046.9,19596.5
30043.4,19591.9
30040.4,19586.9
30038,19581.7
30036,19576.2
30034.6,19570.6
30033.7,19564.8
30033.5,19559.1
30033.5,19440.9
30033.7,19435.2
30034.6,19429.4
30036,19423.8
30038,19418.3
30040.4,19413.1
30043.4,19408.1
30046.9,19403.5
30050.8,19399.2
30055.1,19395.3
30059.7,19391.8
30064.7,19388.9
30069.9,19386.4
30075.4,19384.4
30081,19383
30086.7,19382.2
30092.5,19381.9
30958.7,19381.9
Z" /> 
</g>
<g >
</g>
<g style="fill:#000000; fill-opacity:1.0; 
stroke:#000000; stroke-width:0; stroke-opacity:1; 
stroke-linecap:round; stroke-linejoin:round;">
<circle cx="21000" cy="30500" r="629.921" /> 
</g>
<g style="fill:#000000; fill-opacity:1.0; 
stroke:#000000; stroke-width:39.3701; stroke-opacity:1; 
stroke-linecap:round; stroke-linejoin:round;">
</g>
<g >
</g>
<g style="fill:#000000; fill-opacity:1.0; 
stroke:#000000; stroke-width:39.3701; stroke-opacity:1; 
stroke-linecap:round; stroke-linejoin:round;">
</g>
<g style="fill:#000000; fill-opacity:1.0; 
stroke:#000000; stroke-width:0; stroke-opacity:1; 
stroke-linecap:round; stroke-linejoin:round;">
<circle cx="19000" cy="13500" r="629.921" /> 
</g>
<g style="fill:#000000; fill-opacity:1.0; 
stroke:#000000; stroke-width:39.3701; stroke-opacity:1; 
stroke-linecap:round; stroke-linejoin:round;">
</g>
<g >
</g>
<g style="fill:#000000; fill-opacity:1.0; 
stroke:#000000; stroke-width:39.3701; stroke-opacity:1; 
stroke-linecap:round; stroke-linejoin:round;">
</g>
<g style="fill:#000000; fill-opacity:1.0; 
stroke:#000000; stroke-width:0; stroke-opacity:1; 
stroke-linecap:round; stroke-linejoin:round;">
<circle cx="34500" cy="30500" r="629.921" /> 
</g>
<g style="fill:#000000; fill-opacity:1.0; 
stroke:#000000; stroke-width:39.3701; stroke-opacity:1; 
stroke-linecap:round; stroke-linejoin:round;">
</g>
<g >
</g>
<g style="fill:#000000; fill-opacity:1.0; 
stroke:#000000; stroke-width:39.3701; stroke-opacity:1; 
stroke-linecap:round; stroke-linejoin:round;">
</g>
<g style="fill:#000000; fill-opacity:1.0; 
stroke:#000000; stroke-width:0; stroke-opacity:1; 
stroke-linecap:round; stroke-linejoin:round;">
<circle cx="24750" cy="30500" r="314.961" /> 
<circle cx="18750" cy="30500" r="314.961" /> 
<circle cx="24750" cy="16500" r="314.961" /> 
<circle cx="18750" cy="29500" r="314.961" /> 
<circle cx="24750" cy="17500" r="314.961" /> 
<circle cx="18750" cy="28500" r="314.961" /> 
<circle cx="24750" cy="18500" r="314.961" /> 
<circle cx="18750" cy="27500" r="314.961" /> 
<circle cx="24750" cy="19500" r="314.961" /> 
<circle cx="18750" cy="26500" r="314.961" /> 
<circle cx="24750" cy="20500" r="314.961" /> 
<circle cx="18750" cy="25500" r="314.961" /> 
<circle cx="24750" cy="21500" r="314.961" /> 
<circle cx="18750" cy="24500" r="314.961" /> 
<circle cx="24750" cy="22500" r="314.961" /> 
<circle cx="18750" cy="23500" r="314.961" /> 
<circle cx="24750" cy="23500" r="314.961" /> 
<circle cx="18750" cy="22500" r="314.961" /> 
<circle cx="24750" cy="24500" r="314.961" /> 
<circle cx="18750" cy="21500" r="314.961" /> 
<circle cx="24750" cy="25500" r="314.961" /> 
<circle cx="18750" cy="20500" r="314.961" /> 
<circle cx="24750" cy="26500" r="314.961" /> 
<circle cx="18750" cy="19500" r="314.961" /> 
<circle cx="24750" cy="27500" r="314.961" /> 
<circle cx="18750" cy="18500" r="314.961" /> 
<circle cx="24750" cy="28500" r="314.961" /> 
<circle cx="18750" cy="17500" r="314.961" /> 
<circle cx="24750" cy="29500" r="314.961" /> 
<path style="fill:#000000; fill-opacity:1.0; 
stroke:#000000; stroke-width:0; stroke-opacity:1; 
stroke-linecap:round; stroke-linejoin:round;fill-rule:evenodd;"
d="M 18435,16815
18435,16185
19065,16185
19065,16815
Z" /> 
</g>
<g >
</g>
<g style="fill:#000000; fill-opacity:1.0; 
stroke:#000000; stroke-width:0; stroke-opacity:1; 
stroke-linecap:round; stroke-linejoin:round;">
<path style="fill:#000000; fill-opacity:1.0; 
stroke:#000000; stroke-width:0; stroke-opacity:1; 
stroke-linecap:round; stroke-linejoin:round;fill-rule:evenodd;"
d="M 31865.6,27154.8
31875.1,27156.2
31884.5,27158.6
31893.6,27161.8
31902.3,27166
31910.6,27170.9
31918.3,27176.7
31925.5,27183.2
31932,27190.3
31937.7,27198.1
31942.7,27206.4
31946.8,27215.1
31950.1,27224.2
31952.4,27233.6
31953.9,27243.1
31954.3,27252.8
31954.3,27577.6
31953.9,27587.2
31952.4,27596.8
31950.1,27606.1
31946.8,27615.2
31942.7,27624
31937.7,27632.2
31932,27640
31925.5,27647.2
31918.3,27653.6
31910.6,27659.4
31902.3,27664.4
31893.6,27668.5
31884.5,27671.7
31875.1,27674.1
31865.6,27675.5
31855.9,27676
31344.1,27676
31334.4,27675.5
31324.9,27674.1
31315.5,27671.7
31306.4,27668.5
31297.7,27664.4
31289.4,27659.4
31281.7,27653.6
31274.5,27647.2
31268,27640
31262.3,27632.2
31257.3,27624
31253.2,27615.2
31249.9,27606.1
31247.6,27596.8
31246.1,27587.2
31245.7,27577.6
31245.7,27252.8
31246.1,27243.1
31247.6,27233.6
31249.9,27224.2
31253.2,27215.1
31257.3,27206.4
31262.3,27198.1
31268,27190.3
31274.5,27183.2
31281.7,27176.7
31289.4,27170.9
31297.7,27166
31306.4,27161.8
31315.5,27158.6
31324.9,27156.2
31334.4,27154.8
31344.1,27154.3
31855.9,27154.3
Z" /> 
<path style="fill:#000000; fill-opacity:1.0; 
stroke:#000000; stroke-width:0; stroke-opacity:1; 
stroke-linecap:round; stroke-linejoin:round;fill-rule:evenodd;"
d="M 31865.6,25924.5
31875.1,25925.9
31884.5,25928.3
31893.6,25931.5
31902.3,25935.6
31910.6,25940.6
31918.3,25946.4
31925.5,25952.8
31932,25960
31937.7,25967.8
31942.7,25976
31946.8,25984.8
31950.1,25993.9
31952.4,26003.2
31953.9,26012.8
31954.3,26022.4
31954.3,26347.2
31953.9,26356.9
31952.4,26366.4
31950.1,26375.8
31946.8,26384.9
31942.7,26393.6
31937.7,26401.9
31932,26409.7
31925.5,26416.8
31918.3,26423.3
31910.6,26429.1
31902.3,26434
31893.6,26438.2
31884.5,26441.4
31875.1,26443.8
31865.6,26445.2
31855.9,26445.7
31344.1,26445.7
31334.4,26445.2
31324.9,26443.8
31315.5,26441.4
31306.4,26438.2
31297.7,26434
31289.4,26429.1
31281.7,26423.3
31274.5,26416.8
31268,26409.7
31262.3,26401.9
31257.3,26393.6
31253.2,26384.9
31249.9,26375.8
31247.6,26366.4
31246.1,26356.9
31245.7,26347.2
31245.7,26022.4
31246.1,26012.8
31247.6,26003.2
31249.9,25993.9
31253.2,25984.8
31257.3,25976
31262.3,25967.8
31268,25960
31274.5,25952.8
31281.7,25946.4
31289.4,25940.6
31297.7,25935.6
31306.4,25931.5
31315.5,25928.3
31324.9,25925.9
31334.4,25924.5
31344.1,25924
31855.9,25924
Z" /> 
</g>
<g >
</g>
<g style="fill:#000000; fill-opacity:1.0; 
stroke:#000000; stroke-width:0; stroke-opacity:1; 
stroke-linecap:round; stroke-linejoin:round;">
<path style="fill:#000000; fill-opacity:1.0; 
stroke:#000000; stroke-width:0; stroke-opacity:1; 
stroke-linecap:round; stroke-linejoin:round;fill-rule:evenodd;"
d="M 33352.7,17399.3
33361.7,17400.6
33370.6,17402.8
33379.3,17405.9
33387.6,17409.9
33395.5,17414.6
33402.8,17420
33409.6,17426.2
33415.8,17433
33421.2,17440.4
33426,17448.2
33429.9,17456.5
33433,17465.2
33435.2,17474.1
33436.6,17483.2
33437,17492.3
33437,17689.2
33436.6,17698.3
33435.2,17707.4
33433,17716.3
33429.9,17725
33426,17733.3
33421.2,17741.1
33415.8,17748.5
33409.6,17755.3
33402.8,17761.5
33395.5,17766.9
33387.6,17771.6
33379.3,17775.6
33370.6,17778.7
33361.7,17780.9
33352.7,17782.2
33343.5,17782.7
33156.5,17782.7
33147.3,17782.2
33138.3,17780.9
33129.4,17778.7
33120.7,17775.6
33112.4,17771.6
33104.5,17766.9
33097.2,17761.5
33090.4,17755.3
33084.2,17748.5
33078.8,17741.1
33074,17733.3
33070.1,17725
33067,17716.3
33064.8,17707.4
33063.4,17698.3
33063,17689.2
33063,17492.3
33063.4,17483.2
33064.8,17474.1
33067,17465.2
33070.1,17456.5
33074,17448.2
33078.8,17440.4
33084.2,17433
33090.4,17426.2
33097.2,17420
33104.5,17414.6
33112.4,17409.9
33120.7,17405.9
33129.4,17402.8
33138.3,17400.6
33147.3,17399.3
33156.5,17398.8
33343.5,17398.8
Z" /> 
<path style="fill:#000000; fill-opacity:1.0; 
stroke:#000000; stroke-width:0; stroke-opacity:1; 
stroke-linecap:round; stroke-linejoin:round;fill-rule:evenodd;"
d="M 33352.7,18117.8
33361.7,18119.1
33370.6,18121.3
33379.3,18124.4
33387.6,18128.4
33395.5,18133.1
33402.8,18138.5
33409.6,18144.7
33415.8,18151.5
33421.2,18158.9
33426,18166.7
33429.9,18175
33433,18183.7
33435.2,18192.6
33436.6,18201.7
33437,18210.8
33437,18407.7
33436.6,18416.8
33435.2,18425.9
33433,18434.8
33429.9,18443.5
33426,18451.8
33421.2,18459.6
33415.8,18467
33409.6,18473.8
33402.8,18480
33395.5,18485.4
33387.6,18490.1
33379.3,18494.1
33370.6,18497.2
33361.7,18499.4
33352.7,18500.7
33343.5,18501.2
33156.5,18501.2
33147.3,18500.7
33138.3,18499.4
33129.4,18497.2
33120.7,18494.1
33112.4,18490.1
33104.5,18485.4
33097.2,18480
33090.4,18473.8
33084.2,18467
33078.8,18459.6
33074,18451.8
33070.1,18443.5
33067,18434.8
33064.8,18425.9
33063.4,18416.8
33063,18407.7
33063,18210.8
33063.4,18201.7
33064.8,18192.6
33067,18183.7
33070.1,18175
33074,18166.7
33078.8,18158.9
33084.2,18151.5
33090.4,18144.7
33097.2,18138.5
33104.5,18133.1
33112.4,18128.4
33120.7,18124.4
33129.4,18121.3
33138.3,18119.1
33147.3,18117.8
33156.5,18117.3
33343.5,18117.3
Z" /> 
</g>
<g >
</g>
<g style="fill:#000000; fill-opacity:1.0; 
stroke:#000000; stroke-width:0; stroke-opacity:1; 
stroke-linecap:round; stroke-linejoin:round;">
<path style="fill:#000000; fill-opacity:1.0; 
stroke:#000000; stroke-width:0; stroke-opacity:1; 
stroke-linecap:round; stroke-linejoin:round;fill-rule:evenodd;"
d="M 34552.7,17399.3
34561.7,17400.6
34570.6,17402.8
34579.3,17405.9
34587.6,17409.9
34595.5,17414.6
34602.8,17420
34609.6,17426.2
34615.8,17433
34621.2,17440.4
34626,17448.2
34629.9,17456.5
34633,17465.2
34635.2,17474.1
34636.6,17483.2
34637,17492.3
34637,17689.2
34636.6,17698.3
34635.2,17707.4
34633,17716.3
34629.9,17725
34626,17733.3
34621.2,17741.1
34615.8,17748.5
34609.6,17755.3
34602.8,17761.5
34595.5,17766.9
34587.6,17771.6
34579.3,17775.6
34570.6,17778.7
34561.7,17780.9
34552.7,17782.2
34543.5,17782.7
34356.5,17782.7
34347.3,17782.2
34338.3,17780.9
34329.4,17778.7
34320.7,17775.6
34312.4,17771.6
34304.5,17766.9
34297.2,17761.5
34290.4,17755.3
34284.2,17748.5
34278.8,17741.1
34274,17733.3
34270.1,17725
34267,17716.3
34264.8,17707.4
34263.4,17698.3
34263,17689.2
34263,17492.3
34263.4,17483.2
34264.8,17474.1
34267,17465.2
34270.1,17456.5
34274,17448.2
34278.8,17440.4
34284.2,17433
34290.4,17426.2
34297.2,17420
34304.5,17414.6
34312.4,17409.9
34320.7,17405.9
34329.4,17402.8
34338.3,17400.6
34347.3,17399.3
34356.5,17398.8
34543.5,17398.8
Z" /> 
<path style="fill:#000000; fill-opacity:1.0; 
stroke:#000000; stroke-width:0; stroke-opacity:1; 
stroke-linecap:round; stroke-linejoin:round;fill-rule:evenodd;"
d="M 34552.7,18117.8
34561.7,18119.1
34570.6,18121.3
34579.3,18124.4
34587.6,18128.4
34595.5,18133.1
34602.8,18138.5
34609.6,18144.7
34615.8,18151.5
34621.2,18158.9
34626,18166.7
34629.9,18175
34633,18183.7
34635.2,18192.6
34636.6,18201.7
34637,18210.8
34637,18407.7
34636.6,18416.8
34635.2,18425.9
34633,18434.8
34629.9,18443.5
34626,18451.8
34621.2,18459.6
34615.8,18467
34609.6,18473.8
34602.8,18480
34595.5,18485.4
34587.6,18490.1
34579.3,18494.1
34570.6,18497.2
34561.7,18499.4
34552.7,18500.7
34543.5,18501.2
34356.5,18501.2
34347.3,18500.7
34338.3,18499.4
34329.4,18497.2
34320.7,18494.1
34312.4,18490.1
34304.5,18485.4
34297.2,18480
34290.4,18473.8
34284.2,18467
34278.8,18459.6
34274,18451.8
34270.1,18443.5
34267,18434.8
34264.8,18425.9
34263.4,18416.8
34263,18407.7
34263,18210.8
34263.4,18201.7
34264.8,18192.6
34267,18183.7
34270.1,18175
34274,18166.7
34278.8,18158.9
34284.2,18151.5
34290.4,18144.7
34297.2,18138.5
34304.5,18133.1
34312.4,18128.4
34320.7,18124.4
34329.4,18121.3
34338.3,18119.1
34347.3,18117.8
34356.5,18117.3
34543.5,18117.3
Z" /> 
</g>
<g >
</g>
<g style="fill:#000000; fill-opacity:1.0; 
stroke:#000000; stroke-width:0; stroke-opacity:1; 
stroke-linecap:round; stroke-linejoin:round;">
<path style="fill:#000000; fill-opacity:1.0; 
stroke:#000000; stroke-width:0; stroke-opacity:1; 
stroke-linecap:round; stroke-linejoin:round;fill-rule:evenodd;"
d="M 34248.3,19363.4
34257.4,19364.8
34266.3,19367
34275,19370.1
34283.3,19374
34291.1,19378.8
34298.5,19384.2
34305.3,19390.4
34311.5,19397.2
34316.9,19404.5
34321.6,19412.4
34325.6,19420.7
34328.7,19429.4
34330.9,19438.3
34332.2,19447.3
34332.7,19456.5
34332.7,19643.5
34332.2,19652.7
34330.9,19661.7
34328.7,19670.6
34325.6,19679.3
34321.6,19687.6
34316.9,19695.5
34311.5,19702.8
34305.3,19709.6
34298.5,19715.8
34291.1,19721.2
34283.3,19726
34275,19729.9
34266.3,19733
34257.4,19735.2
34248.3,19736.6
34239.2,19737
34042.3,19737
34033.2,19736.6
34024.1,19735.2
34015.2,19733
34006.5,19729.9
33998.2,19726
33990.4,19721.2
33983,19715.8
33976.2,19709.6
33970,19702.8
33964.6,19695.5
33959.9,19687.6
33955.9,19679.3
33952.8,19670.6
33950.6,19661.7
33949.3,19652.7
33948.8,19643.5
33948.8,19456.5
33949.3,19447.3
33950.6,19438.3
33952.8,19429.4
33955.9,19420.7
33959.9,19412.4
33964.6,19404.5
33970,19397.2
33976.2,19390.4
33983,19384.2
33990.4,19378.8
33998.2,19374
34006.5,19370.1
34015.2,19367
34024.1,19364.8
34033.2,19363.4
34042.3,19363
34239.2,19363
Z" /> 
<path style="fill:#000000; fill-opacity:1.0; 
stroke:#000000; stroke-width:0; stroke-opacity:1; 
stroke-linecap:round; stroke-linejoin:round;fill-rule:evenodd;"
d="M 34966.8,19363.4
34975.9,19364.8
34984.8,19367
34993.5,19370.1
35001.8,19374
35009.6,19378.8
35017,19384.2
35023.8,19390.4
35030,19397.2
35035.4,19404.5
35040.1,19412.4
35044.1,19420.7
35047.2,19429.4
35049.4,19438.3
35050.7,19447.3
35051.2,19456.5
35051.2,19643.5
35050.7,19652.7
35049.4,19661.7
35047.2,19670.6
35044.1,19679.3
35040.1,19687.6
35035.4,19695.5
35030,19702.8
35023.8,19709.6
35017,19715.8
35009.6,19721.2
35001.8,19726
34993.5,19729.9
34984.8,19733
34975.9,19735.2
34966.8,19736.6
34957.7,19737
34760.8,19737
34751.7,19736.6
34742.6,19735.2
34733.7,19733
34725,19729.9
34716.7,19726
34708.9,19721.2
34701.5,19715.8
34694.7,19709.6
34688.5,19702.8
34683.1,19695.5
34678.4,19687.6
34674.4,19679.3
34671.3,19670.6
34669.1,19661.7
34667.8,19652.7
34667.3,19643.5
34667.3,19456.5
34667.8,19447.3
34669.1,19438.3
34671.3,19429.4
34674.4,19420.7
34678.4,19412.4
34683.1,19404.5
34688.5,19397.2
34694.7,19390.4
34701.5,19384.2
34708.9,19378.8
34716.7,19374
34725,19370.1
34733.7,19367
34742.6,19364.8
34751.7,19363.4
34760.8,19363
34957.7,19363
Z" /> 
</g>
<g >
</g>
<g style="fill:#000000; fill-opacity:1.0; 
stroke:#000000; stroke-width:0; stroke-opacity:1; 
stroke-linecap:round; stroke-linejoin:round;">
<path style="fill:#000000; fill-opacity:1.0; 
stroke:#000000; stroke-width:0; stroke-opacity:1; 
stroke-linecap:round; stroke-linejoin:round;fill-rule:evenodd;"
d="M 31298.3,17813.4
31307.4,17814.8
31316.3,17817
31325,17820.1
31333.3,17824
31341.1,17828.8
31348.5,17834.2
31355.3,17840.4
31361.5,17847.2
31366.9,17854.5
31371.6,17862.4
31375.6,17870.7
31378.7,17879.4
31380.9,17888.3
31382.2,17897.3
31382.7,17906.5
31382.7,18093.5
31382.2,18102.7
31380.9,18111.7
31378.7,18120.6
31375.6,18129.3
31371.6,18137.6
31366.9,18145.5
31361.5,18152.8
31355.3,18159.6
31348.5,18165.8
31341.1,18171.2
31333.3,18176
31325,18179.9
31316.3,18183
31307.4,18185.2
31298.3,18186.6
31289.2,18187
31092.3,18187
31083.2,18186.6
31074.1,18185.2
31065.2,18183
31056.5,18179.9
31048.2,18176
31040.4,18171.2
31033,18165.8
31026.2,18159.6
31020,18152.8
31014.6,18145.5
31009.9,18137.6
31005.9,18129.3
31002.8,18120.6
31000.6,18111.7
30999.3,18102.7
30998.8,18093.5
30998.8,17906.5
30999.3,17897.3
31000.6,17888.3
31002.8,17879.4
31005.9,17870.7
31009.9,17862.4
31014.6,17854.5
31020,17847.2
31026.2,17840.4
31033,17834.2
31040.4,17828.8
31048.2,17824
31056.5,17820.1
31065.2,17817
31074.1,17814.8
31083.2,17813.4
31092.3,17813
31289.2,17813
Z" /> 
<path style="fill:#000000; fill-opacity:1.0; 
stroke:#000000; stroke-width:0; stroke-opacity:1; 
stroke-linecap:round; stroke-linejoin:round;fill-rule:evenodd;"
d="M 32016.8,17813.4
32025.9,17814.8
32034.8,17817
32043.5,17820.1
32051.8,17824
32059.6,17828.8
32067,17834.2
32073.8,17840.4
32080,17847.2
32085.4,17854.5
32090.1,17862.4
32094.1,17870.7
32097.2,17879.4
32099.4,17888.3
32100.7,17897.3
32101.2,17906.5
32101.2,18093.5
32100.7,18102.7
32099.4,18111.7
32097.2,18120.6
32094.1,18129.3
32090.1,18137.6
32085.4,18145.5
32080,18152.8
32073.8,18159.6
32067,18165.8
32059.6,18171.2
32051.8,18176
32043.5,18179.9
32034.8,18183
32025.9,18185.2
32016.8,18186.6
32007.7,18187
31810.8,18187
31801.7,18186.6
31792.6,18185.2
31783.7,18183
31775,18179.9
31766.7,18176
31758.9,18171.2
31751.5,18165.8
31744.7,18159.6
31738.5,18152.8
31733.1,18145.5
31728.4,18137.6
31724.4,18129.3
31721.3,18120.6
31719.1,18111.7
31717.8,18102.7
31717.3,18093.5
31717.3,17906.5
31717.8,17897.3
31719.1,17888.3
31721.3,17879.4
31724.4,17870.7
31728.4,17862.4
31733.1,17854.5
31738.5,17847.2
31744.7,17840.4
31751.5,17834.2
31758.9,17828.8
31766.7,17824
31775,17820.1
31783.7,17817
31792.6,17814.8
31801.7,17813.4
31810.8,17813
32007.7,17813
Z" /> 
</g>
<g >
</g>
<g style="fill:#000000; fill-opacity:1.0; 
stroke:#000000; stroke-width:0; stroke-opacity:1; 
stroke-linecap:round; stroke-linejoin:round;">
<path style="fill:#000000; fill-opacity:1.0; 
stroke:#000000; stroke-width:0; stroke-opacity:1; 
stroke-linecap:round; stroke-linejoin:round;fill-rule:evenodd;"
d="M 34966.8,20513.4
34975.9,20514.8
34984.8,20517
34993.5,20520.1
35001.8,20524
35009.6,20528.8
35017,20534.2
35023.8,20540.4
35030,20547.2
35035.4,20554.5
35040.1,20562.4
35044.1,20570.7
35047.2,20579.4
35049.4,20588.3
35050.7,20597.3
35051.2,20606.5
35051.2,20793.5
35050.7,20802.7
35049.4,20811.7
35047.2,20820.6
35044.1,20829.3
35040.1,20837.6
35035.4,20845.5
35030,20852.8
35023.8,20859.6
35017,20865.8
35009.6,20871.2
35001.8,20876
34993.5,20879.9
34984.8,20883
34975.9,20885.2
34966.8,20886.6
34957.7,20887
34760.8,20887
34751.7,20886.6
34742.6,20885.2
34733.7,20883
34725,20879.9
34716.7,20876
34708.9,20871.2
34701.5,20865.8
34694.7,20859.6
34688.5,20852.8
34683.1,20845.5
34678.4,20837.6
34674.4,20829.3
34671.3,20820.6
34669.1,20811.7
34667.8,20802.7
34667.3,20793.5
34667.3,20606.5
34667.8,20597.3
34669.1,20588.3
34671.3,20579.4
34674.4,20570.7
34678.4,20562.4
34683.1,20554.5
34688.5,20547.2
34694.7,20540.4
34701.5,20534.2
34708.9,20528.8
34716.7,20524
34725,20520.1
34733.7,20517
34742.6,20514.8
34751.7,20513.4
34760.8,20513
34957.7,20513
Z" /> 
<path style="fill:#000000; fill-opacity:1.0; 
stroke:#000000; stroke-width:0; stroke-opacity:1; 
stroke-linecap:round; stroke-linejoin:round;fill-rule:evenodd;"
d="M 34248.3,20513.4
34257.4,20514.8
34266.3,20517
34275,20520.1
34283.3,20524
34291.1,20528.8
34298.5,20534.2
34305.3,20540.4
34311.5,20547.2
34316.9,20554.5
34321.6,20562.4
34325.6,20570.7
34328.7,20579.4
34330.9,20588.3
34332.2,20597.3
34332.7,20606.5
34332.7,20793.5
34332.2,20802.7
34330.9,20811.7
34328.7,20820.6
34325.6,20829.3
34321.6,20837.6
34316.9,20845.5
34311.5,20852.8
34305.3,20859.6
34298.5,20865.8
34291.1,20871.2
34283.3,20876
34275,20879.9
34266.3,20883
34257.4,20885.2
34248.3,20886.6
34239.2,20887
34042.3,20887
34033.2,20886.6
34024.1,20885.2
34015.2,20883
34006.5,20879.9
33998.2,20876
33990.4,20871.2
33983,20865.8
33976.2,20859.6
33970,20852.8
33964.6,20845.5
33959.9,20837.6
33955.9,20829.3
33952.8,20820.6
33950.6,20811.7
33949.3,20802.7
33948.8,20793.5
33948.8,20606.5
33949.3,20597.3
33950.6,20588.3
33952.8,20579.4
33955.9,20570.7
33959.9,20562.4
33964.6,20554.5
33970,20547.2
33976.2,20540.4
33983,20534.2
33990.4,20528.8
33998.2,20524
34006.5,20520.1
34015.2,20517
34024.1,20514.8
34033.2,20513.4
34042.3,20513
34239.2,20513
Z" /> 
</g>
<g >
</g>
<g style="fill:#000000; fill-opacity:1.0; 
stroke:#000000; stroke-width:0; stroke-opacity:1; 
stroke-linecap:round; stroke-linejoin:round;">
<path style="fill:#000000; fill-opacity:1.0; 
stroke:#000000; stroke-width:0; stroke-opacity:1; 
stroke-linecap:round; stroke-linejoin:round;fill-rule:evenodd;"
d="M 34966.8,24113.4
34975.9,24114.8
34984.8,24117
34993.5,24120.1
35001.8,24124
35009.6,24128.8
35017,24134.2
35023.8,24140.4
35030,24147.2
35035.4,24154.5
35040.1,24162.4
35044.1,24170.7
35047.2,24179.4
35049.4,24188.3
35050.7,24197.3
35051.2,24206.5
35051.2,24393.5
35050.7,24402.7
35049.4,24411.7
35047.2,24420.6
35044.1,24429.3
35040.1,24437.6
35035.4,24445.5
35030,24452.8
35023.8,24459.6
35017,24465.8
35009.6,24471.2
35001.8,24476
34993.5,24479.9
34984.8,24483
34975.9,24485.2
34966.8,24486.6
34957.7,24487
34760.8,24487
34751.7,24486.6
34742.6,24485.2
34733.7,24483
34725,24479.9
34716.7,24476
34708.9,24471.2
34701.5,24465.8
34694.7,24459.6
34688.5,24452.8
34683.1,24445.5
34678.4,24437.6
34674.4,24429.3
34671.3,24420.6
34669.1,24411.7
34667.8,24402.7
34667.3,24393.5
34667.3,24206.5
34667.8,24197.3
34669.1,24188.3
34671.3,24179.4
34674.4,24170.7
34678.4,24162.4
34683.1,24154.5
34688.5,24147.2
34694.7,24140.4
34701.5,24134.2
34708.9,24128.8
34716.7,24124
34725,24120.1
34733.7,24117
34742.6,24114.8
34751.7,24113.4
34760.8,24113
34957.7,24113
Z" /> 
<path style="fill:#000000; fill-opacity:1.0; 
stroke:#000000; stroke-width:0; stroke-opacity:1; 
stroke-linecap:round; stroke-linejoin:round;fill-rule:evenodd;"
d="M 34248.3,24113.4
34257.4,24114.8
34266.3,24117
34275,24120.1
34283.3,24124
34291.1,24128.8
34298.5,24134.2
34305.3,24140.4
34311.5,24147.2
34316.9,24154.5
34321.6,24162.4
34325.6,24170.7
34328.7,24179.4
34330.9,24188.3
34332.2,24197.3
34332.7,24206.5
34332.7,24393.5
34332.2,24402.7
34330.9,24411.7
34328.7,24420.6
34325.6,24429.3
34321.6,24437.6
34316.9,24445.5
34311.5,24452.8
34305.3,24459.6
34298.5,24465.8
34291.1,24471.2
34283.3,24476
34275,24479.9
34266.3,24483
34257.4,24485.2
34248.3,24486.6
34239.2,24487
34042.3,24487
34033.2,24486.6
34024.1,24485.2
34015.2,24483
34006.5,24479.9
33998.2,24476
33990.4,24471.2
33983,24465.8
33976.2,24459.6
33970,24452.8
33964.6,24445.5
33959.9,24437.6
33955.9,24429.3
33952.8,24420.6
33950.6,24411.7
33949.3,24402.7
33948.8,24393.5
33948.8,24206.5
33949.3,24197.3
33950.6,24188.3
33952.8,24179.4
33955.9,24170.7
33959.9,24162.4
33964.6,24154.5
33970,24147.2
33976.2,24140.4
33983,24134.2
33990.4,24128.8
33998.2,24124
34006.5,24120.1
34015.2,24117
34024.1,24114.8
34033.2,24113.4
34042.3,24113
34239.2,24113
Z" /> 
</g>
<g >
</g>
<g style="fill:#000000; fill-opacity:1.0; 
stroke:#000000; stroke-width:0; stroke-opacity:1; 
stroke-linecap:round; stroke-linejoin:round;">
<path style="fill:#000000; fill-opacity:1.0; 
stroke:#000000; stroke-width:0; stroke-opacity:1; 
stroke-linecap:round; stroke-linejoin:round;fill-rule:evenodd;"
d="M 34966.8,22963.4
34975.9,22964.8
34984.8,22967
34993.5,22970.1
35001.8,22974
35009.6,22978.8
35017,22984.2
35023.8,22990.4
35030,22997.2
35035.4,23004.5
35040.1,23012.4
35044.1,23020.7
35047.2,23029.4
35049.4,23038.3
35050.7,23047.3
35051.2,23056.5
35051.2,23243.5
35050.7,23252.7
35049.4,23261.7
35047.2,23270.6
35044.1,23279.3
35040.1,23287.6
35035.4,23295.5
35030,23302.8
35023.8,23309.6
35017,23315.8
35009.6,23321.2
35001.8,23326
34993.5,23329.9
34984.8,23333
34975.9,23335.2
34966.8,23336.6
34957.7,23337
34760.8,23337
34751.7,23336.6
34742.6,23335.2
34733.7,23333
34725,23329.9
34716.7,23326
34708.9,23321.2
34701.5,23315.8
34694.7,23309.6
34688.5,23302.8
34683.1,23295.5
34678.4,23287.6
34674.4,23279.3
34671.3,23270.6
34669.1,23261.7
34667.8,23252.7
34667.3,23243.5
34667.3,23056.5
34667.8,23047.3
34669.1,23038.3
34671.3,23029.4
34674.4,23020.7
34678.4,23012.4
34683.1,23004.5
34688.5,22997.2
34694.7,22990.4
34701.5,22984.2
34708.9,22978.8
34716.7,22974
34725,22970.1
34733.7,22967
34742.6,22964.8
34751.7,22963.4
34760.8,22963
34957.7,22963
Z" /> 
<path style="fill:#000000; fill-opacity:1.0; 
stroke:#000000; stroke-width:0; stroke-opacity:1; 
stroke-linecap:round; stroke-linejoin:round;fill-rule:evenodd;"
d="M 34248.3,22963.4
34257.4,22964.8
34266.3,22967
34275,22970.1
34283.3,22974
34291.1,22978.8
34298.5,22984.2
34305.3,22990.4
34311.5,22997.2
34316.9,23004.5
34321.6,23012.4
34325.6,23020.7
34328.7,23029.4
34330.9,23038.3
34332.2,23047.3
34332.7,23056.5
34332.7,23243.5
34332.2,23252.7
34330.9,23261.7
34328.7,23270.6
34325.6,23279.3
34321.6,23287.6
34316.9,23295.5
34311.5,23302.8
34305.3,23309.6
34298.5,23315.8
34291.1,23321.2
34283.3,23326
34275,23329.9
34266.3,23333
34257.4,23335.2
34248.3,23336.6
34239.2,23337
34042.3,23337
34033.2,23336.6
34024.1,23335.2
34015.2,23333
34006.5,23329.9
33998.2,23326
33990.4,23321.2
33983,23315.8
33976.2,23309.6
33970,23302.8
33964.6,23295.5
33959.9,23287.6
33955.9,23279.3
33952.8,23270.6
33950.6,23261.7
33949.3,23252.7
33948.8,23243.5
33948.8,23056.5
33949.3,23047.3
33950.6,23038.3
33952.8,23029.4
33955.9,23020.7
33959.9,23012.4
33964.6,23004.5
33970,22997.2
33976.2,22990.4
33983,22984.2
33990.4,22978.8
33998.2,22974
34006.5,22970.1
34015.2,22967
34024.1,22964.8
34033.2,22963.4
34042.3,22963
34239.2,22963
Z" /> 
</g>
<g >
</g>
<g style="fill:#000000; fill-opacity:1.0; 
stroke:#000000; stroke-width:0; stroke-opacity:1; 
stroke-linecap:round; stroke-linejoin:round;">
<path style="fill:#000000; fill-opacity:1.0; 
stroke:#000000; stroke-width:0; stroke-opacity:1; 
stroke-linecap:round; stroke-linejoin:round;fill-rule:evenodd;"
d="M 34966.8,21813.4
34975.9,21814.8
34984.8,21817
34993.5,21820.1
35001.8,21824
35009.6,21828.8
35017,21834.2
35023.8,21840.4
35030,21847.2
35035.4,21854.5
35040.1,21862.4
35044.1,21870.7
35047.2,21879.4
35049.4,21888.3
35050.7,21897.3
35051.2,21906.5
35051.2,22093.5
35050.7,22102.7
35049.4,22111.7
35047.2,22120.6
35044.1,22129.3
35040.1,22137.6
35035.4,22145.5
35030,22152.8
35023.8,22159.6
35017,22165.8
35009.6,22171.2
35001.8,22176
34993.5,22179.9
34984.8,22183
34975.9,22185.2
34966.8,22186.6
34957.7,22187
34760.8,22187
34751.7,22186.6
34742.6,22185.2
34733.7,22183
34725,22179.9
34716.7,22176
34708.9,22171.2
34701.5,22165.8
34694.7,22159.6
34688.5,22152.8
34683.1,22145.5
34678.4,22137.6
34674.4,22129.3
34671.3,22120.6
34669.1,22111.7
34667.8,22102.7
34667.3,22093.5
34667.3,21906.5
34667.8,21897.3
34669.1,21888.3
34671.3,21879.4
34674.4,21870.7
34678.4,21862.4
34683.1,21854.5
34688.5,21847.2
34694.7,21840.4
34701.5,21834.2
34708.9,21828.8
34716.7,21824
34725,21820.1
34733.7,21817
34742.6,21814.8
34751.7,21813.4
34760.8,21813
34957.7,21813
Z" /> 
<path style="fill:#000000; fill-opacity:1.0; 
stroke:#000000; stroke-width:0; stroke-opacity:1; 
stroke-linecap:round; stroke-linejoin:round;fill-rule:evenodd;"
d="M 34248.3,21813.4
34257.4,21814.8
34266.3,21817
34275,21820.1
34283.3,21824
34291.1,21828.8
34298.5,21834.2
34305.3,21840.4
34311.5,21847.2
34316.9,21854.5
34321.6,21862.4
34325.6,21870.7
34328.7,21879.4
34330.9,21888.3
34332.2,21897.3
34332.7,21906.5
34332.7,22093.5
34332.2,22102.7
34330.9,22111.7
34328.7,22120.6
34325.6,22129.3
34321.6,22137.6
34316.9,22145.5
34311.5,22152.8
34305.3,22159.6
34298.5,22165.8
34291.1,22171.2
34283.3,22176
34275,22179.9
34266.3,22183
34257.4,22185.2
34248.3,22186.6
34239.2,22187
34042.3,22187
34033.2,22186.6
34024.1,22185.2
34015.2,22183
34006.5,22179.9
33998.2,22176
33990.4,22171.2
33983,22165.8
33976.2,22159.6
33970,22152.8
33964.6,22145.5
33959.9,22137.6
33955.9,22129.3
33952.8,22120.6
33950.6,22111.7
33949.3,22102.7
33948.8,22093.5
33948.8,21906.5
33949.3,21897.3
33950.6,21888.3
33952.8,21879.4
33955.9,21870.7
33959.9,21862.4
33964.6,21854.5
33970,21847.2
33976.2,21840.4
33983,21834.2
33990.4,21828.8
33998.2,21824
34006.5,21820.1
34015.2,21817
34024.1,21814.8
34033.2,21813.4
34042.3,21813
34239.2,21813
Z" /> 
</g>
<g >
</g>
<g style="fill:#000000; fill-opacity:1.0; 
stroke:#000000; stroke-width:0; stroke-opacity:1; 
stroke-linecap:round; stroke-linejoin:round;">
<path style="fill:#000000; fill-opacity:1.0; 
stroke:#000000; stroke-width:0; stroke-opacity:1; 
stroke-linecap:round; stroke-linejoin:round;fill-rule:evenodd;"
d="M 32882.7,24167.8
32891.7,24169.1
32900.6,24171.3
32909.3,24174.4
32917.6,24178.4
32925.5,24183.1
32932.8,24188.5
32939.6,24194.7
32945.8,24201.5
32951.2,24208.9
32956,24216.7
32959.9,24225
32963,24233.7
32965.2,24242.6
32966.6,24251.7
32967,24260.8
32967,24457.7
32966.6,24466.8
32965.2,24475.9
32963,24484.8
32959.9,24493.5
32956,24501.8
32951.2,24509.6
32945.8,24517
32939.6,24523.8
32932.8,24530
32925.5,24535.4
32917.6,24540.1
32909.3,24544.1
32900.6,24547.2
32891.7,24549.4
32882.7,24550.7
32873.5,24551.2
32686.5,24551.2
32677.3,24550.7
32668.3,24549.4
32659.4,24547.2
32650.7,24544.1
32642.4,24540.1
32634.5,24535.4
32627.2,24530
32620.4,24523.8
32614.2,24517
32608.8,24509.6
32604,24501.8
32600.1,24493.5
32597,24484.8
32594.8,24475.9
32593.4,24466.8
32593,24457.7
32593,24260.8
32593.4,24251.7
32594.8,24242.6
32597,24233.7
32600.1,24225
32604,24216.7
32608.8,24208.9
32614.2,24201.5
32620.4,24194.7
32627.2,24188.5
32634.5,24183.1
32642.4,24178.4
32650.7,24174.4
32659.4,24171.3
32668.3,24169.1
32677.3,24167.8
32686.5,24167.3
32873.5,24167.3
Z" /> 
<path style="fill:#000000; fill-opacity:1.0; 
stroke:#000000; stroke-width:0; stroke-opacity:1; 
stroke-linecap:round; stroke-linejoin:round;fill-rule:evenodd;"
d="M 32882.7,23449.3
32891.7,23450.6
32900.6,23452.8
32909.3,23455.9
32917.6,23459.9
32925.5,23464.6
32932.8,23470
32939.6,23476.2
32945.8,23483
32951.2,23490.4
32956,23498.2
32959.9,23506.5
32963,23515.2
32965.2,23524.1
32966.6,23533.2
32967,23542.3
32967,23739.2
32966.6,23748.3
32965.2,23757.4
32963,23766.3
32959.9,23775
32956,23783.3
32951.2,23791.1
32945.8,23798.5
32939.6,23805.3
32932.8,23811.5
32925.5,23816.9
32917.6,23821.6
32909.3,23825.6
32900.6,23828.7
32891.7,23830.9
32882.7,23832.2
32873.5,23832.7
32686.5,23832.7
32677.3,23832.2
32668.3,23830.9
32659.4,23828.7
32650.7,23825.6
32642.4,23821.6
32634.5,23816.9
32627.2,23811.5
32620.4,23805.3
32614.2,23798.5
32608.8,23791.1
32604,23783.3
32600.1,23775
32597,23766.3
32594.8,23757.4
32593.4,23748.3
32593,23739.2
32593,23542.3
32593.4,23533.2
32594.8,23524.1
32597,23515.2
32600.1,23506.5
32604,23498.2
32608.8,23490.4
32614.2,23483
32620.4,23476.2
32627.2,23470
32634.5,23464.6
32642.4,23459.9
32650.7,23455.9
32659.4,23452.8
32668.3,23450.6
32677.3,23449.3
32686.5,23448.8
32873.5,23448.8
Z" /> 
</g>
<g >
</g>
<g style="fill:#000000; fill-opacity:1.0; 
stroke:#000000; stroke-width:0; stroke-opacity:1; 
stroke-linecap:round; stroke-linejoin:round;">
<path style="fill:#000000; fill-opacity:1.0; 
stroke:#000000; stroke-width:0; stroke-opacity:1; 
stroke-linecap:round; stroke-linejoin:round;fill-rule:evenodd;"
d="M 31782.7,23449.3
31791.7,23450.6
31800.6,23452.8
31809.3,23455.9
31817.6,23459.9
31825.5,23464.6
31832.8,23470
31839.6,23476.2
31845.8,23483
31851.2,23490.4
31856,23498.2
31859.9,23506.5
31863,23515.2
31865.2,23524.1
31866.6,23533.2
31867,23542.3
31867,23739.2
31866.6,23748.3
31865.2,23757.4
31863,23766.3
31859.9,23775
31856,23783.3
31851.2,23791.1
31845.8,23798.5
31839.6,23805.3
31832.8,23811.5
31825.5,23816.9
31817.6,23821.6
31809.3,23825.6
31800.6,23828.7
31791.7,23830.9
31782.7,23832.2
31773.5,23832.7
31586.5,23832.7
31577.3,23832.2
31568.3,23830.9
31559.4,23828.7
31550.7,23825.6
31542.4,23821.6
31534.5,23816.9
31527.2,23811.5
31520.4,23805.3
31514.2,23798.5
31508.8,23791.1
31504,23783.3
31500.1,23775
31497,23766.3
31494.8,23757.4
31493.4,23748.3
31493,23739.2
31493,23542.3
31493.4,23533.2
31494.8,23524.1
31497,23515.2
31500.1,23506.5
31504,23498.2
31508.8,23490.4
31514.2,23483
31520.4,23476.2
31527.2,23470
31534.5,23464.6
31542.4,23459.9
31550.7,23455.9
31559.4,23452.8
31568.3,23450.6
31577.3,23449.3
31586.5,23448.8
31773.5,23448.8
Z" /> 
<path style="fill:#000000; fill-opacity:1.0; 
stroke:#000000; stroke-width:0; stroke-opacity:1; 
stroke-linecap:round; stroke-linejoin:round;fill-rule:evenodd;"
d="M 31782.7,24167.8
31791.7,24169.1
31800.6,24171.3
31809.3,24174.4
31817.6,24178.4
31825.5,24183.1
31832.8,24188.5
31839.6,24194.7
31845.8,24201.5
31851.2,24208.9
31856,24216.7
31859.9,24225
31863,24233.7
31865.2,24242.6
31866.6,24251.7
31867,24260.8
31867,24457.7
31866.6,24466.8
31865.2,24475.9
31863,24484.8
31859.9,24493.5
31856,24501.8
31851.2,24509.6
31845.8,24517
31839.6,24523.8
31832.8,24530
31825.5,24535.4
31817.6,24540.1
31809.3,24544.1
31800.6,24547.2
31791.7,24549.4
31782.7,24550.7
31773.5,24551.2
31586.5,24551.2
31577.3,24550.7
31568.3,24549.4
31559.4,24547.2
31550.7,24544.1
31542.4,24540.1
31534.5,24535.4
31527.2,24530
31520.4,24523.8
31514.2,24517
31508.8,24509.6
31504,24501.8
31500.1,24493.5
31497,24484.8
31494.8,24475.9
31493.4,24466.8
31493,24457.7
31493,24260.8
31493.4,24251.7
31494.8,24242.6
31497,24233.7
31500.1,24225
31504,24216.7
31508.8,24208.9
31514.2,24201.5
31520.4,24194.7
31527.2,24188.5
31534.5,24183.1
31542.4,24178.4
31550.7,24174.4
31559.4,24171.3
31568.3,24169.1
31577.3,24167.8
31586.5,24167.3
31773.5,24167.3
Z" /> 
</g>
<g >
</g>
<g style="fill:#000000; fill-opacity:1.0; 
stroke:#000000; stroke-width:0; stroke-opacity:1; 
stroke-linecap:round; stroke-linejoin:round;">
<path style="fill:#000000; fill-opacity:1.0; 
stroke:#000000; stroke-width:0; stroke-opacity:1; 
stroke-linecap:round; stroke-linejoin:round;fill-rule:evenodd;"
d="M 30632.7,24167.8
30641.7,24169.1
30650.6,24171.3
30659.3,24174.4
30667.6,24178.4
30675.5,24183.1
30682.8,24188.5
30689.6,24194.7
30695.8,24201.5
30701.2,24208.9
30706,24216.7
30709.9,24225
30713,24233.7
30715.2,24242.6
30716.6,24251.7
30717,24260.8
30717,24457.7
30716.6,24466.8
30715.2,24475.9
30713,24484.8
30709.9,24493.5
30706,24501.8
30701.2,24509.6
30695.8,24517
30689.6,24523.8
30682.8,24530
30675.5,24535.4
30667.6,24540.1
30659.3,24544.1
30650.6,24547.2
30641.7,24549.4
30632.7,24550.7
30623.5,24551.2
30436.5,24551.2
30427.3,24550.7
30418.3,24549.4
30409.4,24547.2
30400.7,24544.1
30392.4,24540.1
30384.5,24535.4
30377.2,24530
30370.4,24523.8
30364.2,24517
30358.8,24509.6
30354,24501.8
30350.1,24493.5
30347,24484.8
30344.8,24475.9
30343.4,24466.8
30343,24457.7
30343,24260.8
30343.4,24251.7
30344.8,24242.6
30347,24233.7
30350.1,24225
30354,24216.7
30358.8,24208.9
30364.2,24201.5
30370.4,24194.7
30377.2,24188.5
30384.5,24183.1
30392.4,24178.4
30400.7,24174.4
30409.4,24171.3
30418.3,24169.1
30427.3,24167.8
30436.5,24167.3
30623.5,24167.3
Z" /> 
<path style="fill:#000000; fill-opacity:1.0; 
stroke:#000000; stroke-width:0; stroke-opacity:1; 
stroke-linecap:round; stroke-linejoin:round;fill-rule:evenodd;"
d="M 30632.7,23449.3
30641.7,23450.6
30650.6,23452.8
30659.3,23455.9
30667.6,23459.9
30675.5,23464.6
30682.8,23470
30689.6,23476.2
30695.8,23483
30701.2,23490.4
30706,23498.2
30709.9,23506.5
30713,23515.2
30715.2,23524.1
30716.6,23533.2
30717,23542.3
30717,23739.2
30716.6,23748.3
30715.2,23757.4
30713,23766.3
30709.9,23775
30706,23783.3
30701.2,23791.1
30695.8,23798.5
30689.6,23805.3
30682.8,23811.5
30675.5,23816.9
30667.6,23821.6
30659.3,23825.6
30650.6,23828.7
30641.7,23830.9
30632.7,23832.2
30623.5,23832.7
30436.5,23832.7
30427.3,23832.2
30418.3,23830.9
30409.4,23828.7
30400.7,23825.6
30392.4,23821.6
30384.5,23816.9
30377.2,23811.5
30370.4,23805.3
30364.2,23798.5
30358.8,23791.1
30354,23783.3
30350.1,23775
30347,23766.3
30344.8,23757.4
30343.4,23748.3
30343,23739.2
30343,23542.3
30343.4,23533.2
30344.8,23524.1
30347,23515.2
30350.1,23506.5
30354,23498.2
30358.8,23490.4
30364.2,23483
30370.4,23476.2
30377.2,23470
30384.5,23464.6
30392.4,23459.9
30400.7,23455.9
30409.4,23452.8
30418.3,23450.6
30427.3,23449.3
30436.5,23448.8
30623.5,23448.8
Z" /> 
</g>
<g >
</g>
<g style="fill:#000000; fill-opacity:1.0; 
stroke:#000000; stroke-width:0; stroke-opacity:1; 
stroke-linecap:round; stroke-linejoin:round;">
<path style="fill:#000000; fill-opacity:1.0; 
stroke:#000000; stroke-width:0; stroke-opacity:1; 
stroke-linecap:round; stroke-linejoin:round;fill-rule:evenodd;"
d="M 27248.3,17813.4
27257.4,17814.8
27266.3,17817
27275,17820.1
27283.3,17824
27291.1,17828.8
27298.5,17834.2
27305.3,17840.4
27311.5,17847.2
27316.9,17854.5
27321.6,17862.4
27325.6,17870.7
27328.7,17879.4
27330.9,17888.3
27332.2,17897.3
27332.7,17906.5
27332.7,18093.5
27332.2,18102.7
27330.9,18111.7
27328.7,18120.6
27325.6,18129.3
27321.6,18137.6
27316.9,18145.5
27311.5,18152.8
27305.3,18159.6
27298.5,18165.8
27291.1,18171.2
27283.3,18176
27275,18179.9
27266.3,18183
27257.4,18185.2
27248.3,18186.6
27239.2,18187
27042.3,18187
27033.2,18186.6
27024.1,18185.2
27015.2,18183
27006.5,18179.9
26998.2,18176
26990.4,18171.2
26983,18165.8
26976.2,18159.6
26970,18152.8
26964.6,18145.5
26959.9,18137.6
26955.9,18129.3
26952.8,18120.6
26950.6,18111.7
26949.3,18102.7
26948.8,18093.5
26948.8,17906.5
26949.3,17897.3
26950.6,17888.3
26952.8,17879.4
26955.9,17870.7
26959.9,17862.4
26964.6,17854.5
26970,17847.2
26976.2,17840.4
26983,17834.2
26990.4,17828.8
26998.2,17824
27006.5,17820.1
27015.2,17817
27024.1,17814.8
27033.2,17813.4
27042.3,17813
27239.2,17813
Z" /> 
<path style="fill:#000000; fill-opacity:1.0; 
stroke:#000000; stroke-width:0; stroke-opacity:1; 
stroke-linecap:round; stroke-linejoin:round;fill-rule:evenodd;"
d="M 27966.8,17813.4
27975.9,17814.8
27984.8,17817
27993.5,17820.1
28001.8,17824
28009.6,17828.8
28017,17834.2
28023.8,17840.4
28030,17847.2
28035.4,17854.5
28040.1,17862.4
28044.1,17870.7
28047.2,17879.4
28049.4,17888.3
28050.7,17897.3
28051.2,17906.5
28051.2,18093.5
28050.7,18102.7
28049.4,18111.7
28047.2,18120.6
28044.1,18129.3
28040.1,18137.6
28035.4,18145.5
28030,18152.8
28023.8,18159.6
28017,18165.8
28009.6,18171.2
28001.8,18176
27993.5,18179.9
27984.8,18183
27975.9,18185.2
27966.8,18186.6
27957.7,18187
27760.8,18187
27751.7,18186.6
27742.6,18185.2
27733.7,18183
27725,18179.9
27716.7,18176
27708.9,18171.2
27701.5,18165.8
27694.7,18159.6
27688.5,18152.8
27683.1,18145.5
27678.4,18137.6
27674.4,18129.3
27671.3,18120.6
27669.1,18111.7
27667.8,18102.7
27667.3,18093.5
27667.3,17906.5
27667.8,17897.3
27669.1,17888.3
27671.3,17879.4
27674.4,17870.7
27678.4,17862.4
27683.1,17854.5
27688.5,17847.2
27694.7,17840.4
27701.5,17834.2
27708.9,17828.8
27716.7,17824
27725,17820.1
27733.7,17817
27742.6,17814.8
27751.7,17813.4
27760.8,17813
27957.7,17813
Z" /> 
</g>
<g >
</g>
<g style="fill:#000000; fill-opacity:1.0; 
stroke:#000000; stroke-width:0; stroke-opacity:1; 
stroke-linecap:round; stroke-linejoin:round;">
<path style="fill:#000000; fill-opacity:1.0; 
stroke:#000000; stroke-width:0; stroke-opacity:1; 
stroke-linecap:round; stroke-linejoin:round;fill-rule:evenodd;"
d="M 29248.3,17813.4
29257.4,17814.8
29266.3,17817
29275,17820.1
29283.3,17824
29291.1,17828.8
29298.5,17834.2
29305.3,17840.4
29311.5,17847.2
29316.9,17854.5
29321.6,17862.4
29325.6,17870.7
29328.7,17879.4
29330.9,17888.3
29332.2,17897.3
29332.7,17906.5
29332.7,18093.5
29332.2,18102.7
29330.9,18111.7
29328.7,18120.6
29325.6,18129.3
29321.6,18137.6
29316.9,18145.5
29311.5,18152.8
29305.3,18159.6
29298.5,18165.8
29291.1,18171.2
29283.3,18176
29275,18179.9
29266.3,18183
29257.4,18185.2
29248.3,18186.6
29239.2,18187
29042.3,18187
29033.2,18186.6
29024.1,18185.2
29015.2,18183
29006.5,18179.9
28998.2,18176
28990.4,18171.2
28983,18165.8
28976.2,18159.6
28970,18152.8
28964.6,18145.5
28959.9,18137.6
28955.9,18129.3
28952.8,18120.6
28950.6,18111.7
28949.3,18102.7
28948.8,18093.5
28948.8,17906.5
28949.3,17897.3
28950.6,17888.3
28952.8,17879.4
28955.9,17870.7
28959.9,17862.4
28964.6,17854.5
28970,17847.2
28976.2,17840.4
28983,17834.2
28990.4,17828.8
28998.2,17824
29006.5,17820.1
29015.2,17817
29024.1,17814.8
29033.2,17813.4
29042.3,17813
29239.2,17813
Z" /> 
<path style="fill:#000000; fill-opacity:1.0; 
stroke:#000000; stroke-width:0; stroke-opacity:1; 
stroke-linecap:round; stroke-linejoin:round;fill-rule:evenodd;"
d="M 29966.8,17813.4
29975.9,17814.8
29984.8,17817
29993.5,17820.1
30001.8,17824
30009.6,17828.8
30017,17834.2
30023.8,17840.4
30030,17847.2
30035.4,17854.5
30040.1,17862.4
30044.1,17870.7
30047.2,17879.4
30049.4,17888.3
30050.7,17897.3
30051.2,17906.5
30051.2,18093.5
30050.7,18102.7
30049.4,18111.7
30047.2,18120.6
30044.1,18129.3
30040.1,18137.6
30035.4,18145.5
30030,18152.8
30023.8,18159.6
30017,18165.8
30009.6,18171.2
30001.8,18176
29993.5,18179.9
29984.8,18183
29975.9,18185.2
29966.8,18186.6
29957.7,18187
29760.8,18187
29751.7,18186.6
29742.6,18185.2
29733.7,18183
29725,18179.9
29716.7,18176
29708.9,18171.2
29701.5,18165.8
29694.7,18159.6
29688.5,18152.8
29683.1,18145.5
29678.4,18137.6
29674.4,18129.3
29671.3,18120.6
29669.1,18111.7
29667.8,18102.7
29667.3,18093.5
29667.3,17906.5
29667.8,17897.3
29669.1,17888.3
29671.3,17879.4
29674.4,17870.7
29678.4,17862.4
29683.1,17854.5
29688.5,17847.2
29694.7,17840.4
29701.5,17834.2
29708.9,17828.8
29716.7,17824
29725,17820.1
29733.7,17817
29742.6,17814.8
29751.7,17813.4
29760.8,17813
29957.7,17813
Z" /> 
</g>
<g >
</g>
<g style="fill:#000000; fill-opacity:1.0; 
stroke:#000000; stroke-width:0; stroke-opacity:1; 
stroke-linecap:round; stroke-linejoin:round;">
<path style="fill:#000000; fill-opacity:1.0; 
stroke:#000000; stroke-width:0; stroke-opacity:1; 
stroke-linecap:round; stroke-linejoin:round;fill-rule:evenodd;"
d="M 29166.8,23963.4
29175.9,23964.8
29184.8,23967
29193.5,23970.1
29201.8,23974
29209.6,23978.8
29217,23984.2
29223.8,23990.4
29230,23997.2
29235.4,24004.5
29240.1,24012.4
29244.1,24020.7
29247.2,24029.4
29249.4,24038.3
29250.7,24047.3
29251.2,24056.5
29251.2,24243.5
29250.7,24252.7
29249.4,24261.7
29247.2,24270.6
29244.1,24279.3
29240.1,24287.6
29235.4,24295.5
29230,24302.8
29223.8,24309.6
29217,24315.8
29209.6,24321.2
29201.8,24326
29193.5,24329.9
29184.8,24333
29175.9,24335.2
29166.8,24336.6
29157.7,24337
28960.8,24337
28951.7,24336.6
28942.6,24335.2
28933.7,24333
28925,24329.9
28916.7,24326
28908.9,24321.2
28901.5,24315.8
28894.7,24309.6
28888.5,24302.8
28883.1,24295.5
28878.4,24287.6
28874.4,24279.3
28871.3,24270.6
28869.1,24261.7
28867.8,24252.7
28867.3,24243.5
28867.3,24056.5
28867.8,24047.3
28869.1,24038.3
28871.3,24029.4
28874.4,24020.7
28878.4,24012.4
28883.1,24004.5
28888.5,23997.2
28894.7,23990.4
28901.5,23984.2
28908.9,23978.8
28916.7,23974
28925,23970.1
28933.7,23967
28942.6,23964.8
28951.7,23963.4
28960.8,23963
29157.7,23963
Z" /> 
<path style="fill:#000000; fill-opacity:1.0; 
stroke:#000000; stroke-width:0; stroke-opacity:1; 
stroke-linecap:round; stroke-linejoin:round;fill-rule:evenodd;"
d="M 28448.3,23963.4
28457.4,23964.8
28466.3,23967
28475,23970.1
28483.3,23974
28491.1,23978.8
28498.5,23984.2
28505.3,23990.4
28511.5,23997.2
28516.9,24004.5
28521.6,24012.4
28525.6,24020.7
28528.7,24029.4
28530.9,24038.3
28532.2,24047.3
28532.7,24056.5
28532.7,24243.5
28532.2,24252.7
28530.9,24261.7
28528.7,24270.6
28525.6,24279.3
28521.6,24287.6
28516.9,24295.5
28511.5,24302.8
28505.3,24309.6
28498.5,24315.8
28491.1,24321.2
28483.3,24326
28475,24329.9
28466.3,24333
28457.4,24335.2
28448.3,24336.6
28439.2,24337
28242.3,24337
28233.2,24336.6
28224.1,24335.2
28215.2,24333
28206.5,24329.9
28198.2,24326
28190.4,24321.2
28183,24315.8
28176.2,24309.6
28170,24302.8
28164.6,24295.5
28159.9,24287.6
28155.9,24279.3
28152.8,24270.6
28150.6,24261.7
28149.3,24252.7
28148.8,24243.5
28148.8,24056.5
28149.3,24047.3
28150.6,24038.3
28152.8,24029.4
28155.9,24020.7
28159.9,24012.4
28164.6,24004.5
28170,23997.2
28176.2,23990.4
28183,23984.2
28190.4,23978.8
28198.2,23974
28206.5,23970.1
28215.2,23967
28224.1,23964.8
28233.2,23963.4
28242.3,23963
28439.2,23963
Z" /> 
</g>
<g >
</g>
<g style="fill:#000000; fill-opacity:1.0; 
stroke:#000000; stroke-width:0; stroke-opacity:1; 
stroke-linecap:round; stroke-linejoin:round;">
<path style="fill:#000000; fill-opacity:1.0; 
stroke:#000000; stroke-width:0; stroke-opacity:1; 
stroke-linecap:round; stroke-linejoin:round;fill-rule:evenodd;"
d="M 29166.8,22863.4
29175.9,22864.8
29184.8,22867
29193.5,22870.1
29201.8,22874
29209.6,22878.8
29217,22884.2
29223.8,22890.4
29230,22897.2
29235.4,22904.5
29240.1,22912.4
29244.1,22920.7
29247.2,22929.4
29249.4,22938.3
29250.7,22947.3
29251.2,22956.5
29251.2,23143.5
29250.7,23152.7
29249.4,23161.7
29247.2,23170.6
29244.1,23179.3
29240.1,23187.6
29235.4,23195.5
29230,23202.8
29223.8,23209.6
29217,23215.8
29209.6,23221.2
29201.8,23226
29193.5,23229.9
29184.8,23233
29175.9,23235.2
29166.8,23236.6
29157.7,23237
28960.8,23237
28951.7,23236.6
28942.6,23235.2
28933.7,23233
28925,23229.9
28916.7,23226
28908.9,23221.2
28901.5,23215.8
28894.7,23209.6
28888.5,23202.8
28883.1,23195.5
28878.4,23187.6
28874.4,23179.3
28871.3,23170.6
28869.1,23161.7
28867.8,23152.7
28867.3,23143.5
28867.3,22956.5
28867.8,22947.3
28869.1,22938.3
28871.3,22929.4
28874.4,22920.7
28878.4,22912.4
28883.1,22904.5
28888.5,22897.2
28894.7,22890.4
28901.5,22884.2
28908.9,22878.8
28916.7,22874
28925,22870.1
28933.7,22867
28942.6,22864.8
28951.7,22863.4
28960.8,22863
29157.7,22863
Z" /> 
<path style="fill:#000000; fill-opacity:1.0; 
stroke:#000000; stroke-width:0; stroke-opacity:1; 
stroke-linecap:round; stroke-linejoin:round;fill-rule:evenodd;"
d="M 28448.3,22863.4
28457.4,22864.8
28466.3,22867
28475,22870.1
28483.3,22874
28491.1,22878.8
28498.5,22884.2
28505.3,22890.4
28511.5,22897.2
28516.9,22904.5
28521.6,22912.4
28525.6,22920.7
28528.7,22929.4
28530.9,22938.3
28532.2,22947.3
28532.7,22956.5
28532.7,23143.5
28532.2,23152.7
28530.9,23161.7
28528.7,23170.6
28525.6,23179.3
28521.6,23187.6
28516.9,23195.5
28511.5,23202.8
28505.3,23209.6
28498.5,23215.8
28491.1,23221.2
28483.3,23226
28475,23229.9
28466.3,23233
28457.4,23235.2
28448.3,23236.6
28439.2,23237
28242.3,23237
28233.2,23236.6
28224.1,23235.2
28215.2,23233
28206.5,23229.9
28198.2,23226
28190.4,23221.2
28183,23215.8
28176.2,23209.6
28170,23202.8
28164.6,23195.5
28159.9,23187.6
28155.9,23179.3
28152.8,23170.6
28150.6,23161.7
28149.3,23152.7
28148.8,23143.5
28148.8,22956.5
28149.3,22947.3
28150.6,22938.3
28152.8,22929.4
28155.9,22920.7
28159.9,22912.4
28164.6,22904.5
28170,22897.2
28176.2,22890.4
28183,22884.2
28190.4,22878.8
28198.2,22874
28206.5,22870.1
28215.2,22867
28224.1,22864.8
28233.2,22863.4
28242.3,22863
28439.2,22863
Z" /> 
</g>
<g >
</g>
<g style="fill:#000000; fill-opacity:1.0; 
stroke:#000000; stroke-width:0; stroke-opacity:1; 
stroke-linecap:round; stroke-linejoin:round;">
<path style="fill:#000000; fill-opacity:1.0; 
stroke:#000000; stroke-width:0; stroke-opacity:1; 
stroke-linecap:round; stroke-linejoin:round;fill-rule:evenodd;"
d="M 29042.7,19310
29051.7,19311.4
29060.6,19313.6
29069.3,19316.7
29077.6,19320.6
29085.5,19325.3
29092.8,19330.8
29099.6,19337
29105.8,19343.8
29111.2,19351.1
29116,19359
29119.9,19367.3
29123,19375.9
29125.2,19384.8
29126.6,19393.9
29127,19403.1
29127,19599.9
29126.6,19609.1
29125.2,19618.2
29123,19627.1
29119.9,19635.7
29116,19644
29111.2,19651.9
29105.8,19659.2
29099.6,19666
29092.8,19672.2
29085.5,19677.7
29077.6,19682.4
29069.3,19686.3
29060.6,19689.4
29051.7,19691.6
29042.7,19693
29033.5,19693.4
28846.5,19693.4
28837.3,19693
28828.3,19691.6
28819.4,19689.4
28810.7,19686.3
28802.4,19682.4
28794.5,19677.7
28787.2,19672.2
28780.4,19666
28774.2,19659.2
28768.8,19651.9
28764,19644
28760.1,19635.7
28757,19627.1
28754.8,19618.2
28753.4,19609.1
28753,19599.9
28753,19403.1
28753.4,19393.9
28754.8,19384.8
28757,19375.9
28760.1,19367.3
28764,19359
28768.8,19351.1
28774.2,19343.8
28780.4,19337
28787.2,19330.8
28794.5,19325.3
28802.4,19320.6
28810.7,19316.7
28819.4,19313.6
28828.3,19311.4
28837.3,19310
28846.5,19309.6
29033.5,19309.6
Z" /> 
<path style="fill:#000000; fill-opacity:1.0; 
stroke:#000000; stroke-width:0; stroke-opacity:1; 
stroke-linecap:round; stroke-linejoin:round;fill-rule:evenodd;"
d="M 29042.7,20028.5
29051.7,20029.9
29060.6,20032.1
29069.3,20035.2
29077.6,20039.1
29085.5,20043.8
29092.8,20049.3
29099.6,20055.5
29105.8,20062.3
29111.2,20069.6
29116,20077.5
29119.9,20085.8
29123,20094.4
29125.2,20103.3
29126.6,20112.4
29127,20121.6
29127,20318.4
29126.6,20327.6
29125.2,20336.7
29123,20345.6
29119.9,20354.2
29116,20362.5
29111.2,20370.4
29105.8,20377.7
29099.6,20384.5
29092.8,20390.7
29085.5,20396.2
29077.6,20400.9
29069.3,20404.8
29060.6,20407.9
29051.7,20410.1
29042.7,20411.5
29033.5,20411.9
28846.5,20411.9
28837.3,20411.5
28828.3,20410.1
28819.4,20407.9
28810.7,20404.8
28802.4,20400.9
28794.5,20396.2
28787.2,20390.7
28780.4,20384.5
28774.2,20377.7
28768.8,20370.4
28764,20362.5
28760.1,20354.2
28757,20345.6
28754.8,20336.7
28753.4,20327.6
28753,20318.4
28753,20121.6
28753.4,20112.4
28754.8,20103.3
28757,20094.4
28760.1,20085.8
28764,20077.5
28768.8,20069.6
28774.2,20062.3
28780.4,20055.5
28787.2,20049.3
28794.5,20043.8
28802.4,20039.1
28810.7,20035.2
28819.4,20032.1
28828.3,20029.9
28837.3,20028.5
28846.5,20028.1
29033.5,20028.1
Z" /> 
</g>
<g >
</g>
<g style="fill:#000000; fill-opacity:1.0; 
stroke:#000000; stroke-width:0; stroke-opacity:1; 
stroke-linecap:round; stroke-linejoin:round;">
<path style="fill:#000000; fill-opacity:1.0; 
stroke:#000000; stroke-width:0; stroke-opacity:1; 
stroke-linecap:round; stroke-linejoin:round;fill-rule:evenodd;"
d="M 27916.8,21313.4
27925.9,21314.8
27934.8,21317
27943.5,21320.1
27951.8,21324
27959.6,21328.8
27967,21334.2
27973.8,21340.4
27980,21347.2
27985.4,21354.5
27990.1,21362.4
27994.1,21370.7
27997.2,21379.4
27999.4,21388.3
28000.7,21397.3
28001.2,21406.5
28001.2,21593.5
28000.7,21602.7
27999.4,21611.7
27997.2,21620.6
27994.1,21629.3
27990.1,21637.6
27985.4,21645.5
27980,21652.8
27973.8,21659.6
27967,21665.8
27959.6,21671.2
27951.8,21676
27943.5,21679.9
27934.8,21683
27925.9,21685.2
27916.8,21686.6
27907.7,21687
27710.8,21687
27701.7,21686.6
27692.6,21685.2
27683.7,21683
27675,21679.9
27666.7,21676
27658.9,21671.2
27651.5,21665.8
27644.7,21659.6
27638.5,21652.8
27633.1,21645.5
27628.4,21637.6
27624.4,21629.3
27621.3,21620.6
27619.1,21611.7
27617.8,21602.7
27617.3,21593.5
27617.3,21406.5
27617.8,21397.3
27619.1,21388.3
27621.3,21379.4
27624.4,21370.7
27628.4,21362.4
27633.1,21354.5
27638.5,21347.2
27644.7,21340.4
27651.5,21334.2
27658.9,21328.8
27666.7,21324
27675,21320.1
27683.7,21317
27692.6,21314.8
27701.7,21313.4
27710.8,21313
27907.7,21313
Z" /> 
<path style="fill:#000000; fill-opacity:1.0; 
stroke:#000000; stroke-width:0; stroke-opacity:1; 
stroke-linecap:round; stroke-linejoin:round;fill-rule:evenodd;"
d="M 27198.3,21313.4
27207.4,21314.8
27216.3,21317
27225,21320.1
27233.3,21324
27241.1,21328.8
27248.5,21334.2
27255.3,21340.4
27261.5,21347.2
27266.9,21354.5
27271.6,21362.4
27275.6,21370.7
27278.7,21379.4
27280.9,21388.3
27282.2,21397.3
27282.7,21406.5
27282.7,21593.5
27282.2,21602.7
27280.9,21611.7
27278.7,21620.6
27275.6,21629.3
27271.6,21637.6
27266.9,21645.5
27261.5,21652.8
27255.3,21659.6
27248.5,21665.8
27241.1,21671.2
27233.3,21676
27225,21679.9
27216.3,21683
27207.4,21685.2
27198.3,21686.6
27189.2,21687
26992.3,21687
26983.2,21686.6
26974.1,21685.2
26965.2,21683
26956.5,21679.9
26948.2,21676
26940.4,21671.2
26933,21665.8
26926.2,21659.6
26920,21652.8
26914.6,21645.5
26909.9,21637.6
26905.9,21629.3
26902.8,21620.6
26900.6,21611.7
26899.3,21602.7
26898.8,21593.5
26898.8,21406.5
26899.3,21397.3
26900.6,21388.3
26902.8,21379.4
26905.9,21370.7
26909.9,21362.4
26914.6,21354.5
26920,21347.2
26926.2,21340.4
26933,21334.2
26940.4,21328.8
26948.2,21324
26956.5,21320.1
26965.2,21317
26974.1,21314.8
26983.2,21313.4
26992.3,21313
27189.2,21313
Z" /> 
</g>
<g >
</g>
<g style="fill:#000000; fill-opacity:1.0; 
stroke:#000000; stroke-width:0; stroke-opacity:1; 
stroke-linecap:round; stroke-linejoin:round;">
<path style="fill:#000000; fill-opacity:1.0; 
stroke:#000000; stroke-width:0; stroke-opacity:1; 
stroke-linecap:round; stroke-linejoin:round;fill-rule:evenodd;"
d="M 27906.8,20033.4
27915.9,20034.8
27924.8,20037
27933.5,20040.1
27941.8,20044
27949.6,20048.8
27957,20054.2
27963.8,20060.4
27970,20067.2
27975.4,20074.5
27980.1,20082.4
27984.1,20090.7
27987.2,20099.4
27989.4,20108.3
27990.7,20117.3
27991.2,20126.5
27991.2,20313.5
27990.7,20322.7
27989.4,20331.7
27987.2,20340.6
27984.1,20349.3
27980.1,20357.6
27975.4,20365.5
27970,20372.8
27963.8,20379.6
27957,20385.8
27949.6,20391.2
27941.8,20396
27933.5,20399.9
27924.8,20403
27915.9,20405.2
27906.8,20406.6
27897.7,20407
27700.8,20407
27691.7,20406.6
27682.6,20405.2
27673.7,20403
27665,20399.9
27656.7,20396
27648.9,20391.2
27641.5,20385.8
27634.7,20379.6
27628.5,20372.8
27623.1,20365.5
27618.4,20357.6
27614.4,20349.3
27611.3,20340.6
27609.1,20331.7
27607.8,20322.7
27607.3,20313.5
27607.3,20126.5
27607.8,20117.3
27609.1,20108.3
27611.3,20099.4
27614.4,20090.7
27618.4,20082.4
27623.1,20074.5
27628.5,20067.2
27634.7,20060.4
27641.5,20054.2
27648.9,20048.8
27656.7,20044
27665,20040.1
27673.7,20037
27682.6,20034.8
27691.7,20033.4
27700.8,20033
27897.7,20033
Z" /> 
<path style="fill:#000000; fill-opacity:1.0; 
stroke:#000000; stroke-width:0; stroke-opacity:1; 
stroke-linecap:round; stroke-linejoin:round;fill-rule:evenodd;"
d="M 27188.3,20033.4
27197.4,20034.8
27206.3,20037
27215,20040.1
27223.3,20044
27231.1,20048.8
27238.5,20054.2
27245.3,20060.4
27251.5,20067.2
27256.9,20074.5
27261.6,20082.4
27265.6,20090.7
27268.7,20099.4
27270.9,20108.3
27272.2,20117.3
27272.7,20126.5
27272.7,20313.5
27272.2,20322.7
27270.9,20331.7
27268.7,20340.6
27265.6,20349.3
27261.6,20357.6
27256.9,20365.5
27251.5,20372.8
27245.3,20379.6
27238.5,20385.8
27231.1,20391.2
27223.3,20396
27215,20399.9
27206.3,20403
27197.4,20405.2
27188.3,20406.6
27179.2,20407
26982.3,20407
26973.2,20406.6
26964.1,20405.2
26955.2,20403
26946.5,20399.9
26938.2,20396
26930.4,20391.2
26923,20385.8
26916.2,20379.6
26910,20372.8
26904.6,20365.5
26899.9,20357.6
26895.9,20349.3
26892.8,20340.6
26890.6,20331.7
26889.3,20322.7
26888.8,20313.5
26888.8,20126.5
26889.3,20117.3
26890.6,20108.3
26892.8,20099.4
26895.9,20090.7
26899.9,20082.4
26904.6,20074.5
26910,20067.2
26916.2,20060.4
26923,20054.2
26930.4,20048.8
26938.2,20044
26946.5,20040.1
26955.2,20037
26964.1,20034.8
26973.2,20033.4
26982.3,20033
27179.2,20033
Z" /> 
</g>
<g >
</g>
<g style="fill:#000000; fill-opacity:1.0; 
stroke:#000000; stroke-width:0; stroke-opacity:1; 
stroke-linecap:round; stroke-linejoin:round;">
<path style="fill:#000000; fill-opacity:1.0; 
stroke:#000000; stroke-width:0; stroke-opacity:1; 
stroke-linecap:round; stroke-linejoin:round;fill-rule:evenodd;"
d="M 27188.3,18963.4
27197.4,18964.8
27206.3,18967
27215,18970.1
27223.3,18974
27231.1,18978.8
27238.5,18984.2
27245.3,18990.4
27251.5,18997.2
27256.9,19004.5
27261.6,19012.4
27265.6,19020.7
27268.7,19029.4
27270.9,19038.3
27272.2,19047.3
27272.7,19056.5
27272.7,19243.5
27272.2,19252.7
27270.9,19261.7
27268.7,19270.6
27265.6,19279.3
27261.6,19287.6
27256.9,19295.5
27251.5,19302.8
27245.3,19309.6
27238.5,19315.8
27231.1,19321.2
27223.3,19326
27215,19329.9
27206.3,19333
27197.4,19335.2
27188.3,19336.6
27179.2,19337
26982.3,19337
26973.2,19336.6
26964.1,19335.2
26955.2,19333
26946.5,19329.9
26938.2,19326
26930.4,19321.2
26923,19315.8
26916.2,19309.6
26910,19302.8
26904.6,19295.5
26899.9,19287.6
26895.9,19279.3
26892.8,19270.6
26890.6,19261.7
26889.3,19252.7
26888.8,19243.5
26888.8,19056.5
26889.3,19047.3
26890.6,19038.3
26892.8,19029.4
26895.9,19020.7
26899.9,19012.4
26904.6,19004.5
26910,18997.2
26916.2,18990.4
26923,18984.2
26930.4,18978.8
26938.2,18974
26946.5,18970.1
26955.2,18967
26964.1,18964.8
26973.2,18963.4
26982.3,18963
27179.2,18963
Z" /> 
<path style="fill:#000000; fill-opacity:1.0; 
stroke:#000000; stroke-width:0; stroke-opacity:1; 
stroke-linecap:round; stroke-linejoin:round;fill-rule:evenodd;"
d="M 27906.8,18963.4
27915.9,18964.8
27924.8,18967
27933.5,18970.1
27941.8,18974
27949.6,18978.8
27957,18984.2
27963.8,18990.4
27970,18997.2
27975.4,19004.5
27980.1,19012.4
27984.1,19020.7
27987.2,19029.4
27989.4,19038.3
27990.7,19047.3
27991.2,19056.5
27991.2,19243.5
27990.7,19252.7
27989.4,19261.7
27987.2,19270.6
27984.1,19279.3
27980.1,19287.6
27975.4,19295.5
27970,19302.8
27963.8,19309.6
27957,19315.8
27949.6,19321.2
27941.8,19326
27933.5,19329.9
27924.8,19333
27915.9,19335.2
27906.8,19336.6
27897.7,19337
27700.8,19337
27691.7,19336.6
27682.6,19335.2
27673.7,19333
27665,19329.9
27656.7,19326
27648.9,19321.2
27641.5,19315.8
27634.7,19309.6
27628.5,19302.8
27623.1,19295.5
27618.4,19287.6
27614.4,19279.3
27611.3,19270.6
27609.1,19261.7
27607.8,19252.7
27607.3,19243.5
27607.3,19056.5
27607.8,19047.3
27609.1,19038.3
27611.3,19029.4
27614.4,19020.7
27618.4,19012.4
27623.1,19004.5
27628.5,18997.2
27634.7,18990.4
27641.5,18984.2
27648.9,18978.8
27656.7,18974
27665,18970.1
27673.7,18967
27682.6,18964.8
27691.7,18963.4
27700.8,18963
27897.7,18963
Z" /> 
</g>
<g >
</g>
<g style="fill:#000000; fill-opacity:1.0; 
stroke:#000000; stroke-width:0; stroke-opacity:1; 
stroke-linecap:round; stroke-linejoin:round;">
<path style="fill:#000000; fill-opacity:1.0; 
stroke:#000000; stroke-width:0; stroke-opacity:1; 
stroke-linecap:round; stroke-linejoin:round;fill-rule:evenodd;"
d="M 27202.7,23417.8
27211.7,23419.1
27220.6,23421.3
27229.3,23424.4
27237.6,23428.4
27245.5,23433.1
27252.8,23438.5
27259.6,23444.7
27265.8,23451.5
27271.2,23458.9
27276,23466.7
27279.9,23475
27283,23483.7
27285.2,23492.6
27286.6,23501.7
27287,23510.8
27287,23707.7
27286.6,23716.8
27285.2,23725.9
27283,23734.8
27279.9,23743.5
27276,23751.8
27271.2,23759.6
27265.8,23767
27259.6,23773.8
27252.8,23780
27245.5,23785.4
27237.6,23790.1
27229.3,23794.1
27220.6,23797.2
27211.7,23799.4
27202.7,23800.7
27193.5,23801.2
27006.5,23801.2
26997.3,23800.7
26988.3,23799.4
26979.4,23797.2
26970.7,23794.1
26962.4,23790.1
26954.5,23785.4
26947.2,23780
26940.4,23773.8
26934.2,23767
26928.8,23759.6
26924,23751.8
26920.1,23743.5
26917,23734.8
26914.8,23725.9
26913.4,23716.8
26913,23707.7
26913,23510.8
26913.4,23501.7
26914.8,23492.6
26917,23483.7
26920.1,23475
26924,23466.7
26928.8,23458.9
26934.2,23451.5
26940.4,23444.7
26947.2,23438.5
26954.5,23433.1
26962.4,23428.4
26970.7,23424.4
26979.4,23421.3
26988.3,23419.1
26997.3,23417.8
27006.5,23417.3
27193.5,23417.3
Z" /> 
<path style="fill:#000000; fill-opacity:1.0; 
stroke:#000000; stroke-width:0; stroke-opacity:1; 
stroke-linecap:round; stroke-linejoin:round;fill-rule:evenodd;"
d="M 27202.7,22699.3
27211.7,22700.6
27220.6,22702.8
27229.3,22705.9
27237.6,22709.9
27245.5,22714.6
27252.8,22720
27259.6,22726.2
27265.8,22733
27271.2,22740.4
27276,22748.2
27279.9,22756.5
27283,22765.2
27285.2,22774.1
27286.6,22783.2
27287,22792.3
27287,22989.2
27286.6,22998.3
27285.2,23007.4
27283,23016.3
27279.9,23025
27276,23033.3
27271.2,23041.1
27265.8,23048.5
27259.6,23055.3
27252.8,23061.5
27245.5,23066.9
27237.6,23071.6
27229.3,23075.6
27220.6,23078.7
27211.7,23080.9
27202.7,23082.2
27193.5,23082.7
27006.5,23082.7
26997.3,23082.2
26988.3,23080.9
26979.4,23078.7
26970.7,23075.6
26962.4,23071.6
26954.5,23066.9
26947.2,23061.5
26940.4,23055.3
26934.2,23048.5
26928.8,23041.1
26924,23033.3
26920.1,23025
26917,23016.3
26914.8,23007.4
26913.4,22998.3
26913,22989.2
26913,22792.3
26913.4,22783.2
26914.8,22774.1
26917,22765.2
26920.1,22756.5
26924,22748.2
26928.8,22740.4
26934.2,22733
26940.4,22726.2
26947.2,22720
26954.5,22714.6
26962.4,22709.9
26970.7,22705.9
26979.4,22702.8
26988.3,22700.6
26997.3,22699.3
27006.5,22698.8
27193.5,22698.8
Z" /> 
</g>
<g >
</g>
<g style="fill:#000000; fill-opacity:1.0; 
stroke:#000000; stroke-width:0; stroke-opacity:1; 
stroke-linecap:round; stroke-linejoin:round;">
<path style="fill:#000000; fill-opacity:1.0; 
stroke:#000000; stroke-width:0; stroke-opacity:1; 
stroke-linecap:round; stroke-linejoin:round;fill-rule:evenodd;"
d="M 27202.7,25392.8
27211.7,25394.1
27220.6,25396.3
27229.3,25399.4
27237.6,25403.4
27245.5,25408.1
27252.8,25413.5
27259.6,25419.7
27265.8,25426.5
27271.2,25433.9
27276,25441.7
27279.9,25450
27283,25458.7
27285.2,25467.6
27286.6,25476.7
27287,25485.8
27287,25682.7
27286.6,25691.8
27285.2,25700.9
27283,25709.8
27279.9,25718.5
27276,25726.8
27271.2,25734.6
27265.8,25742
27259.6,25748.8
27252.8,25755
27245.5,25760.4
27237.6,25765.1
27229.3,25769.1
27220.6,25772.2
27211.7,25774.4
27202.7,25775.7
27193.5,25776.2
27006.5,25776.2
26997.3,25775.7
26988.3,25774.4
26979.4,25772.2
26970.7,25769.1
26962.4,25765.1
26954.5,25760.4
26947.2,25755
26940.4,25748.8
26934.2,25742
26928.8,25734.6
26924,25726.8
26920.1,25718.5
26917,25709.8
26914.8,25700.9
26913.4,25691.8
26913,25682.7
26913,25485.8
26913.4,25476.7
26914.8,25467.6
26917,25458.7
26920.1,25450
26924,25441.7
26928.8,25433.9
26934.2,25426.5
26940.4,25419.7
26947.2,25413.5
26954.5,25408.1
26962.4,25403.4
26970.7,25399.4
26979.4,25396.3
26988.3,25394.1
26997.3,25392.8
27006.5,25392.3
27193.5,25392.3
Z" /> 
<path style="fill:#000000; fill-opacity:1.0; 
stroke:#000000; stroke-width:0; stroke-opacity:1; 
stroke-linecap:round; stroke-linejoin:round;fill-rule:evenodd;"
d="M 27202.7,24674.3
27211.7,24675.6
27220.6,24677.8
27229.3,24680.9
27237.6,24684.9
27245.5,24689.6
27252.8,24695
27259.6,24701.2
27265.8,24708
27271.2,24715.4
27276,24723.2
27279.9,24731.5
27283,24740.2
27285.2,24749.1
27286.6,24758.2
27287,24767.3
27287,24964.2
27286.6,24973.3
27285.2,24982.4
27283,24991.3
27279.9,25000
27276,25008.3
27271.2,25016.1
27265.8,25023.5
27259.6,25030.3
27252.8,25036.5
27245.5,25041.9
27237.6,25046.6
27229.3,25050.6
27220.6,25053.7
27211.7,25055.9
27202.7,25057.2
27193.5,25057.7
27006.5,25057.7
26997.3,25057.2
26988.3,25055.9
26979.4,25053.7
26970.7,25050.6
26962.4,25046.6
26954.5,25041.9
26947.2,25036.5
26940.4,25030.3
26934.2,25023.5
26928.8,25016.1
26924,25008.3
26920.1,25000
26917,24991.3
26914.8,24982.4
26913.4,24973.3
26913,24964.2
26913,24767.3
26913.4,24758.2
26914.8,24749.1
26917,24740.2
26920.1,24731.5
26924,24723.2
26928.8,24715.4
26934.2,24708
26940.4,24701.2
26947.2,24695
26954.5,24689.6
26962.4,24684.9
26970.7,24680.9
26979.4,24677.8
26988.3,24675.6
26997.3,24674.3
27006.5,24673.8
27193.5,24673.8
Z" /> 
</g>
<g >
</g>
<g style="fill:#000000; fill-opacity:1.0; 
stroke:#000000; stroke-width:0; stroke-opacity:1; 
stroke-linecap:round; stroke-linejoin:round;">
<path style="fill:#000000; fill-opacity:1.0; 
stroke:#000000; stroke-width:0; stroke-opacity:1; 
stroke-linecap:round; stroke-linejoin:round;fill-rule:evenodd;"
d="M 29402.7,26117.8
29411.7,26119.1
29420.6,26121.3
29429.3,26124.4
29437.6,26128.4
29445.5,26133.1
29452.8,26138.5
29459.6,26144.7
29465.8,26151.5
29471.2,26158.9
29476,26166.7
29479.9,26175
29483,26183.7
29485.2,26192.6
29486.6,26201.7
29487,26210.8
29487,26407.7
29486.6,26416.8
29485.2,26425.9
29483,26434.8
29479.9,26443.5
29476,26451.8
29471.2,26459.6
29465.8,26467
29459.6,26473.8
29452.8,26480
29445.5,26485.4
29437.6,26490.1
29429.3,26494.1
29420.6,26497.2
29411.7,26499.4
29402.7,26500.7
29393.5,26501.2
29206.5,26501.2
29197.3,26500.7
29188.3,26499.4
29179.4,26497.2
29170.7,26494.1
29162.4,26490.1
29154.5,26485.4
29147.2,26480
29140.4,26473.8
29134.2,26467
29128.8,26459.6
29124,26451.8
29120.1,26443.5
29117,26434.8
29114.8,26425.9
29113.4,26416.8
29113,26407.7
29113,26210.8
29113.4,26201.7
29114.8,26192.6
29117,26183.7
29120.1,26175
29124,26166.7
29128.8,26158.9
29134.2,26151.5
29140.4,26144.7
29147.2,26138.5
29154.5,26133.1
29162.4,26128.4
29170.7,26124.4
29179.4,26121.3
29188.3,26119.1
29197.3,26117.8
29206.5,26117.3
29393.5,26117.3
Z" /> 
<path style="fill:#000000; fill-opacity:1.0; 
stroke:#000000; stroke-width:0; stroke-opacity:1; 
stroke-linecap:round; stroke-linejoin:round;fill-rule:evenodd;"
d="M 29402.7,25399.3
29411.7,25400.6
29420.6,25402.8
29429.3,25405.9
29437.6,25409.9
29445.5,25414.6
29452.8,25420
29459.6,25426.2
29465.8,25433
29471.2,25440.4
29476,25448.2
29479.9,25456.5
29483,25465.2
29485.2,25474.1
29486.6,25483.2
29487,25492.3
29487,25689.2
29486.6,25698.3
29485.2,25707.4
29483,25716.3
29479.9,25725
29476,25733.3
29471.2,25741.1
29465.8,25748.5
29459.6,25755.3
29452.8,25761.5
29445.5,25766.9
29437.6,25771.6
29429.3,25775.6
29420.6,25778.7
29411.7,25780.9
29402.7,25782.2
29393.5,25782.7
29206.5,25782.7
29197.3,25782.2
29188.3,25780.9
29179.4,25778.7
29170.7,25775.6
29162.4,25771.6
29154.5,25766.9
29147.2,25761.5
29140.4,25755.3
29134.2,25748.5
29128.8,25741.1
29124,25733.3
29120.1,25725
29117,25716.3
29114.8,25707.4
29113.4,25698.3
29113,25689.2
29113,25492.3
29113.4,25483.2
29114.8,25474.1
29117,25465.2
29120.1,25456.5
29124,25448.2
29128.8,25440.4
29134.2,25433
29140.4,25426.2
29147.2,25420
29154.5,25414.6
29162.4,25409.9
29170.7,25405.9
29179.4,25402.8
29188.3,25400.6
29197.3,25399.3
29206.5,25398.8
29393.5,25398.8
Z" /> 
</g>
<g >
</g>
<g style="fill:#000000; fill-opacity:1.0; 
stroke:#000000; stroke-width:0; stroke-opacity:1; 
stroke-linecap:round; stroke-linejoin:round;">
</g>
<g style="fill:#000000; fill-opacity:1.0; 
stroke:#000000; stroke-width:669.291; stroke-opacity:1; 
stroke-linecap:round; stroke-linejoin:round;">
</g>
<g style="fill:#000000; fill-opacity:0.0; 
stroke:#000000; stroke-width:669.291; stroke-opacity:1; 
stroke-linecap:round; stroke-linejoin:round;">
<path d="M27549 15468
L27450 15468
" />
<path d="M27549 14484
L27450 14484
" />
</g>
<g style="fill:#000000; fill-opacity:0.0; 
stroke:#000000; stroke-width:0; stroke-opacity:1; 
stroke-linecap:round; stroke-linejoin:round;">
</g>
<g style="fill:#000000; fill-opacity:1.0; 
stroke:#000000; stroke-width:0; stroke-opacity:1; 
stroke-linecap:round; stroke-linejoin:round;">
<path style="fill:#000000; fill-opacity:1.0; 
stroke:#000000; stroke-width:0; stroke-opacity:1; 
stroke-linecap:round; stroke-linejoin:round;fill-rule:evenodd;"
d="M 27795.1,13165.8
27804.6,13167.2
27814,13169.6
27823.1,13172.8
27831.8,13177
27840.1,13181.9
27847.9,13187.7
27855,13194.2
27861.5,13201.3
27867.3,13209.1
27872.2,13217.4
27876.4,13226.1
27879.6,13235.2
27882,13244.6
27883.4,13254.1
27883.9,13263.8
27883.9,13736.2
27883.4,13745.9
27882,13755.4
27879.6,13764.8
27876.4,13773.9
27872.2,13782.6
27867.3,13790.9
27861.5,13798.7
27855,13805.8
27847.9,13812.3
27840.1,13818.1
27831.8,13823
27823.1,13827.2
27814,13830.4
27804.6,13832.8
27795.1,13834.2
27785.4,13834.6
27214.6,13834.6
27204.9,13834.2
27195.4,13832.8
27186,13830.4
27176.9,13827.2
27168.2,13823
27159.9,13818.1
27152.1,13812.3
27145,13805.8
27138.5,13798.7
27132.7,13790.9
27127.8,13782.6
27123.6,13773.9
27120.4,13764.8
27118,13755.4
27116.6,13745.9
27116.1,13736.2
27116.1,13263.8
27116.6,13254.1
27118,13244.6
27120.4,13235.2
27123.6,13226.1
27127.8,13217.4
27132.7,13209.1
27138.5,13201.3
27145,13194.2
27152.1,13187.7
27159.9,13181.9
27168.2,13177
27176.9,13172.8
27186,13169.6
27195.4,13167.2
27204.9,13165.8
27214.6,13165.4
27785.4,13165.4
Z" /> 
</g>
<g >
</g>
<g style="fill:#000000; fill-opacity:1.0; 
stroke:#000000; stroke-width:0; stroke-opacity:1; 
stroke-linecap:round; stroke-linejoin:round;">
<circle cx="31250" cy="15950" r="334.646" /> 
<circle cx="30250" cy="15950" r="334.646" /> 
<circle cx="31250" cy="14950" r="334.646" /> 
<circle cx="30250" cy="14950" r="334.646" /> 
<circle cx="31250" cy="13950" r="334.646" /> 
<circle cx="30250" cy="13950" r="334.646" /> 
<circle cx="31250" cy="12950" r="334.646" /> 
<path style="fill:#000000; fill-opacity:1.0; 
stroke:#000000; stroke-width:0; stroke-opacity:1; 
stroke-linecap:round; stroke-linejoin:round;fill-rule:evenodd;"
d="M 29915.4,13284.6
29915.4,12615.4
30584.6,12615.4
30584.6,13284.6
Z" /> 
</g>
<g >
</g>
<g style="fill:#000000; fill-opacity:1.0; 
stroke:#000000; stroke-width:0; stroke-opacity:1; 
stroke-linecap:round; stroke-linejoin:round;">
<circle cx="29468.5" cy="29500" r="511.811" /> 
</g>
<g style="fill:#000000; fill-opacity:1.0; 
stroke:#000000; stroke-width:39.3701; stroke-opacity:1; 
stroke-linecap:round; stroke-linejoin:round;">
</g>
<g style="fill:#000000; fill-opacity:1.0; 
stroke:#000000; stroke-width:0; stroke-opacity:1; 
stroke-linecap:round; stroke-linejoin:round;">
<path style="fill:#000000; fill-opacity:1.0; 
stroke:#000000; stroke-width:0; stroke-opacity:1; 
stroke-linecap:round; stroke-linejoin:round;fill-rule:evenodd;"
d="M 26988.2,30011.8
26988.2,28988.2
28011.8,28988.2
28011.8,30011.8
Z" /> 
</g>
<g >
</g>
<g style="fill:#000000; fill-opacity:1.0; 
stroke:#000000; stroke-width:0; stroke-opacity:1; 
stroke-linecap:round; stroke-linejoin:round;">
</g>
<g style="fill:#000000; fill-opacity:1.0; 
stroke:#000000; stroke-width:669.291; stroke-opacity:1; 
stroke-linecap:round; stroke-linejoin:round;">
</g>
<g style="fill:#000000; fill-opacity:0.0; 
stroke:#000000; stroke-width:669.291; stroke-opacity:1; 
stroke-linecap:round; stroke-linejoin:round;">
<path d="M34059 14934
L33940 14934
" />
</g>
<g style="fill:#000000; fill-opacity:0.0; 
stroke:#000000; stroke-width:0; stroke-opacity:1; 
stroke-linecap:round; stroke-linejoin:round;">
</g>
<g style="fill:#000000; fill-opacity:1.0; 
stroke:#000000; stroke-width:0; stroke-opacity:1; 
stroke-linecap:round; stroke-linejoin:round;">
<path style="fill:#000000; fill-opacity:1.0; 
stroke:#000000; stroke-width:0; stroke-opacity:1; 
stroke-linecap:round; stroke-linejoin:round;fill-rule:evenodd;"
d="M 34304.9,13615.8
34314.5,13617.2
34323.8,13619.6
34332.9,13622.8
34341.7,13627
34350,13631.9
34357.7,13637.7
34364.9,13644.2
34371.4,13651.3
34377.1,13659.1
34382.1,13667.4
34386.2,13676.1
34389.5,13685.2
34391.8,13694.6
34393.2,13704.1
34393.7,13713.8
34393.7,14186.2
34393.2,14195.9
34391.8,14205.4
34389.5,14214.8
34386.2,14223.9
34382.1,14232.6
34377.1,14240.9
34371.4,14248.7
34364.9,14255.8
34357.7,14262.3
34350,14268.1
34341.7,14273
34332.9,14277.2
34323.8,14280.4
34314.5,14282.8
34304.9,14284.2
34295.3,14284.6
33704.7,14284.6
33695.1,14284.2
33685.5,14282.8
33676.2,14280.4
33667.1,14277.2
33658.3,14273
33650,14268.1
33642.3,14262.3
33635.1,14255.8
33628.6,14248.7
33622.9,14240.9
33617.9,14232.6
33613.8,14223.9
33610.5,14214.8
33608.2,14205.4
33606.8,14195.9
33606.3,14186.2
33606.3,13713.8
33606.8,13704.1
33608.2,13694.6
33610.5,13685.2
33613.8,13676.1
33617.9,13667.4
33622.9,13659.1
33628.6,13651.3
33635.1,13644.2
33642.3,13637.7
33650,13631.9
33658.3,13627
33667.1,13622.8
33676.2,13619.6
33685.5,13617.2
33695.1,13615.8
33704.7,13615.4
34295.3,13615.4
Z" /> 
</g>
<g >
</g>
<g style="fill:#000000; fill-opacity:1.0; 
stroke:#000000; stroke-width:0; stroke-opacity:1; 
stroke-linecap:round; stroke-linejoin:round;">
</g>
<g style="fill:#000000; fill-opacity:1.0; 
stroke:#000000; stroke-width:669.291; stroke-opacity:1; 
stroke-linecap:round; stroke-linejoin:round;">
</g>
<g style="fill:#000000; fill-opacity:0.0; 
stroke:#000000; stroke-width:669.291; stroke-opacity:1; 
stroke-linecap:round; stroke-linejoin:round;">
<path d="M34109 27184
L33990 27184
" />
</g>
<g style="fill:#000000; fill-opacity:0.0; 
stroke:#000000; stroke-width:0; stroke-opacity:1; 
stroke-linecap:round; stroke-linejoin:round;">
</g>
<g style="fill:#000000; fill-opacity:1.0; 
stroke:#000000; stroke-width:0; stroke-opacity:1; 
stroke-linecap:round; stroke-linejoin:round;">
<path style="fill:#000000; fill-opacity:1.0; 
stroke:#000000; stroke-width:0; stroke-opacity:1; 
stroke-linecap:round; stroke-linejoin:round;fill-rule:evenodd;"
d="M 34354.9,25865.8
34364.5,25867.2
34373.8,25869.6
34382.9,25872.8
34391.7,25877
34400,25881.9
34407.7,25887.7
34414.9,25894.2
34421.4,25901.3
34427.1,25909.1
34432.1,25917.4
34436.2,25926.1
34439.5,25935.2
34441.8,25944.6
34443.2,25954.1
34443.7,25963.8
34443.7,26436.2
34443.2,26445.9
34441.8,26455.4
34439.5,26464.8
34436.2,26473.9
34432.1,26482.6
34427.1,26490.9
34421.4,26498.7
34414.9,26505.8
34407.7,26512.3
34400,26518.1
34391.7,26523
34382.9,26527.2
34373.8,26530.4
34364.5,26532.8
34354.9,26534.2
34345.3,26534.6
33754.7,26534.6
33745.1,26534.2
33735.5,26532.8
33726.2,26530.4
33717.1,26527.2
33708.3,26523
33700,26518.1
33692.3,26512.3
33685.1,26505.8
33678.6,26498.7
33672.9,26490.9
33667.9,26482.6
33663.8,26473.9
33660.5,26464.8
33658.2,26455.4
33656.8,26445.9
33656.3,26436.2
33656.3,25963.8
33656.8,25954.1
33658.2,25944.6
33660.5,25935.2
33663.8,25926.1
33667.9,25917.4
33672.9,25909.1
33678.6,25901.3
33685.1,25894.2
33692.3,25887.7
33700,25881.9
33708.3,25877
33717.1,25872.8
33726.2,25869.6
33735.5,25867.2
33745.1,25865.8
33754.7,25865.4
34345.3,25865.4
Z" /> 
</g>
<g >
</g>
<g >
</g>
<g >
</g>
</g> 
</svg>
