<?xml version="1.0" standalone="no"?>
 <!DOCTYPE svg PUBLIC "-//W3C//DTD SVG 1.1//EN" 
 "http://www.w3.org/Graphics/SVG/1.1/DTD/svg11.dtd"> 
<svg
  xmlns:svg="http://www.w3.org/2000/svg"
  xmlns="http://www.w3.org/2000/svg"
  xmlns:xlink="http://www.w3.org/1999/xlink"
  version="1.1"
  width="13.200380cm" height="14.000480cm" viewBox="0 0 51970 55120">
<title>SVG Picture created as Sebessegmero-F_SilkS.svg date 2020/12/12 21:34:43 </title>
  <desc>Picture generated by PCBNEW </desc>
<g style="fill:#000000; fill-opacity:1;stroke:#000000; stroke-opacity:1;
stroke-linecap:round; stroke-linejoin:round;"
 transform="translate(0 0) scale(1 1)">
</g>
<g style="fill:#000000; fill-opacity:0.0; 
stroke:#000000; stroke-width:-0.000393701; stroke-opacity:1; 
stroke-linecap:round; stroke-linejoin:round;">
</g>
<g style="fill:#000000; fill-opacity:0.0; 
stroke:#000000; stroke-width:49.2126; stroke-opacity:1; 
stroke-linecap:round; stroke-linejoin:round;">
<g transform="rotate(270 30800 29500)">
<text x="30800" y="29657.5"
textLength="1036.65" font-size="419.947" lengthAdjust="spacingAndGlyphs"
text-anchor="middle" opacity="0">GND</text>
</g>
<path d="M30642 29739
L30627 29769
L30627 29814
L30642 29859
L30672 29889
L30702 29904
L30762 29919
L30807 29919
L30867 29904
L30897 29889
L30927 29859
L30942 29814
L30942 29784
L30927 29739
L30912 29724
L30807 29724
L30807 29784
" />
<path d="M30942 29589
L30627 29589
L30942 29410
L30627 29410
" />
<path d="M30942 29260
L30627 29260
L30627 29185
L30642 29140
L30672 29110
L30702 29095
L30762 29080
L30807 29080
L30867 29095
L30897 29110
L30927 29140
L30942 29185
L30942 29260
" />
<g transform="rotate(270 26150 29500)">
<text x="26150" y="29657.5"
textLength="933.868" font-size="419.947" lengthAdjust="spacingAndGlyphs"
text-anchor="middle" opacity="0">12V</text>
</g>
<path d="M26292 29694
L26292 29874
" />
<path d="M26292 29784
L25977 29784
L26022 29814
L26052 29844
L26067 29874
" />
<path d="M26007 29574
L25992 29559
L25977 29529
L25977 29455
L25992 29425
L26007 29410
L26037 29395
L26067 29395
L26112 29410
L26292 29589
L26292 29395
" />
<path d="M25977 29305
L26292 29200
L25977 29095
" />
<g transform="rotate(270 28750 14450)">
<text x="28750" y="14607.5"
textLength="828.881" font-size="419.947" lengthAdjust="spacingAndGlyphs"
text-anchor="middle" opacity="0">I2C</text>
</g>
<path d="M28892 14757
L28577 14757
" />
<path d="M28607 14622
L28592 14607
L28577 14577
L28577 14502
L28592 14472
L28607 14457
L28637 14442
L28667 14442
L28712 14457
L28892 14637
L28892 14442
" />
<path d="M28862 14127
L28877 14142
L28892 14187
L28892 14217
L28877 14262
L28847 14292
L28817 14307
L28757 14322
L28712 14322
L28652 14307
L28622 14292
L28592 14262
L28577 14217
L28577 14187
L28592 14142
L28607 14127
" />
<g transform="rotate(270 35400 26700)">
<text x="35400" y="26857.5"
textLength="1383.81" font-size="419.947" lengthAdjust="spacingAndGlyphs"
text-anchor="middle" opacity="0">AN_IN</text>
</g>
<path d="M35452 27299
L35452 27149
" />
<path d="M35542 27329
L35227 27224
L35542 27119
" />
<path d="M35542 27014
L35227 27014
L35542 26834
L35227 26834
" />
<path d="M35572 26759
L35572 26520
" />
<path d="M35542 26445
L35227 26445
" />
<path d="M35542 26295
L35227 26295
L35542 26115
L35227 26115
" />
<g transform="rotate(270 35500 14450)">
<text x="35500" y="14607.5"
textLength="1803.76" font-size="419.947" lengthAdjust="spacingAndGlyphs"
text-anchor="middle" opacity="0">AN_OUT</text>
</g>
<path d="M35552 15259
L35552 15109
" />
<path d="M35642 15289
L35327 15184
L35642 15079
" />
<path d="M35642 14974
L35327 14974
L35642 14794
L35327 14794
" />
<path d="M35672 14719
L35672 14479
" />
<path d="M35327 14345
L35327 14285
L35342 14255
L35372 14225
L35432 14210
L35537 14210
L35597 14225
L35627 14255
L35642 14285
L35642 14345
L35627 14375
L35597 14405
L35537 14420
L35432 14420
L35372 14405
L35342 14375
L35327 14345
" />
<path d="M35327 14075
L35582 14075
L35612 14060
L35627 14045
L35642 14015
L35642 13955
L35627 13925
L35612 13910
L35582 13895
L35327 13895
" />
<path d="M35327 13790
L35327 13610
" />
<path d="M35642 13700
L35327 13700
" />
<text x="32500" y="16457.5"
textLength="1353.81" font-size="419.947" lengthAdjust="spacingAndGlyphs"
text-anchor="middle" opacity="0">20mA</text>
<path d="M31915 16157
L31930 16142
L31960 16127
L32035 16127
L32065 16142
L32080 16157
L32095 16187
L32095 16217
L32080 16262
L31900 16442
L32095 16442
" />
<path d="M32290 16127
L32320 16127
L32350 16142
L32365 16157
L32380 16187
L32395 16247
L32395 16322
L32380 16382
L32365 16412
L32350 16427
L32320 16442
L32290 16442
L32260 16427
L32245 16412
L32230 16382
L32215 16322
L32215 16247
L32230 16187
L32245 16157
L32260 16142
L32290 16127
" />
<path d="M32529 16442
L32529 16232
" />
<path d="M32529 16262
L32544 16247
L32574 16232
L32619 16232
L32649 16247
L32664 16277
L32664 16442
" />
<path d="M32664 16277
L32679 16247
L32709 16232
L32754 16232
L32784 16247
L32799 16277
L32799 16442
" />
<path d="M32934 16352
L33084 16352
" />
<path d="M32904 16442
L33009 16127
L33114 16442
" />
<text x="32200" y="15907.5"
textLength="753.89" font-size="419.947" lengthAdjust="spacingAndGlyphs"
text-anchor="middle" opacity="0">4-</text>
<path d="M32065 15682
L32065 15892
" />
<path d="M31990 15562
L31915 15787
L32110 15787
" />
<path d="M32229 15772
L32469 15772
" />
<text x="32300" y="15107.5"
textLength="933.868" font-size="419.947" lengthAdjust="spacingAndGlyphs"
text-anchor="middle" opacity="0">3V3</text>
<path d="M31910 14777
L32105 14777
L32000 14897
L32045 14897
L32075 14912
L32090 14927
L32105 14957
L32105 15032
L32090 15062
L32075 15077
L32045 15092
L31955 15092
L31925 15077
L31910 15062
" />
<path d="M32195 14777
L32300 15092
L32404 14777
" />
<path d="M32479 14777
L32674 14777
L32569 14897
L32614 14897
L32644 14912
L32659 14927
L32674 14957
L32674 15032
L32659 15062
L32644 15077
L32614 15092
L32524 15092
L32494 15077
L32479 15062
" />
<text x="32150" y="14107.5"
textLength="633.905" font-size="419.947" lengthAdjust="spacingAndGlyphs"
text-anchor="middle" opacity="0">5V</text>
<path d="M32090 13777
L31940 13777
L31925 13927
L31940 13912
L31970 13897
L32045 13897
L32075 13912
L32090 13927
L32105 13957
L32105 14032
L32090 14062
L32075 14077
L32045 14092
L31970 14092
L31940 14077
L31925 14062
" />
<path d="M32194 13777
L32299 14092
L32404 13777
" />
<text x="32300" y="13107.5"
textLength="933.868" font-size="419.947" lengthAdjust="spacingAndGlyphs"
text-anchor="middle" opacity="0">10V</text>
<path d="M32105 13092
L31925 13092
" />
<path d="M32015 13092
L32015 12777
L31985 12822
L31955 12852
L31925 12867
" />
<path d="M32300 12777
L32329 12777
L32359 12792
L32374 12807
L32389 12837
L32404 12897
L32404 12972
L32389 13032
L32374 13062
L32359 13077
L32329 13092
L32300 13092
L32270 13077
L32255 13062
L32240 13032
L32225 12972
L32225 12897
L32240 12837
L32255 12807
L32270 12792
L32300 12777
" />
<path d="M32494 12777
L32599 13092
L32704 12777
" />
</g>
<g style="fill:#000000; fill-opacity:0.0; 
stroke:#000000; stroke-width:59.0551; stroke-opacity:1; 
stroke-linecap:round; stroke-linejoin:round;">
<text x="22050" y="13696.9"
textLength="2407.43" font-size="524.934" lengthAdjust="spacingAndGlyphs"
text-anchor="middle" opacity="0">FONP0O</text>
<path d="M21103 13471
L20972 13471
" />
<path d="M20972 13678
L20972 13284
L21159 13284
" />
<path d="M21384 13284
L21459 13284
L21496 13303
L21534 13340
L21553 13415
L21553 13546
L21534 13621
L21496 13659
L21459 13678
L21384 13678
L21346 13659
L21309 13621
L21290 13546
L21290 13415
L21309 13340
L21346 13303
L21384 13284
" />
<path d="M21721 13678
L21721 13284
L21946 13678
L21946 13284
" />
<path d="M22134 13678
L22134 13284
L22284 13284
L22321 13303
L22340 13321
L22359 13359
L22359 13415
L22340 13453
L22321 13471
L22284 13490
L22134 13490
" />
<path d="M22603 13284
L22640 13284
L22678 13303
L22696 13321
L22715 13359
L22734 13434
L22734 13528
L22715 13603
L22696 13640
L22678 13659
L22640 13678
L22603 13678
L22565 13659
L22546 13640
L22528 13603
L22509 13528
L22509 13434
L22528 13359
L22546 13321
L22565 13303
L22603 13284
" />
<path d="M22978 13284
L23052 13284
L23090 13303
L23127 13340
L23146 13415
L23146 13546
L23127 13621
L23090 13659
L23052 13678
L22978 13678
L22940 13659
L22903 13621
L22884 13546
L22884 13415
L22903 13340
L22940 13303
L22978 13284
" />
<text x="22000" y="12946.9"
textLength="2326.49" font-size="524.934" lengthAdjust="spacingAndGlyphs"
text-anchor="middle" opacity="0">BERPAX</text>
<path d="M21100 12721
L21156 12740
L21175 12759
L21193 12796
L21193 12853
L21175 12890
L21156 12909
L21118 12928
L20968 12928
L20968 12534
L21100 12534
L21137 12553
L21156 12571
L21175 12609
L21175 12646
L21156 12684
L21137 12703
L21100 12721
L20968 12721
" />
<path d="M21362 12721
L21493 12721
" />
<path d="M21550 12928
L21362 12928
L21362 12534
L21550 12534
" />
<path d="M21943 12928
L21812 12740
" />
<path d="M21718 12928
L21718 12534
L21868 12534
L21906 12553
L21925 12571
L21943 12609
L21943 12665
L21925 12703
L21906 12721
L21868 12740
L21718 12740
" />
<path d="M22112 12928
L22112 12534
L22262 12534
L22299 12553
L22318 12571
L22337 12609
L22337 12665
L22318 12703
L22299 12721
L22262 12740
L22112 12740
" />
<path d="M22487 12815
L22674 12815
" />
<path d="M22449 12928
L22581 12534
L22712 12928
" />
<path d="M22806 12534
L23068 12928
" />
<path d="M23068 12534
L22806 12928
" />
</g>
<g style="fill:#000000; fill-opacity:0.0; 
stroke:#000000; stroke-width:47.2441; stroke-opacity:1; 
stroke-linecap:round; stroke-linejoin:round;">
<path d="M31500 19253
L30141 19253
" />
<path d="M31500 19253
L32267 19253
" />
<path d="M31500 22746
L30732 22746
" />
<path d="M31500 22746
L32267 22746
" />
<path d="M25301 14948
L18198 14948
" />
<path d="M25301 32051
L25301 14948
" />
<path d="M18198 32051
L25301 32051
" />
<path d="M19250 31000
L18198 31000
" />
<path d="M19250 17000
L19250 31000
" />
<path d="M19250 17000
L18198 17000
" />
<path d="M24250 31000
L25301 31000
" />
<path d="M24250 16000
L24250 31000
" />
<path d="M24250 16000
L25301 16000
" />
<path d="M18198 14948
L18198 16000
" />
<path d="M18198 17000
L18198 32051
" />
<path d="M19250 16000
L18198 16000
" />
<path d="M19250 17000
L19250 16000
" />
<path d="M31241 26519
L31241 27080
" />
<path d="M31958 26519
L31958 27080
" />
<path d="M33455 18050
L33455 17849
" />
<path d="M33044 18050
L33044 17849
" />
<path d="M34655 18050
L34655 17849
" />
<path d="M34244 18050
L34244 17849
" />
<path d="M34600 19344
L34399 19344
" />
<path d="M34600 19755
L34399 19755
" />
<path d="M31650 17794
L31449 17794
" />
<path d="M31650 18205
L31449 18205
" />
<path d="M34399 20905
L34600 20905
" />
<path d="M34399 20494
L34600 20494
" />
<path d="M34399 24505
L34600 24505
" />
<path d="M34399 24094
L34600 24094
" />
<path d="M34399 23355
L34600 23355
" />
<path d="M34399 22944
L34600 22944
" />
<path d="M34399 22205
L34600 22205
" />
<path d="M34399 21794
L34600 21794
" />
<path d="M32574 23899
L32574 24100
" />
<path d="M32985 23899
L32985 24100
" />
<path d="M31885 24100
L31885 23899
" />
<path d="M31474 24100
L31474 23899
" />
<path d="M30324 23899
L30324 24100
" />
<path d="M30735 23899
L30735 24100
" />
<path d="M27600 17794
L27399 17794
" />
<path d="M27600 18205
L27399 18205
" />
<path d="M29600 17794
L29399 17794
" />
<path d="M29600 18205
L29399 18205
" />
<path d="M28800 24355
L28599 24355
" />
<path d="M28800 23944
L28599 23944
" />
<path d="M28599 23255
L28800 23255
" />
<path d="M28599 22844
L28800 22844
" />
<path d="M29145 19961
L29145 19760
" />
<path d="M28734 19961
L28734 19760
" />
<path d="M27349 21705
L27550 21705
" />
<path d="M27349 21294
L27550 21294
" />
<path d="M27339 20425
L27540 20425
" />
<path d="M27339 20014
L27540 20014
" />
<path d="M27540 18944
L27339 18944
" />
<path d="M27540 19355
L27339 19355
" />
<path d="M26894 23149
L26894 23350
" />
<path d="M27305 23149
L27305 23350
" />
<path d="M26894 25124
L26894 25325
" />
<path d="M27305 25124
L27305 25325
" />
<path d="M29094 25849
L29094 26050
" />
<path d="M29505 25849
L29505 26050
" />
<path d="M28582 12527
L28090 12527
" />
<path d="M28582 13020
L28582 12527
" />
<path d="M26417 16327
L26417 14634
" />
<path d="M27578 16327
L26417 16327
" />
<path d="M27578 16622
L27578 16327
" />
<path d="M26417 12941
L26417 14634
" />
<path d="M27578 12941
L26417 12941
" />
<path d="M27578 12646
L27578 12941
" />
<path d="M28464 16622
L28464 15913
" />
<path d="M28169 16622
L28464 16622
" />
<path d="M28169 15913
L28169 16622
" />
<path d="M28464 15913
L28169 15913
" />
<path d="M28464 13354
L28464 12646
" />
<path d="M28169 13354
L28464 13354
" />
<path d="M28169 12646
L28169 13354
" />
<path d="M28464 12646
L28169 12646
" />
<path d="M28464 15323
L28464 13945
" />
<path d="M28169 15323
L28464 15323
" />
<path d="M28169 13945
L28169 15323
" />
<path d="M28464 13945
L28169 13945
" />
<path d="M28468 16626
L28468 12642
" />
<path d="M26118 16626
L28468 16626
" />
<path d="M26118 12642
L26118 16626
" />
<path d="M28468 12642
L26118 12642
" />
<path d="M29726 12426
L30250 12426
" />
<path d="M29726 12950
L29726 12426
" />
<path d="M30750 12426
L31773 12426
" />
<path d="M30750 13450
L30750 12426
" />
<path d="M29726 13450
L30750 13450
" />
<path d="M31773 12426
L31773 16473
" />
<path d="M29726 13450
L29726 16473
" />
<path d="M29726 16473
L31773 16473
" />
<path d="M26397 31429
L26594 31429
" />
<path d="M26397 31137
L26397 31429
" />
<path d="M28985 29902
L28966 29920
" />
<path d="M29889 28998
L29875 29012
" />
<path d="M29061 29987
L29047 30001
" />
<path d="M29970 29079
L29951 29097
" />
<path d="M30476 27428
L30476 31334
" />
<path d="M26492 27428
L26492 31334
" />
<path d="M26492 31334
L30476 31334
" />
<path d="M26492 27428
L30476 27428
" />
<path d="M26492 28594
L30476 28594
" />
<path d="M26492 30523
L30476 30523
" />
<path d="M26492 31114
L30476 31114
" />
<circle cx="29468.5" cy="29500" r="661.417" /> 
<path d="M27230.7 30104.3 A661.614 661.614 0.0 0 0 27511.3 30161.5" />
<path d="M26895.7 29230.7 A661.614 661.614 0.0 0 0 26895.5 29768.9" />
<path d="M27769.3 28895.7 A661.614 661.614 0.0 0 0 27231.1 28895.5" />
<path d="M28104.3 29769.3 A661.614 661.614 0.0 0 0 28104.5 29231.1" />
<path d="M27500 30161.4 A661.417 661.417 0.0 0 0 27769 30104.2" />
<path d="M35332 12827
L34840 12827
" />
<path d="M35332 13320
L35332 12827
" />
<path d="M33167 15642
L33167 14442
" />
<path d="M34328 15642
L33167 15642
" />
<path d="M34328 15938
L34328 15642
" />
<path d="M33167 13241
L33167 14442
" />
<path d="M34328 13241
L33167 13241
" />
<path d="M34328 12946
L34328 13241
" />
<path d="M35214 15938
L35214 15229
" />
<path d="M34919 15938
L35214 15938
" />
<path d="M34919 15229
L34919 15938
" />
<path d="M35214 15229
L34919 15229
" />
<path d="M35214 13654
L35214 12946
" />
<path d="M34919 13654
L35214 13654
" />
<path d="M34919 12946
L34919 13654
" />
<path d="M35214 12946
L34919 12946
" />
<path d="M35214 14638
L35214 14245
" />
<path d="M34919 14638
L35214 14638
" />
<path d="M34919 14245
L34919 14638
" />
<path d="M35214 14245
L34919 14245
" />
<path d="M35218 15942
L35218 12942
" />
<path d="M32868 15942
L35218 15942
" />
<path d="M32868 12942
L32868 15942
" />
<path d="M35218 12942
L32868 12942
" />
<path d="M35232 25077
L34740 25077
" />
<path d="M35232 25570
L35232 25077
" />
<path d="M33067 27892
L33067 26692
" />
<path d="M34228 27892
L33067 27892
" />
<path d="M34228 28188
L34228 27892
" />
<path d="M33067 25491
L33067 26692
" />
<path d="M34228 25491
L33067 25491
" />
<path d="M34228 25196
L34228 25491
" />
<path d="M35114 28188
L35114 27479
" />
<path d="M34819 28188
L35114 28188
" />
<path d="M34819 27479
L34819 28188
" />
<path d="M35114 27479
L34819 27479
" />
<path d="M35114 25904
L35114 25196
" />
<path d="M34819 25904
L35114 25904
" />
<path d="M34819 25196
L34819 25904
" />
<path d="M35114 25196
L34819 25196
" />
<path d="M35114 26888
L35114 26495
" />
<path d="M34819 26888
L35114 26888
" />
<path d="M34819 26495
L34819 26888
" />
<path d="M35114 26495
L34819 26495
" />
<path d="M35118 28192
L35118 25192
" />
<path d="M32768 28192
L35118 28192
" />
<path d="M32768 25192
L32768 28192
" />
<path d="M35118 25192
L32768 25192
" />
</g>
<g style="fill:#000000; fill-opacity:0.0; 
stroke:#000000; stroke-width:59.0551; stroke-opacity:1; 
stroke-linecap:round; stroke-linejoin:round;">
<text x="31500" y="19118.1"
textLength="864.173" font-size="524.934" lengthAdjust="spacingAndGlyphs"
text-anchor="middle" opacity="0">U1</text>
<path d="M31200 18705
L31200 19024
L31218 19061
L31237 19080
L31275 19099
L31350 19099
L31387 19080
L31406 19061
L31425 19024
L31425 18705
" />
<path d="M31818 19099
L31593 19099
" />
<path d="M31706 19099
L31706 18705
L31668 18761
L31631 18799
L31593 18818
" />
<text x="21750" y="14696.9"
textLength="789.183" font-size="524.934" lengthAdjust="spacingAndGlyphs"
text-anchor="middle" opacity="0">A1</text>
<path d="M21468 14565
L21656 14565
" />
<path d="M21431 14678
L21562 14284
L21693 14678
" />
<path d="M22031 14678
L21806 14678
" />
<path d="M21918 14678
L21918 14284
L21881 14340
L21843 14378
L21806 14396
" />
<g transform="rotate(-90 30850 26800)">
<text x="30850" y="26996.9"
textLength="845.426" font-size="524.934" lengthAdjust="spacingAndGlyphs"
text-anchor="middle" opacity="0">C1</text>
</g>
<path d="M30990 26865
L31009 26884
L31028 26940
L31028 26978
L31009 27034
L30971 27071
L30934 27090
L30859 27109
L30803 27109
L30728 27090
L30690 27071
L30653 27034
L30634 26978
L30634 26940
L30653 26884
L30671 26865
" />
<path d="M31028 26490
L31028 26715
" />
<path d="M31028 26603
L30634 26603
L30690 26640
L30728 26678
L30746 26715
" />
<g transform="rotate(-90 32687 17950)">
<text x="32687" y="18146.9"
textLength="1220.38" font-size="524.934" lengthAdjust="spacingAndGlyphs"
text-anchor="middle" opacity="0">R22</text>
</g>
<path d="M32865 18203
L32677 18334
" />
<path d="M32865 18428
L32471 18428
L32471 18278
L32490 18240
L32508 18221
L32546 18203
L32602 18203
L32640 18221
L32658 18240
L32677 18278
L32677 18428
" />
<path d="M32508 18053
L32490 18034
L32471 17996
L32471 17903
L32490 17865
L32508 17846
L32546 17828
L32583 17828
L32640 17846
L32865 18071
L32865 17828
" />
<path d="M32508 17678
L32490 17659
L32471 17621
L32471 17528
L32490 17490
L32508 17471
L32546 17453
L32583 17453
L32640 17471
L32865 17696
L32865 17453
" />
<g transform="rotate(-90 33887 17950)">
<text x="33887" y="18146.9"
textLength="1220.38" font-size="524.934" lengthAdjust="spacingAndGlyphs"
text-anchor="middle" opacity="0">R21</text>
</g>
<path d="M34065 18203
L33877 18334
" />
<path d="M34065 18428
L33671 18428
L33671 18278
L33690 18240
L33708 18221
L33746 18203
L33802 18203
L33840 18221
L33858 18240
L33877 18278
L33877 18428
" />
<path d="M33708 18053
L33690 18034
L33671 17996
L33671 17903
L33690 17865
L33708 17846
L33746 17828
L33783 17828
L33840 17846
L34065 18071
L34065 17828
" />
<path d="M34065 17453
L34065 17678
" />
<path d="M34065 17565
L33671 17565
L33727 17603
L33765 17640
L33783 17678
" />
<text x="34500" y="19196.9"
textLength="1220.38" font-size="524.934" lengthAdjust="spacingAndGlyphs"
text-anchor="middle" opacity="0">R20</text>
<path d="M34246 19178
L34115 18990
" />
<path d="M34021 19178
L34021 18784
L34171 18784
L34209 18803
L34228 18821
L34246 18859
L34246 18915
L34228 18953
L34209 18971
L34171 18990
L34021 18990
" />
<path d="M34396 18821
L34415 18803
L34453 18784
L34546 18784
L34584 18803
L34603 18821
L34621 18859
L34621 18896
L34603 18953
L34378 19178
L34621 19178
" />
<path d="M34865 18784
L34903 18784
L34940 18803
L34959 18821
L34978 18859
L34996 18934
L34996 19028
L34978 19103
L34959 19140
L34940 19159
L34903 19178
L34865 19178
L34828 19159
L34809 19140
L34790 19103
L34771 19028
L34771 18934
L34790 18859
L34809 18821
L34828 18803
L34865 18784
" />
<text x="31550" y="17696.9"
textLength="1220.38" font-size="524.934" lengthAdjust="spacingAndGlyphs"
text-anchor="middle" opacity="0">R19</text>
<path d="M31296 17678
L31165 17490
" />
<path d="M31071 17678
L31071 17284
L31221 17284
L31259 17303
L31278 17321
L31296 17359
L31296 17415
L31278 17453
L31259 17471
L31221 17490
L31071 17490
" />
<path d="M31671 17678
L31446 17678
" />
<path d="M31559 17678
L31559 17284
L31521 17340
L31484 17378
L31446 17396
" />
<path d="M31859 17678
L31934 17678
L31971 17659
L31990 17640
L32028 17584
L32046 17509
L32046 17359
L32028 17321
L32009 17303
L31971 17284
L31896 17284
L31859 17303
L31840 17321
L31821 17359
L31821 17453
L31840 17490
L31859 17509
L31896 17528
L31971 17528
L32009 17509
L32028 17490
L32046 17453
" />
<text x="34500" y="20333.9"
textLength="1220.38" font-size="524.934" lengthAdjust="spacingAndGlyphs"
text-anchor="middle" opacity="0">R18</text>
<path d="M34246 20315
L34115 20127
" />
<path d="M34021 20315
L34021 19921
L34171 19921
L34209 19940
L34228 19958
L34246 19996
L34246 20052
L34228 20090
L34209 20108
L34171 20127
L34021 20127
" />
<path d="M34621 20315
L34396 20315
" />
<path d="M34509 20315
L34509 19921
L34471 19977
L34434 20015
L34396 20033
" />
<path d="M34846 20090
L34809 20071
L34790 20052
L34771 20015
L34771 19996
L34790 19958
L34809 19940
L34846 19921
L34921 19921
L34959 19940
L34978 19958
L34996 19996
L34996 20015
L34978 20052
L34959 20071
L34921 20090
L34846 20090
L34809 20108
L34790 20127
L34771 20165
L34771 20240
L34790 20277
L34809 20296
L34846 20315
L34921 20315
L34959 20296
L34978 20277
L34996 20240
L34996 20165
L34978 20127
L34959 20108
L34921 20090
" />
<text x="34500" y="23933.9"
textLength="1220.38" font-size="524.934" lengthAdjust="spacingAndGlyphs"
text-anchor="middle" opacity="0">R17</text>
<path d="M34246 23915
L34115 23727
" />
<path d="M34021 23915
L34021 23521
L34171 23521
L34209 23540
L34228 23558
L34246 23596
L34246 23652
L34228 23690
L34209 23708
L34171 23727
L34021 23727
" />
<path d="M34621 23915
L34396 23915
" />
<path d="M34509 23915
L34509 23521
L34471 23577
L34434 23615
L34396 23633
" />
<path d="M34753 23521
L35015 23521
L34846 23915
" />
<text x="34500" y="22783.9"
textLength="1220.38" font-size="524.934" lengthAdjust="spacingAndGlyphs"
text-anchor="middle" opacity="0">R16</text>
<path d="M34246 22765
L34115 22577
" />
<path d="M34021 22765
L34021 22371
L34171 22371
L34209 22390
L34228 22408
L34246 22446
L34246 22502
L34228 22540
L34209 22558
L34171 22577
L34021 22577
" />
<path d="M34621 22765
L34396 22765
" />
<path d="M34509 22765
L34509 22371
L34471 22427
L34434 22465
L34396 22483
" />
<path d="M34959 22371
L34884 22371
L34846 22390
L34828 22408
L34790 22465
L34771 22540
L34771 22690
L34790 22727
L34809 22746
L34846 22765
L34921 22765
L34959 22746
L34978 22727
L34996 22690
L34996 22596
L34978 22558
L34959 22540
L34921 22521
L34846 22521
L34809 22540
L34790 22558
L34771 22596
" />
<text x="34500" y="21633.9"
textLength="1220.38" font-size="524.934" lengthAdjust="spacingAndGlyphs"
text-anchor="middle" opacity="0">R15</text>
<path d="M34246 21615
L34115 21427
" />
<path d="M34021 21615
L34021 21221
L34171 21221
L34209 21240
L34228 21258
L34246 21296
L34246 21352
L34228 21390
L34209 21408
L34171 21427
L34021 21427
" />
<path d="M34621 21615
L34396 21615
" />
<path d="M34509 21615
L34509 21221
L34471 21277
L34434 21315
L34396 21333
" />
<path d="M34978 21221
L34790 21221
L34771 21408
L34790 21390
L34828 21371
L34921 21371
L34959 21390
L34978 21408
L34996 21446
L34996 21540
L34978 21577
L34959 21596
L34921 21615
L34828 21615
L34790 21596
L34771 21577
" />
<g transform="rotate(-90 32250 24000)">
<text x="32250" y="24196.9"
textLength="1220.38" font-size="524.934" lengthAdjust="spacingAndGlyphs"
text-anchor="middle" opacity="0">R14</text>
</g>
<path d="M32428 24253
L32240 24384
" />
<path d="M32428 24478
L32034 24478
L32034 24328
L32053 24290
L32071 24271
L32109 24253
L32165 24253
L32203 24271
L32221 24290
L32240 24328
L32240 24478
" />
<path d="M32428 23878
L32428 24103
" />
<path d="M32428 23990
L32034 23990
L32090 24028
L32128 24065
L32146 24103
" />
<path d="M32165 23540
L32428 23540
" />
<path d="M32015 23634
L32296 23728
L32296 23484
" />
<g transform="rotate(-90 31117 24000)">
<text x="31117" y="24196.9"
textLength="1220.38" font-size="524.934" lengthAdjust="spacingAndGlyphs"
text-anchor="middle" opacity="0">R13</text>
</g>
<path d="M31295 24253
L31107 24384
" />
<path d="M31295 24478
L30901 24478
L30901 24328
L30920 24290
L30938 24271
L30976 24253
L31032 24253
L31070 24271
L31088 24290
L31107 24328
L31107 24478
" />
<path d="M31295 23878
L31295 24103
" />
<path d="M31295 23990
L30901 23990
L30957 24028
L30995 24065
L31013 24103
" />
<path d="M30901 23746
L30901 23503
L31051 23634
L31051 23578
L31070 23540
L31088 23521
L31126 23503
L31220 23503
L31257 23521
L31276 23540
L31295 23578
L31295 23690
L31276 23728
L31257 23746
" />
<g transform="rotate(-90 29950 23950)">
<text x="29950" y="24146.9"
textLength="1220.38" font-size="524.934" lengthAdjust="spacingAndGlyphs"
text-anchor="middle" opacity="0">R12</text>
</g>
<path d="M30128 24203
L29940 24334
" />
<path d="M30128 24428
L29734 24428
L29734 24278
L29753 24240
L29771 24221
L29809 24203
L29865 24203
L29903 24221
L29921 24240
L29940 24278
L29940 24428
" />
<path d="M30128 23828
L30128 24053
" />
<path d="M30128 23940
L29734 23940
L29790 23978
L29828 24015
L29846 24053
" />
<path d="M29771 23678
L29753 23659
L29734 23621
L29734 23528
L29753 23490
L29771 23471
L29809 23453
L29846 23453
L29903 23471
L30128 23696
L30128 23453
" />
<text x="27500" y="17646.9"
textLength="1220.38" font-size="524.934" lengthAdjust="spacingAndGlyphs"
text-anchor="middle" opacity="0">R11</text>
<path d="M27246 17628
L27115 17440
" />
<path d="M27021 17628
L27021 17234
L27171 17234
L27209 17253
L27228 17271
L27246 17309
L27246 17365
L27228 17403
L27209 17421
L27171 17440
L27021 17440
" />
<path d="M27621 17628
L27396 17628
" />
<path d="M27509 17628
L27509 17234
L27471 17290
L27434 17328
L27396 17346
" />
<path d="M27996 17628
L27771 17628
" />
<path d="M27884 17628
L27884 17234
L27846 17290
L27809 17328
L27771 17346
" />
<text x="29500" y="17696.9"
textLength="1220.38" font-size="524.934" lengthAdjust="spacingAndGlyphs"
text-anchor="middle" opacity="0">R10</text>
<path d="M29246 17678
L29115 17490
" />
<path d="M29021 17678
L29021 17284
L29171 17284
L29209 17303
L29228 17321
L29246 17359
L29246 17415
L29228 17453
L29209 17471
L29171 17490
L29021 17490
" />
<path d="M29621 17678
L29396 17678
" />
<path d="M29509 17678
L29509 17284
L29471 17340
L29434 17378
L29396 17396
" />
<path d="M29865 17284
L29903 17284
L29940 17303
L29959 17321
L29978 17359
L29996 17434
L29996 17528
L29978 17603
L29959 17640
L29940 17659
L29903 17678
L29865 17678
L29828 17659
L29809 17640
L29790 17603
L29771 17528
L29771 17434
L29790 17359
L29809 17321
L29828 17303
L29865 17284
" />
<text x="28700" y="23796.9"
textLength="845.426" font-size="524.934" lengthAdjust="spacingAndGlyphs"
text-anchor="middle" opacity="0">R9</text>
<path d="M28634 23778
L28503 23590
" />
<path d="M28409 23778
L28409 23384
L28559 23384
L28596 23403
L28615 23421
L28634 23459
L28634 23515
L28615 23553
L28596 23571
L28559 23590
L28409 23590
" />
<path d="M28821 23778
L28896 23778
L28934 23759
L28953 23740
L28990 23684
L29009 23609
L29009 23459
L28990 23421
L28971 23403
L28934 23384
L28859 23384
L28821 23403
L28803 23421
L28784 23459
L28784 23553
L28803 23590
L28821 23609
L28859 23628
L28934 23628
L28971 23609
L28990 23590
L29009 23553
" />
<text x="28700" y="22696.9"
textLength="845.426" font-size="524.934" lengthAdjust="spacingAndGlyphs"
text-anchor="middle" opacity="0">R8</text>
<path d="M28634 22678
L28503 22490
" />
<path d="M28409 22678
L28409 22284
L28559 22284
L28596 22303
L28615 22321
L28634 22359
L28634 22415
L28615 22453
L28596 22471
L28559 22490
L28409 22490
" />
<path d="M28859 22453
L28821 22434
L28803 22415
L28784 22378
L28784 22359
L28803 22321
L28821 22303
L28859 22284
L28934 22284
L28971 22303
L28990 22321
L29009 22359
L29009 22378
L28990 22415
L28971 22434
L28934 22453
L28859 22453
L28821 22471
L28803 22490
L28784 22528
L28784 22603
L28803 22640
L28821 22659
L28859 22678
L28934 22678
L28971 22659
L28990 22640
L29009 22603
L29009 22528
L28990 22490
L28971 22471
L28934 22453
" />
<g transform="rotate(-90 28377 19860.7)">
<text x="28377" y="20057.6"
textLength="845.426" font-size="524.934" lengthAdjust="spacingAndGlyphs"
text-anchor="middle" opacity="0">R7</text>
</g>
<path d="M28555 19926
L28367 20057
" />
<path d="M28555 20151
L28161 20151
L28161 20001
L28180 19963
L28198 19945
L28236 19926
L28292 19926
L28330 19945
L28348 19963
L28367 20001
L28367 20151
" />
<path d="M28161 19795
L28161 19532
L28555 19701
" />
<text x="27450" y="21133.9"
textLength="845.426" font-size="524.934" lengthAdjust="spacingAndGlyphs"
text-anchor="middle" opacity="0">R6</text>
<path d="M27384 21115
L27253 20927
" />
<path d="M27159 21115
L27159 20721
L27309 20721
L27346 20740
L27365 20758
L27384 20796
L27384 20852
L27365 20890
L27346 20908
L27309 20927
L27159 20927
" />
<path d="M27721 20721
L27646 20721
L27609 20740
L27590 20758
L27553 20815
L27534 20890
L27534 21040
L27553 21077
L27571 21096
L27609 21115
L27684 21115
L27721 21096
L27740 21077
L27759 21040
L27759 20946
L27740 20908
L27721 20890
L27684 20871
L27609 20871
L27571 20890
L27553 20908
L27534 20946
" />
<text x="27440" y="19896.9"
textLength="845.426" font-size="524.934" lengthAdjust="spacingAndGlyphs"
text-anchor="middle" opacity="0">R5</text>
<path d="M27374 19878
L27243 19690
" />
<path d="M27149 19878
L27149 19484
L27299 19484
L27336 19503
L27355 19521
L27374 19559
L27374 19615
L27355 19653
L27336 19671
L27299 19690
L27149 19690
" />
<path d="M27730 19484
L27543 19484
L27524 19671
L27543 19653
L27580 19634
L27674 19634
L27711 19653
L27730 19671
L27749 19709
L27749 19803
L27730 19840
L27711 19859
L27674 19878
L27580 19878
L27543 19859
L27524 19840
" />
<text x="27400" y="18776.9"
textLength="845.426" font-size="524.934" lengthAdjust="spacingAndGlyphs"
text-anchor="middle" opacity="0">R4</text>
<path d="M27334 18758
L27203 18570
" />
<path d="M27109 18758
L27109 18364
L27259 18364
L27296 18383
L27315 18401
L27334 18439
L27334 18495
L27315 18533
L27296 18551
L27259 18570
L27109 18570
" />
<path d="M27671 18495
L27671 18758
" />
<path d="M27578 18345
L27484 18626
L27728 18626
" />
<g transform="rotate(-90 26550 23250)">
<text x="26550" y="23446.9"
textLength="845.426" font-size="524.934" lengthAdjust="spacingAndGlyphs"
text-anchor="middle" opacity="0">R3</text>
</g>
<path d="M26728 23315
L26540 23446
" />
<path d="M26728 23540
L26334 23540
L26334 23390
L26353 23353
L26371 23334
L26409 23315
L26465 23315
L26503 23334
L26521 23353
L26540 23390
L26540 23540
" />
<path d="M26334 23184
L26334 22940
L26484 23071
L26484 23015
L26503 22978
L26521 22959
L26559 22940
L26653 22940
L26690 22959
L26709 22978
L26728 23015
L26728 23128
L26709 23165
L26690 23184
" />
<g transform="rotate(-90 26550 25225)">
<text x="26550" y="25421.9"
textLength="845.426" font-size="524.934" lengthAdjust="spacingAndGlyphs"
text-anchor="middle" opacity="0">R2</text>
</g>
<path d="M26728 25290
L26540 25421
" />
<path d="M26728 25515
L26334 25515
L26334 25365
L26353 25328
L26371 25309
L26409 25290
L26465 25290
L26503 25309
L26521 25328
L26540 25365
L26540 25515
" />
<path d="M26371 25140
L26353 25121
L26334 25084
L26334 24990
L26353 24953
L26371 24934
L26409 24915
L26446 24915
L26503 24934
L26728 25159
L26728 24915
" />
<g transform="rotate(-90 29863 25950)">
<text x="29863" y="26146.9"
textLength="845.426" font-size="524.934" lengthAdjust="spacingAndGlyphs"
text-anchor="middle" opacity="0">R1</text>
</g>
<path d="M30041 26015
L29853 26146
" />
<path d="M30041 26240
L29647 26240
L29647 26090
L29666 26053
L29684 26034
L29722 26015
L29778 26015
L29816 26034
L29834 26053
L29853 26090
L29853 26240
" />
<path d="M30041 25640
L30041 25865
" />
<path d="M30041 25753
L29647 25753
L29703 25790
L29741 25828
L29759 25865
" />
<g transform="rotate(-90 25650 14600)">
<text x="25650" y="14796.9"
textLength="751.687" font-size="524.934" lengthAdjust="spacingAndGlyphs"
text-anchor="middle" opacity="0">J5</text>
</g>
<path d="M25434 14731
L25715 14731
L25771 14749
L25809 14787
L25828 14843
L25828 14881
" />
<path d="M25434 14356
L25434 14543
L25621 14562
L25603 14543
L25584 14506
L25584 14412
L25603 14375
L25621 14356
L25659 14337
L25753 14337
L25790 14356
L25809 14375
L25828 14412
L25828 14506
L25809 14543
L25790 14562
" />
<g transform="rotate(-90 29300 14450)">
<text x="29300" y="14646.9"
textLength="751.687" font-size="524.934" lengthAdjust="spacingAndGlyphs"
text-anchor="middle" opacity="0">J4</text>
</g>
<path d="M29084 14581
L29365 14581
L29421 14599
L29459 14637
L29478 14693
L29478 14731
" />
<path d="M29215 14225
L29478 14225
" />
<path d="M29065 14318
L29346 14412
L29346 14168
" />
<text x="28484.3" y="27232.3"
textLength="751.687" font-size="524.934" lengthAdjust="spacingAndGlyphs"
text-anchor="middle" opacity="0">J3</text>
<path d="M28353 26819
L28353 27101
L28334 27157
L28296 27194
L28240 27213
L28203 27213
" />
<path d="M28502 26819
L28746 26819
L28615 26969
L28671 26969
L28709 26988
L28727 27007
L28746 27044
L28746 27138
L28727 27176
L28709 27194
L28671 27213
L28559 27213
L28521 27194
L28502 27176
" />
<text x="34250" y="12796.9"
textLength="751.687" font-size="524.934" lengthAdjust="spacingAndGlyphs"
text-anchor="middle" opacity="0">J2</text>
<path d="M34118 12384
L34118 12665
L34100 12721
L34062 12759
L34006 12778
L33968 12778
" />
<path d="M34287 12421
L34306 12403
L34343 12384
L34437 12384
L34474 12403
L34493 12421
L34512 12459
L34512 12496
L34493 12553
L34268 12778
L34512 12778
" />
<g transform="rotate(-90 32400 26692.1)">
<text x="32400" y="26889"
textLength="751.687" font-size="524.934" lengthAdjust="spacingAndGlyphs"
text-anchor="middle" opacity="0">J1</text>
</g>
<path d="M32184 26823
L32465 26823
L32521 26842
L32559 26879
L32578 26935
L32578 26973
" />
<path d="M32578 26429
L32578 26654
" />
<path d="M32578 26542
L32184 26542
L32240 26579
L32278 26617
L32296 26654
" />
<g >
</g>
</g> 
</svg>
