<?xml version="1.0" standalone="no"?>
 <!DOCTYPE svg PUBLIC "-//W3C//DTD SVG 1.1//EN" 
 "http://www.w3.org/Graphics/SVG/1.1/DTD/svg11.dtd"> 
<svg
  xmlns:svg="http://www.w3.org/2000/svg"
  xmlns="http://www.w3.org/2000/svg"
  xmlns:xlink="http://www.w3.org/1999/xlink"
  version="1.1"
  width="13.200380cm" height="14.000480cm" viewBox="0 0 51970 55120">
<title>SVG Picture created as Sebessegmero-B_Mask.svg date 2020/12/12 21:34:43 </title>
  <desc>Picture generated by PCBNEW </desc>
<g style="fill:#000000; fill-opacity:1;stroke:#000000; stroke-opacity:1;
stroke-linecap:round; stroke-linejoin:round;"
 transform="translate(0 0) scale(1 1)">
</g>
<g style="fill:#000000; fill-opacity:0.0; 
stroke:#000000; stroke-width:-0.000393701; stroke-opacity:1; 
stroke-linecap:round; stroke-linejoin:round;">
<g >
</g>
<g >
</g>
<g style="fill:#000000; fill-opacity:0.0; 
stroke:#000000; stroke-width:-0.000393701; stroke-opacity:1; 
stroke-linecap:round; stroke-linejoin:round;">
</g>
<g style="fill:#000000; fill-opacity:1.0; 
stroke:#000000; stroke-width:0; stroke-opacity:1; 
stroke-linecap:round; stroke-linejoin:round;">
<circle cx="21000" cy="30500" r="629.921" /> 
</g>
<g style="fill:#000000; fill-opacity:1.0; 
stroke:#000000; stroke-width:39.3701; stroke-opacity:1; 
stroke-linecap:round; stroke-linejoin:round;">
</g>
<g >
</g>
<g style="fill:#000000; fill-opacity:1.0; 
stroke:#000000; stroke-width:39.3701; stroke-opacity:1; 
stroke-linecap:round; stroke-linejoin:round;">
</g>
<g style="fill:#000000; fill-opacity:1.0; 
stroke:#000000; stroke-width:0; stroke-opacity:1; 
stroke-linecap:round; stroke-linejoin:round;">
<circle cx="19000" cy="13500" r="629.921" /> 
</g>
<g style="fill:#000000; fill-opacity:1.0; 
stroke:#000000; stroke-width:39.3701; stroke-opacity:1; 
stroke-linecap:round; stroke-linejoin:round;">
</g>
<g >
</g>
<g style="fill:#000000; fill-opacity:1.0; 
stroke:#000000; stroke-width:39.3701; stroke-opacity:1; 
stroke-linecap:round; stroke-linejoin:round;">
</g>
<g style="fill:#000000; fill-opacity:1.0; 
stroke:#000000; stroke-width:0; stroke-opacity:1; 
stroke-linecap:round; stroke-linejoin:round;">
<circle cx="34500" cy="30500" r="629.921" /> 
</g>
<g style="fill:#000000; fill-opacity:1.0; 
stroke:#000000; stroke-width:39.3701; stroke-opacity:1; 
stroke-linecap:round; stroke-linejoin:round;">
</g>
<g >
</g>
<g style="fill:#000000; fill-opacity:1.0; 
stroke:#000000; stroke-width:39.3701; stroke-opacity:1; 
stroke-linecap:round; stroke-linejoin:round;">
</g>
<g style="fill:#000000; fill-opacity:1.0; 
stroke:#000000; stroke-width:0; stroke-opacity:1; 
stroke-linecap:round; stroke-linejoin:round;">
<circle cx="24750" cy="30500" r="314.961" /> 
<circle cx="18750" cy="30500" r="314.961" /> 
<circle cx="24750" cy="16500" r="314.961" /> 
<circle cx="18750" cy="29500" r="314.961" /> 
<circle cx="24750" cy="17500" r="314.961" /> 
<circle cx="18750" cy="28500" r="314.961" /> 
<circle cx="24750" cy="18500" r="314.961" /> 
<circle cx="18750" cy="27500" r="314.961" /> 
<circle cx="24750" cy="19500" r="314.961" /> 
<circle cx="18750" cy="26500" r="314.961" /> 
<circle cx="24750" cy="20500" r="314.961" /> 
<circle cx="18750" cy="25500" r="314.961" /> 
<circle cx="24750" cy="21500" r="314.961" /> 
<circle cx="18750" cy="24500" r="314.961" /> 
<circle cx="24750" cy="22500" r="314.961" /> 
<circle cx="18750" cy="23500" r="314.961" /> 
<circle cx="24750" cy="23500" r="314.961" /> 
<circle cx="18750" cy="22500" r="314.961" /> 
<circle cx="24750" cy="24500" r="314.961" /> 
<circle cx="18750" cy="21500" r="314.961" /> 
<circle cx="24750" cy="25500" r="314.961" /> 
<circle cx="18750" cy="20500" r="314.961" /> 
<circle cx="24750" cy="26500" r="314.961" /> 
<circle cx="18750" cy="19500" r="314.961" /> 
<circle cx="24750" cy="27500" r="314.961" /> 
<circle cx="18750" cy="18500" r="314.961" /> 
<circle cx="24750" cy="28500" r="314.961" /> 
<circle cx="18750" cy="17500" r="314.961" /> 
<circle cx="24750" cy="29500" r="314.961" /> 
<path style="fill:#000000; fill-opacity:1.0; 
stroke:#000000; stroke-width:0; stroke-opacity:1; 
stroke-linecap:round; stroke-linejoin:round;fill-rule:evenodd;"
d="M 18435,16815
18435,16185
19065,16185
19065,16815
Z" /> 
</g>
<g >
</g>
<g >
</g>
<g >
</g>
<g >
</g>
<g >
</g>
<g >
</g>
<g >
</g>
<g >
</g>
<g >
</g>
<g >
</g>
<g >
</g>
<g >
</g>
<g >
</g>
<g >
</g>
<g >
</g>
<g >
</g>
<g >
</g>
<g >
</g>
<g >
</g>
<g >
</g>
<g >
</g>
<g >
</g>
<g >
</g>
<g >
</g>
<g style="fill:#000000; fill-opacity:1.0; 
stroke:#000000; stroke-width:0; stroke-opacity:1; 
stroke-linecap:round; stroke-linejoin:round;">
</g>
<g style="fill:#000000; fill-opacity:1.0; 
stroke:#000000; stroke-width:669.291; stroke-opacity:1; 
stroke-linecap:round; stroke-linejoin:round;">
</g>
<g style="fill:#000000; fill-opacity:0.0; 
stroke:#000000; stroke-width:669.291; stroke-opacity:1; 
stroke-linecap:round; stroke-linejoin:round;">
<path d="M27549 15618
L27450 15618
" />
<path d="M27549 14634
L27450 14634
" />
</g>
<g style="fill:#000000; fill-opacity:0.0; 
stroke:#000000; stroke-width:0; stroke-opacity:1; 
stroke-linecap:round; stroke-linejoin:round;">
</g>
<g style="fill:#000000; fill-opacity:1.0; 
stroke:#000000; stroke-width:0; stroke-opacity:1; 
stroke-linecap:round; stroke-linejoin:round;">
<path style="fill:#000000; fill-opacity:1.0; 
stroke:#000000; stroke-width:0; stroke-opacity:1; 
stroke-linecap:round; stroke-linejoin:round;fill-rule:evenodd;"
d="M 27795.1,13315.8
27804.6,13317.2
27814,13319.6
27823.1,13322.8
27831.8,13327
27840.1,13331.9
27847.9,13337.7
27855,13344.2
27861.5,13351.3
27867.3,13359.1
27872.2,13367.4
27876.4,13376.1
27879.6,13385.2
27882,13394.6
27883.4,13404.1
27883.9,13413.8
27883.9,13886.2
27883.4,13895.9
27882,13905.4
27879.6,13914.8
27876.4,13923.9
27872.2,13932.6
27867.3,13940.9
27861.5,13948.7
27855,13955.8
27847.9,13962.3
27840.1,13968.1
27831.8,13973
27823.1,13977.2
27814,13980.4
27804.6,13982.8
27795.1,13984.2
27785.4,13984.6
27214.6,13984.6
27204.9,13984.2
27195.4,13982.8
27186,13980.4
27176.9,13977.2
27168.2,13973
27159.9,13968.1
27152.1,13962.3
27145,13955.8
27138.5,13948.7
27132.7,13940.9
27127.8,13932.6
27123.6,13923.9
27120.4,13914.8
27118,13905.4
27116.6,13895.9
27116.1,13886.2
27116.1,13413.8
27116.6,13404.1
27118,13394.6
27120.4,13385.2
27123.6,13376.1
27127.8,13367.4
27132.7,13359.1
27138.5,13351.3
27145,13344.2
27152.1,13337.7
27159.9,13331.9
27168.2,13327
27176.9,13322.8
27186,13319.6
27195.4,13317.2
27204.9,13315.8
27214.6,13315.4
27785.4,13315.4
Z" /> 
</g>
<g >
</g>
<g style="fill:#000000; fill-opacity:1.0; 
stroke:#000000; stroke-width:0; stroke-opacity:1; 
stroke-linecap:round; stroke-linejoin:round;">
<circle cx="31250" cy="15950" r="334.646" /> 
<circle cx="30250" cy="15950" r="334.646" /> 
<circle cx="31250" cy="14950" r="334.646" /> 
<circle cx="30250" cy="14950" r="334.646" /> 
<circle cx="31250" cy="13950" r="334.646" /> 
<circle cx="30250" cy="13950" r="334.646" /> 
<circle cx="31250" cy="12950" r="334.646" /> 
<path style="fill:#000000; fill-opacity:1.0; 
stroke:#000000; stroke-width:0; stroke-opacity:1; 
stroke-linecap:round; stroke-linejoin:round;fill-rule:evenodd;"
d="M 29915.4,13284.6
29915.4,12615.4
30584.6,12615.4
30584.6,13284.6
Z" /> 
</g>
<g >
</g>
<g style="fill:#000000; fill-opacity:1.0; 
stroke:#000000; stroke-width:0; stroke-opacity:1; 
stroke-linecap:round; stroke-linejoin:round;">
<circle cx="29468.5" cy="29500" r="511.811" /> 
</g>
<g style="fill:#000000; fill-opacity:1.0; 
stroke:#000000; stroke-width:39.3701; stroke-opacity:1; 
stroke-linecap:round; stroke-linejoin:round;">
</g>
<g style="fill:#000000; fill-opacity:1.0; 
stroke:#000000; stroke-width:0; stroke-opacity:1; 
stroke-linecap:round; stroke-linejoin:round;">
<path style="fill:#000000; fill-opacity:1.0; 
stroke:#000000; stroke-width:0; stroke-opacity:1; 
stroke-linecap:round; stroke-linejoin:round;fill-rule:evenodd;"
d="M 26988.2,30011.8
26988.2,28988.2
28011.8,28988.2
28011.8,30011.8
Z" /> 
</g>
<g >
</g>
<g style="fill:#000000; fill-opacity:1.0; 
stroke:#000000; stroke-width:0; stroke-opacity:1; 
stroke-linecap:round; stroke-linejoin:round;">
</g>
<g style="fill:#000000; fill-opacity:1.0; 
stroke:#000000; stroke-width:669.291; stroke-opacity:1; 
stroke-linecap:round; stroke-linejoin:round;">
</g>
<g style="fill:#000000; fill-opacity:0.0; 
stroke:#000000; stroke-width:669.291; stroke-opacity:1; 
stroke-linecap:round; stroke-linejoin:round;">
<path d="M34309 14934
L34190 14934
" />
</g>
<g style="fill:#000000; fill-opacity:0.0; 
stroke:#000000; stroke-width:0; stroke-opacity:1; 
stroke-linecap:round; stroke-linejoin:round;">
</g>
<g style="fill:#000000; fill-opacity:1.0; 
stroke:#000000; stroke-width:0; stroke-opacity:1; 
stroke-linecap:round; stroke-linejoin:round;">
<path style="fill:#000000; fill-opacity:1.0; 
stroke:#000000; stroke-width:0; stroke-opacity:1; 
stroke-linecap:round; stroke-linejoin:round;fill-rule:evenodd;"
d="M 34554.9,13615.8
34564.5,13617.2
34573.8,13619.6
34582.9,13622.8
34591.7,13627
34600,13631.9
34607.7,13637.7
34614.9,13644.2
34621.4,13651.3
34627.1,13659.1
34632.1,13667.4
34636.2,13676.1
34639.5,13685.2
34641.8,13694.6
34643.2,13704.1
34643.7,13713.8
34643.7,14186.2
34643.2,14195.9
34641.8,14205.4
34639.5,14214.8
34636.2,14223.9
34632.1,14232.6
34627.1,14240.9
34621.4,14248.7
34614.9,14255.8
34607.7,14262.3
34600,14268.1
34591.7,14273
34582.9,14277.2
34573.8,14280.4
34564.5,14282.8
34554.9,14284.2
34545.3,14284.6
33954.7,14284.6
33945.1,14284.2
33935.5,14282.8
33926.2,14280.4
33917.1,14277.2
33908.3,14273
33900,14268.1
33892.3,14262.3
33885.1,14255.8
33878.6,14248.7
33872.9,14240.9
33867.9,14232.6
33863.8,14223.9
33860.5,14214.8
33858.2,14205.4
33856.8,14195.9
33856.3,14186.2
33856.3,13713.8
33856.8,13704.1
33858.2,13694.6
33860.5,13685.2
33863.8,13676.1
33867.9,13667.4
33872.9,13659.1
33878.6,13651.3
33885.1,13644.2
33892.3,13637.7
33900,13631.9
33908.3,13627
33917.1,13622.8
33926.2,13619.6
33935.5,13617.2
33945.1,13615.8
33954.7,13615.4
34545.3,13615.4
Z" /> 
</g>
<g >
</g>
<g style="fill:#000000; fill-opacity:1.0; 
stroke:#000000; stroke-width:0; stroke-opacity:1; 
stroke-linecap:round; stroke-linejoin:round;">
</g>
<g style="fill:#000000; fill-opacity:1.0; 
stroke:#000000; stroke-width:669.291; stroke-opacity:1; 
stroke-linecap:round; stroke-linejoin:round;">
</g>
<g style="fill:#000000; fill-opacity:0.0; 
stroke:#000000; stroke-width:669.291; stroke-opacity:1; 
stroke-linecap:round; stroke-linejoin:round;">
<path d="M34209 27184
L34090 27184
" />
</g>
<g style="fill:#000000; fill-opacity:0.0; 
stroke:#000000; stroke-width:0; stroke-opacity:1; 
stroke-linecap:round; stroke-linejoin:round;">
</g>
<g style="fill:#000000; fill-opacity:1.0; 
stroke:#000000; stroke-width:0; stroke-opacity:1; 
stroke-linecap:round; stroke-linejoin:round;">
<path style="fill:#000000; fill-opacity:1.0; 
stroke:#000000; stroke-width:0; stroke-opacity:1; 
stroke-linecap:round; stroke-linejoin:round;fill-rule:evenodd;"
d="M 34454.9,25865.8
34464.5,25867.2
34473.8,25869.6
34482.9,25872.8
34491.7,25877
34500,25881.9
34507.7,25887.7
34514.9,25894.2
34521.4,25901.3
34527.1,25909.1
34532.1,25917.4
34536.2,25926.1
34539.5,25935.2
34541.8,25944.6
34543.2,25954.1
34543.7,25963.8
34543.7,26436.2
34543.2,26445.9
34541.8,26455.4
34539.5,26464.8
34536.2,26473.9
34532.1,26482.6
34527.1,26490.9
34521.4,26498.7
34514.9,26505.8
34507.7,26512.3
34500,26518.1
34491.7,26523
34482.9,26527.2
34473.8,26530.4
34464.5,26532.8
34454.9,26534.2
34445.3,26534.6
33854.7,26534.6
33845.1,26534.2
33835.5,26532.8
33826.2,26530.4
33817.1,26527.2
33808.3,26523
33800,26518.1
33792.3,26512.3
33785.1,26505.8
33778.6,26498.7
33772.9,26490.9
33767.9,26482.6
33763.8,26473.9
33760.5,26464.8
33758.2,26455.4
33756.8,26445.9
33756.3,26436.2
33756.3,25963.8
33756.8,25954.1
33758.2,25944.6
33760.5,25935.2
33763.8,25926.1
33767.9,25917.4
33772.9,25909.1
33778.6,25901.3
33785.1,25894.2
33792.3,25887.7
33800,25881.9
33808.3,25877
33817.1,25872.8
33826.2,25869.6
33835.5,25867.2
33845.1,25865.8
33854.7,25865.4
34445.3,25865.4
Z" /> 
</g>
<g >
</g>
<g >
</g>
<g >
</g>
</g> 
</svg>
