<?xml version="1.0" standalone="no"?>
 <!DOCTYPE svg PUBLIC "-//W3C//DTD SVG 1.1//EN" 
 "http://www.w3.org/Graphics/SVG/1.1/DTD/svg11.dtd"> 
<svg
  xmlns:svg="http://www.w3.org/2000/svg"
  xmlns="http://www.w3.org/2000/svg"
  xmlns:xlink="http://www.w3.org/1999/xlink"
  version="1.1"
  width="13.200380cm" height="14.000480cm" viewBox="0 0 51970 55120">
<title>SVG Picture created as Sebessegmero-B_Cu.svg date 2020/12/12 03:01:01 </title>
  <desc>Picture generated by PCBNEW </desc>
<g style="fill:#000000; fill-opacity:1;stroke:#000000; stroke-opacity:1;
stroke-linecap:round; stroke-linejoin:round;"
 transform="translate(0 0) scale(1 1)">
</g>
<g style="fill:#000000; fill-opacity:0.0; 
stroke:#000000; stroke-width:-0.000393701; stroke-opacity:1; 
stroke-linecap:round; stroke-linejoin:round;">
<g >
</g>
<g >
</g>
<g >
</g>
<g >
</g>
<g >
</g>
<g style="fill:#000000; fill-opacity:0.0; 
stroke:#000000; stroke-width:-0.000393701; stroke-opacity:1; 
stroke-linecap:round; stroke-linejoin:round;">
</g>
<g style="fill:#000000; fill-opacity:1.0; 
stroke:#000000; stroke-width:0; stroke-opacity:1; 
stroke-linecap:round; stroke-linejoin:round;">
<circle cx="24750" cy="30500" r="314.961" /> 
<circle cx="18750" cy="30500" r="314.961" /> 
<circle cx="24750" cy="16500" r="314.961" /> 
<circle cx="18750" cy="29500" r="314.961" /> 
<circle cx="24750" cy="17500" r="314.961" /> 
<circle cx="18750" cy="28500" r="314.961" /> 
<circle cx="24750" cy="18500" r="314.961" /> 
<circle cx="18750" cy="27500" r="314.961" /> 
<circle cx="24750" cy="19500" r="314.961" /> 
<circle cx="18750" cy="26500" r="314.961" /> 
<circle cx="24750" cy="20500" r="314.961" /> 
<circle cx="18750" cy="25500" r="314.961" /> 
<circle cx="24750" cy="21500" r="314.961" /> 
<circle cx="18750" cy="24500" r="314.961" /> 
<circle cx="24750" cy="22500" r="314.961" /> 
<circle cx="18750" cy="23500" r="314.961" /> 
<circle cx="24750" cy="23500" r="314.961" /> 
<circle cx="18750" cy="22500" r="314.961" /> 
<circle cx="24750" cy="24500" r="314.961" /> 
<circle cx="18750" cy="21500" r="314.961" /> 
<circle cx="24750" cy="25500" r="314.961" /> 
<circle cx="18750" cy="20500" r="314.961" /> 
<circle cx="24750" cy="26500" r="314.961" /> 
<circle cx="18750" cy="19500" r="314.961" /> 
<circle cx="24750" cy="27500" r="314.961" /> 
<circle cx="18750" cy="18500" r="314.961" /> 
<circle cx="24750" cy="28500" r="314.961" /> 
<circle cx="18750" cy="17500" r="314.961" /> 
<circle cx="24750" cy="29500" r="314.961" /> 
<path style="fill:#000000; fill-opacity:1.0; 
stroke:#000000; stroke-width:0; stroke-opacity:1; 
stroke-linecap:round; stroke-linejoin:round;fill-rule:evenodd;"
d="M 18435,16815
18435,16185
19065,16185
19065,16815
Z" /> 
</g>
<g >
</g>
<g >
</g>
<g >
</g>
<g >
</g>
<g >
</g>
<g >
</g>
<g >
</g>
<g >
</g>
<g >
</g>
<g >
</g>
<g >
</g>
<g >
</g>
<g >
</g>
<g >
</g>
<g >
</g>
<g >
</g>
<g >
</g>
<g >
</g>
<g >
</g>
<g >
</g>
<g >
</g>
<g >
</g>
<g >
</g>
<g >
</g>
<g style="fill:#000000; fill-opacity:1.0; 
stroke:#000000; stroke-width:0; stroke-opacity:1; 
stroke-linecap:round; stroke-linejoin:round;">
</g>
<g style="fill:#000000; fill-opacity:1.0; 
stroke:#000000; stroke-width:669.291; stroke-opacity:1; 
stroke-linecap:round; stroke-linejoin:round;">
</g>
<g style="fill:#000000; fill-opacity:0.0; 
stroke:#000000; stroke-width:669.291; stroke-opacity:1; 
stroke-linecap:round; stroke-linejoin:round;">
<path d="M27549 15468
L27450 15468
" />
<path d="M27549 14484
L27450 14484
" />
</g>
<g style="fill:#000000; fill-opacity:0.0; 
stroke:#000000; stroke-width:0; stroke-opacity:1; 
stroke-linecap:round; stroke-linejoin:round;">
</g>
<g style="fill:#000000; fill-opacity:1.0; 
stroke:#000000; stroke-width:0; stroke-opacity:1; 
stroke-linecap:round; stroke-linejoin:round;">
<path style="fill:#000000; fill-opacity:1.0; 
stroke:#000000; stroke-width:0; stroke-opacity:1; 
stroke-linecap:round; stroke-linejoin:round;fill-rule:evenodd;"
d="M 27795.1,13165.8
27804.6,13167.2
27814,13169.6
27823.1,13172.8
27831.8,13177
27840.1,13181.9
27847.9,13187.7
27855,13194.2
27861.5,13201.3
27867.3,13209.1
27872.2,13217.4
27876.4,13226.1
27879.6,13235.2
27882,13244.6
27883.4,13254.1
27883.9,13263.8
27883.9,13736.2
27883.4,13745.9
27882,13755.4
27879.6,13764.8
27876.4,13773.9
27872.2,13782.6
27867.3,13790.9
27861.5,13798.7
27855,13805.8
27847.9,13812.3
27840.1,13818.1
27831.8,13823
27823.1,13827.2
27814,13830.4
27804.6,13832.8
27795.1,13834.2
27785.4,13834.6
27214.6,13834.6
27204.9,13834.2
27195.4,13832.8
27186,13830.4
27176.9,13827.2
27168.2,13823
27159.9,13818.1
27152.1,13812.3
27145,13805.8
27138.5,13798.7
27132.7,13790.9
27127.8,13782.6
27123.6,13773.9
27120.4,13764.8
27118,13755.4
27116.6,13745.9
27116.1,13736.2
27116.1,13263.8
27116.6,13254.1
27118,13244.6
27120.4,13235.2
27123.6,13226.1
27127.8,13217.4
27132.7,13209.1
27138.5,13201.3
27145,13194.2
27152.1,13187.7
27159.9,13181.9
27168.2,13177
27176.9,13172.8
27186,13169.6
27195.4,13167.2
27204.9,13165.8
27214.6,13165.4
27785.4,13165.4
Z" /> 
</g>
<g >
</g>
<g style="fill:#000000; fill-opacity:1.0; 
stroke:#000000; stroke-width:0; stroke-opacity:1; 
stroke-linecap:round; stroke-linejoin:round;">
<circle cx="31250" cy="15950" r="334.646" /> 
<circle cx="30250" cy="15950" r="334.646" /> 
<circle cx="31250" cy="14950" r="334.646" /> 
<circle cx="30250" cy="14950" r="334.646" /> 
<circle cx="31250" cy="13950" r="334.646" /> 
<circle cx="30250" cy="13950" r="334.646" /> 
<circle cx="31250" cy="12950" r="334.646" /> 
<path style="fill:#000000; fill-opacity:1.0; 
stroke:#000000; stroke-width:0; stroke-opacity:1; 
stroke-linecap:round; stroke-linejoin:round;fill-rule:evenodd;"
d="M 29915.4,13284.6
29915.4,12615.4
30584.6,12615.4
30584.6,13284.6
Z" /> 
</g>
<g >
</g>
<g style="fill:#000000; fill-opacity:1.0; 
stroke:#000000; stroke-width:0; stroke-opacity:1; 
stroke-linecap:round; stroke-linejoin:round;">
<circle cx="29468.5" cy="29500" r="511.811" /> 
</g>
<g style="fill:#000000; fill-opacity:1.0; 
stroke:#000000; stroke-width:39.3701; stroke-opacity:1; 
stroke-linecap:round; stroke-linejoin:round;">
</g>
<g style="fill:#000000; fill-opacity:1.0; 
stroke:#000000; stroke-width:0; stroke-opacity:1; 
stroke-linecap:round; stroke-linejoin:round;">
<path style="fill:#000000; fill-opacity:1.0; 
stroke:#000000; stroke-width:0; stroke-opacity:1; 
stroke-linecap:round; stroke-linejoin:round;fill-rule:evenodd;"
d="M 26988.2,30011.8
26988.2,28988.2
28011.8,28988.2
28011.8,30011.8
Z" /> 
</g>
<g >
</g>
<g style="fill:#000000; fill-opacity:1.0; 
stroke:#000000; stroke-width:0; stroke-opacity:1; 
stroke-linecap:round; stroke-linejoin:round;">
</g>
<g style="fill:#000000; fill-opacity:1.0; 
stroke:#000000; stroke-width:669.291; stroke-opacity:1; 
stroke-linecap:round; stroke-linejoin:round;">
</g>
<g style="fill:#000000; fill-opacity:0.0; 
stroke:#000000; stroke-width:669.291; stroke-opacity:1; 
stroke-linecap:round; stroke-linejoin:round;">
<path d="M34059 14934
L33940 14934
" />
</g>
<g style="fill:#000000; fill-opacity:0.0; 
stroke:#000000; stroke-width:0; stroke-opacity:1; 
stroke-linecap:round; stroke-linejoin:round;">
</g>
<g style="fill:#000000; fill-opacity:1.0; 
stroke:#000000; stroke-width:0; stroke-opacity:1; 
stroke-linecap:round; stroke-linejoin:round;">
<path style="fill:#000000; fill-opacity:1.0; 
stroke:#000000; stroke-width:0; stroke-opacity:1; 
stroke-linecap:round; stroke-linejoin:round;fill-rule:evenodd;"
d="M 34304.9,13615.8
34314.5,13617.2
34323.8,13619.6
34332.9,13622.8
34341.7,13627
34350,13631.9
34357.7,13637.7
34364.9,13644.2
34371.4,13651.3
34377.1,13659.1
34382.1,13667.4
34386.2,13676.1
34389.5,13685.2
34391.8,13694.6
34393.2,13704.1
34393.7,13713.8
34393.7,14186.2
34393.2,14195.9
34391.8,14205.4
34389.5,14214.8
34386.2,14223.9
34382.1,14232.6
34377.1,14240.9
34371.4,14248.7
34364.9,14255.8
34357.7,14262.3
34350,14268.1
34341.7,14273
34332.9,14277.2
34323.8,14280.4
34314.5,14282.8
34304.9,14284.2
34295.3,14284.6
33704.7,14284.6
33695.1,14284.2
33685.5,14282.8
33676.2,14280.4
33667.1,14277.2
33658.3,14273
33650,14268.1
33642.3,14262.3
33635.1,14255.8
33628.6,14248.7
33622.9,14240.9
33617.9,14232.6
33613.8,14223.9
33610.5,14214.8
33608.2,14205.4
33606.8,14195.9
33606.3,14186.2
33606.3,13713.8
33606.8,13704.1
33608.2,13694.6
33610.5,13685.2
33613.8,13676.1
33617.9,13667.4
33622.9,13659.1
33628.6,13651.3
33635.1,13644.2
33642.3,13637.7
33650,13631.9
33658.3,13627
33667.1,13622.8
33676.2,13619.6
33685.5,13617.2
33695.1,13615.8
33704.7,13615.4
34295.3,13615.4
Z" /> 
</g>
<g >
</g>
<g style="fill:#000000; fill-opacity:1.0; 
stroke:#000000; stroke-width:0; stroke-opacity:1; 
stroke-linecap:round; stroke-linejoin:round;">
</g>
<g style="fill:#000000; fill-opacity:1.0; 
stroke:#000000; stroke-width:669.291; stroke-opacity:1; 
stroke-linecap:round; stroke-linejoin:round;">
</g>
<g style="fill:#000000; fill-opacity:0.0; 
stroke:#000000; stroke-width:669.291; stroke-opacity:1; 
stroke-linecap:round; stroke-linejoin:round;">
<path d="M34109 27184
L33990 27184
" />
</g>
<g style="fill:#000000; fill-opacity:0.0; 
stroke:#000000; stroke-width:0; stroke-opacity:1; 
stroke-linecap:round; stroke-linejoin:round;">
</g>
<g style="fill:#000000; fill-opacity:1.0; 
stroke:#000000; stroke-width:0; stroke-opacity:1; 
stroke-linecap:round; stroke-linejoin:round;">
<path style="fill:#000000; fill-opacity:1.0; 
stroke:#000000; stroke-width:0; stroke-opacity:1; 
stroke-linecap:round; stroke-linejoin:round;fill-rule:evenodd;"
d="M 34354.9,25865.8
34364.5,25867.2
34373.8,25869.6
34382.9,25872.8
34391.7,25877
34400,25881.9
34407.7,25887.7
34414.9,25894.2
34421.4,25901.3
34427.1,25909.1
34432.1,25917.4
34436.2,25926.1
34439.5,25935.2
34441.8,25944.6
34443.2,25954.1
34443.7,25963.8
34443.7,26436.2
34443.2,26445.9
34441.8,26455.4
34439.5,26464.8
34436.2,26473.9
34432.1,26482.6
34427.1,26490.9
34421.4,26498.7
34414.9,26505.8
34407.7,26512.3
34400,26518.1
34391.7,26523
34382.9,26527.2
34373.8,26530.4
34364.5,26532.8
34354.9,26534.2
34345.3,26534.6
33754.7,26534.6
33745.1,26534.2
33735.5,26532.8
33726.2,26530.4
33717.1,26527.2
33708.3,26523
33700,26518.1
33692.3,26512.3
33685.1,26505.8
33678.6,26498.7
33672.9,26490.9
33667.9,26482.6
33663.8,26473.9
33660.5,26464.8
33658.2,26455.4
33656.8,26445.9
33656.3,26436.2
33656.3,25963.8
33656.8,25954.1
33658.2,25944.6
33660.5,25935.2
33663.8,25926.1
33667.9,25917.4
33672.9,25909.1
33678.6,25901.3
33685.1,25894.2
33692.3,25887.7
33700,25881.9
33708.3,25877
33717.1,25872.8
33726.2,25869.6
33735.5,25867.2
33745.1,25865.8
33754.7,25865.4
34345.3,25865.4
Z" /> 
</g>
<g >
</g>
<g style="fill:#000000; fill-opacity:1.0; 
stroke:#000000; stroke-width:0; stroke-opacity:1; 
stroke-linecap:round; stroke-linejoin:round;">
<circle cx="32775" cy="25080" r="157.48" /> 
</g>
<g style="fill:#000000; fill-opacity:1.0; 
stroke:#000000; stroke-width:39.3701; stroke-opacity:1; 
stroke-linecap:round; stroke-linejoin:round;">
</g>
<g style="fill:#000000; fill-opacity:1.0; 
stroke:#000000; stroke-width:0; stroke-opacity:1; 
stroke-linecap:round; stroke-linejoin:round;">
<circle cx="29650" cy="21000" r="157.48" /> 
</g>
<g style="fill:#000000; fill-opacity:1.0; 
stroke:#000000; stroke-width:39.3701; stroke-opacity:1; 
stroke-linecap:round; stroke-linejoin:round;">
</g>
<g style="fill:#000000; fill-opacity:1.0; 
stroke:#000000; stroke-width:0; stroke-opacity:1; 
stroke-linecap:round; stroke-linejoin:round;">
<circle cx="33310" cy="16270" r="157.48" /> 
</g>
<g style="fill:#000000; fill-opacity:1.0; 
stroke:#000000; stroke-width:39.3701; stroke-opacity:1; 
stroke-linecap:round; stroke-linejoin:round;">
</g>
<g style="fill:#000000; fill-opacity:1.0; 
stroke:#000000; stroke-width:0; stroke-opacity:1; 
stroke-linecap:round; stroke-linejoin:round;">
<circle cx="30500" cy="18000" r="157.48" /> 
</g>
<g style="fill:#000000; fill-opacity:1.0; 
stroke:#000000; stroke-width:39.3701; stroke-opacity:1; 
stroke-linecap:round; stroke-linejoin:round;">
</g>
<g style="fill:#000000; fill-opacity:1.0; 
stroke:#000000; stroke-width:0; stroke-opacity:1; 
stroke-linecap:round; stroke-linejoin:round;">
<circle cx="26500" cy="16750" r="157.48" /> 
</g>
<g style="fill:#000000; fill-opacity:1.0; 
stroke:#000000; stroke-width:39.3701; stroke-opacity:1; 
stroke-linecap:round; stroke-linejoin:round;">
</g>
<g style="fill:#000000; fill-opacity:1.0; 
stroke:#000000; stroke-width:0; stroke-opacity:1; 
stroke-linecap:round; stroke-linejoin:round;">
<circle cx="29750" cy="24750" r="157.48" /> 
</g>
<g style="fill:#000000; fill-opacity:1.0; 
stroke:#000000; stroke-width:39.3701; stroke-opacity:1; 
stroke-linecap:round; stroke-linejoin:round;">
</g>
<g style="fill:#000000; fill-opacity:1.0; 
stroke:#000000; stroke-width:0; stroke-opacity:1; 
stroke-linecap:round; stroke-linejoin:round;">
<circle cx="21000" cy="19000" r="157.48" /> 
</g>
<g style="fill:#000000; fill-opacity:1.0; 
stroke:#000000; stroke-width:39.3701; stroke-opacity:1; 
stroke-linecap:round; stroke-linejoin:round;">
</g>
<g style="fill:#000000; fill-opacity:1.0; 
stroke:#000000; stroke-width:0; stroke-opacity:1; 
stroke-linecap:round; stroke-linejoin:round;">
<circle cx="21000" cy="22500" r="157.48" /> 
</g>
<g style="fill:#000000; fill-opacity:1.0; 
stroke:#000000; stroke-width:39.3701; stroke-opacity:1; 
stroke-linecap:round; stroke-linejoin:round;">
</g>
<g style="fill:#000000; fill-opacity:1.0; 
stroke:#000000; stroke-width:0; stroke-opacity:1; 
stroke-linecap:round; stroke-linejoin:round;">
<circle cx="32000" cy="29750" r="157.48" /> 
</g>
<g style="fill:#000000; fill-opacity:1.0; 
stroke:#000000; stroke-width:39.3701; stroke-opacity:1; 
stroke-linecap:round; stroke-linejoin:round;">
</g>
<g style="fill:#000000; fill-opacity:1.0; 
stroke:#000000; stroke-width:0; stroke-opacity:1; 
stroke-linecap:round; stroke-linejoin:round;">
<circle cx="22000" cy="13250" r="157.48" /> 
</g>
<g style="fill:#000000; fill-opacity:1.0; 
stroke:#000000; stroke-width:39.3701; stroke-opacity:1; 
stroke-linecap:round; stroke-linejoin:round;">
</g>
<g style="fill:#000000; fill-opacity:1.0; 
stroke:#000000; stroke-width:0; stroke-opacity:1; 
stroke-linecap:round; stroke-linejoin:round;">
<circle cx="30000" cy="28000" r="157.48" /> 
</g>
<g style="fill:#000000; fill-opacity:1.0; 
stroke:#000000; stroke-width:39.3701; stroke-opacity:1; 
stroke-linecap:round; stroke-linejoin:round;">
</g>
<g style="fill:#000000; fill-opacity:1.0; 
stroke:#000000; stroke-width:0; stroke-opacity:1; 
stroke-linecap:round; stroke-linejoin:round;">
<circle cx="21000" cy="26500" r="157.48" /> 
</g>
<g style="fill:#000000; fill-opacity:1.0; 
stroke:#000000; stroke-width:39.3701; stroke-opacity:1; 
stroke-linecap:round; stroke-linejoin:round;">
</g>
<g style="fill:#000000; fill-opacity:1.0; 
stroke:#000000; stroke-width:0; stroke-opacity:1; 
stroke-linecap:round; stroke-linejoin:round;">
<circle cx="33550" cy="21330" r="157.48" /> 
</g>
<g style="fill:#000000; fill-opacity:1.0; 
stroke:#000000; stroke-width:39.3701; stroke-opacity:1; 
stroke-linecap:round; stroke-linejoin:round;">
</g>
<g style="fill:#000000; fill-opacity:1.0; 
stroke:#000000; stroke-width:0; stroke-opacity:1; 
stroke-linecap:round; stroke-linejoin:round;">
<circle cx="29850" cy="23650" r="157.48" /> 
</g>
<g style="fill:#000000; fill-opacity:1.0; 
stroke:#000000; stroke-width:39.3701; stroke-opacity:1; 
stroke-linecap:round; stroke-linejoin:round;">
</g>
<g style="fill:#000000; fill-opacity:1.0; 
stroke:#000000; stroke-width:0; stroke-opacity:1; 
stroke-linecap:round; stroke-linejoin:round;">
<circle cx="29050" cy="13950" r="157.48" /> 
</g>
<g style="fill:#000000; fill-opacity:1.0; 
stroke:#000000; stroke-width:39.3701; stroke-opacity:1; 
stroke-linecap:round; stroke-linejoin:round;">
</g>
<g style="fill:#000000; fill-opacity:1.0; 
stroke:#000000; stroke-width:0; stroke-opacity:1; 
stroke-linecap:round; stroke-linejoin:round;">
<circle cx="28750" cy="22100" r="157.48" /> 
</g>
<g style="fill:#000000; fill-opacity:1.0; 
stroke:#000000; stroke-width:39.3701; stroke-opacity:1; 
stroke-linecap:round; stroke-linejoin:round;">
</g>
<g style="fill:#000000; fill-opacity:1.0; 
stroke:#000000; stroke-width:0; stroke-opacity:1; 
stroke-linecap:round; stroke-linejoin:round;">
<circle cx="29850" cy="17250" r="157.48" /> 
</g>
<g style="fill:#000000; fill-opacity:1.0; 
stroke:#000000; stroke-width:39.3701; stroke-opacity:1; 
stroke-linecap:round; stroke-linejoin:round;">
</g>
<g style="fill:#000000; fill-opacity:1.0; 
stroke:#000000; stroke-width:0; stroke-opacity:1; 
stroke-linecap:round; stroke-linejoin:round;">
<circle cx="29250" cy="12950" r="157.48" /> 
</g>
<g style="fill:#000000; fill-opacity:1.0; 
stroke:#000000; stroke-width:39.3701; stroke-opacity:1; 
stroke-linecap:round; stroke-linejoin:round;">
</g>
<g style="fill:#000000; fill-opacity:1.0; 
stroke:#000000; stroke-width:0; stroke-opacity:1; 
stroke-linecap:round; stroke-linejoin:round;">
<circle cx="32475" cy="23000" r="157.48" /> 
</g>
<g style="fill:#000000; fill-opacity:1.0; 
stroke:#000000; stroke-width:39.3701; stroke-opacity:1; 
stroke-linecap:round; stroke-linejoin:round;">
</g>
<g style="fill:#000000; fill-opacity:1.0; 
stroke:#000000; stroke-width:0; stroke-opacity:1; 
stroke-linecap:round; stroke-linejoin:round;">
<circle cx="34860" cy="21350" r="157.48" /> 
</g>
<g style="fill:#000000; fill-opacity:1.0; 
stroke:#000000; stroke-width:39.3701; stroke-opacity:1; 
stroke-linecap:round; stroke-linejoin:round;">
</g>
<g style="fill:#000000; fill-opacity:1.0; 
stroke:#000000; stroke-width:0; stroke-opacity:1; 
stroke-linecap:round; stroke-linejoin:round;">
<circle cx="33300" cy="19500" r="157.48" /> 
</g>
<g style="fill:#000000; fill-opacity:1.0; 
stroke:#000000; stroke-width:39.3701; stroke-opacity:1; 
stroke-linecap:round; stroke-linejoin:round;">
</g>
<g style="fill:#000000; fill-opacity:1.0; 
stroke:#000000; stroke-width:0; stroke-opacity:1; 
stroke-linecap:round; stroke-linejoin:round;">
<circle cx="34450" cy="16950" r="157.48" /> 
</g>
<g style="fill:#000000; fill-opacity:1.0; 
stroke:#000000; stroke-width:39.3701; stroke-opacity:1; 
stroke-linecap:round; stroke-linejoin:round;">
</g>
<g >
</g>
<g style="fill:#000000; fill-opacity:1.0; 
stroke:#000000; stroke-width:39.3701; stroke-opacity:1; 
stroke-linecap:round; stroke-linejoin:round;">
</g>
<g style="fill:#000000; fill-opacity:1.0; 
stroke:#000000; stroke-width:98.4252; stroke-opacity:1; 
stroke-linecap:round; stroke-linejoin:round;">
</g>
<g style="fill:#000000; fill-opacity:0.0; 
stroke:#000000; stroke-width:98.4252; stroke-opacity:1; 
stroke-linecap:round; stroke-linejoin:round;">
<path d="M32775 25875
L32775 25080
" />
<path d="M29100 26750
L31900 26750
" />
<path d="M31900 26750
L32775 25875
" />
<path d="M27500 28350
L29100 26750
" />
<path d="M27500 29500
L27500 28350
" />
<path d="M23700 16500
L24750 16500
" />
<path d="M22850 17350
L23700 16500
" />
<path d="M22850 30575
L22850 17350
" />
<path d="M23675 31400
L22850 30575
" />
<path d="M26700 31400
L23675 31400
" />
<path d="M27500 30600
L26700 31400
" />
<path d="M27500 29500
L27500 30600
" />
<path d="M32775 24125
L29650 21000
" />
<path d="M32775 25080
L32775 24125
" />
<path d="M29850 23650
L29200 23650
" />
<path d="M29200 23650
L28300 22750
" />
<path d="M28300 22750
L28300 17450
" />
<path d="M29050 16700
L29050 13950
" />
<path d="M28300 17450
L29050 16700
" />
<path d="M26000 27500
L24750 27500
" />
<path d="M29850 23650
L26000 27500
" />
<path d="M29850 16850
L29850 17350
" />
<path d="M29450 16450
L29850 16850
" />
<path d="M29450 13150
L29450 16450
" />
<path d="M29250 12950
L29450 13150
" />
<path d="M28750 22100
L28750 20700
" />
<path d="M29850 19600
L29850 17350
" />
<path d="M28750 20700
L29850 19600
" />
<path d="M32475 23000
L34150 23000
" />
<path d="M34860 22290
L34860 21350
" />
<path d="M34150 23000
L34860 22290
" />
<path d="M34450 18350
L33300 19500
" />
<path d="M34450 16950
L34450 18350
" />
</g>
<g >
</g>
<g style="fill:#000000; fill-opacity:0.0; 
stroke:#000000; stroke-width:98.4252; stroke-opacity:1; 
stroke-linecap:round; stroke-linejoin:round;">
<g >
</g>
<g style="fill:#000000; fill-opacity:1.0; 
stroke:#000000; stroke-width:100; stroke-opacity:1; 
stroke-linecap:round; stroke-linejoin:round;">
<path style="fill:#000000; fill-opacity:1.0; 
stroke:#000000; stroke-width:100; stroke-opacity:1; 
stroke-linecap:round; stroke-linejoin:round;fill-rule:evenodd;"
d="M 35437.7,12276.4
35497.1,12308.1
35549.2,12350.8
35591.9,12402.9
35623.6,12462.3
35643.2,12526.7
35650,12596.2
35650,28403.8
35643.2,28473.3
35623.6,28537.7
35591.9,28597.1
35549.2,28649.2
35497.1,28691.9
35437.7,28723.6
35373.3,28743.2
35303.8,28750
33293.7,28750
33288.8,28750.2
33212,28757.8
33202.4,28759.7
33128.5,28782.1
33119.5,28785.9
33051.4,28822.3
33043.3,28827.7
32983.6,28876.7
32976.7,28883.6
32927.7,28943.3
32922.3,28951.4
32885.9,29019.5
32882.1,29028.5
32859.7,29102.4
32857.8,29112
32850.2,29188.8
32850,29193.7
32850,31403.8
32843.2,31473.3
32823.6,31537.7
32791.9,31597.1
32749.2,31649.2
32697.1,31691.9
32637.7,31723.6
32583.2,31740.2
22816.8,31740.2
22762.3,31723.6
22702.9,31691.9
22650.8,31649.2
22608.1,31597.1
22576.4,31537.7
22556.8,31473.3
22550,31403.8
22550,30581.7
22550.8,30589.7
22550.8,30589.7
22555.1,30633.7
22564.6,30664.8
22572.2,30690.1
22600,30742
22612,30756.7
22637.4,30787.6
22648.8,30797
23453,31601.2
23462.4,31612.6
23473.8,31622
23508,31650
23559.9,31677.8
23616.3,31694.9
23675,31700.7
23689.7,31699.2
26685.3,31699.2
26700,31700.7
26714.7,31699.2
26714.7,31699.2
26758.7,31694.9
26815.1,31677.8
26867,31650
26912.6,31612.6
26922,31601.2
27701.2,30822
27712.6,30812.6
27733.1,30787.6
27750,30767
27777.8,30715.1
27785.4,30690.1
27794.9,30658.7
27799.2,30614.7
27799.2,30614.7
27800.7,30600
27799.2,30585.3
27799.2,30263
28011.8,30263
28060.8,30258.2
28107.9,30243.9
28151.4,30220.7
28189.4,30189.4
28220.7,30151.4
28243.9,30107.9
28258.2,30060.8
28261.1,30031.2
29008,30031.2
29060,30147.4
29194.1,30214.6
29338.8,30254.4
29488.5,30265.2
29637.4,30246.6
29779.8,30199.3
29877,30147.4
29929,30031.2
29468.5,29570.7
29008,30031.2
28261.1,30031.2
28263,30011.8
28263,29520
28703.3,29520
28721.9,29668.9
28769.2,29811.3
28821.1,29908.5
28937.3,29960.5
29397.8,29500
29539.2,29500
29999.7,29960.5
30115.9,29908.5
30183.1,29774.4
30222.9,29629.7
30233.7,29480
30215.1,29331.1
30167.8,29188.7
30115.9,29091.5
29999.7,29039.5
29539.2,29500
29397.8,29500
28937.3,29039.5
28821.1,29091.5
28753.9,29225.6
28714.1,29370.3
28703.3,29520
28263,29520
28263,28988.2
28261.1,28968.8
29008,28968.8
29468.5,29429.3
29929,28968.8
29877,28852.6
29742.9,28785.4
29598.2,28745.6
29448.5,28734.8
29299.6,28753.4
29157.2,28800.7
29060,28852.6
29008,28968.8
28261.1,28968.8
28258.2,28939.2
28243.9,28892.1
28220.7,28848.6
28189.4,28810.6
28151.4,28779.3
28107.9,28756.1
28060.8,28741.8
28011.8,28737
27799.2,28737
27799.2,28473.9
28948.4,27324.8
33423.4,27324.8
33424.2,27329.6
33463.4,27437.4
33523,27535.5
33600.5,27620
33693,27687.8
33797,27736.3
33908.4,27763.5
34000,27706.8
34000,27234.3
34100,27234.3
34100,27706.8
34191.6,27763.5
34303,27736.3
34407,27687.8
34499.5,27620
34577,27535.5
34636.6,27437.4
34675.8,27329.6
34676.6,27324.8
34628.8,27234.3
34100,27234.3
34000,27234.3
33471.2,27234.3
33423.4,27324.8
28948.4,27324.8
29223.9,27049.2
31885.3,27049.2
31900,27050.7
31914.7,27049.2
31914.7,27049.2
31958.7,27044.9
32015.1,27027.8
32067,27000
32112.6,26962.6
32122,26951.2
32976.2,26097
32987.6,26087.6
33025,26042
33052.8,25990.1
33060.7,25963.8
33405.1,25963.8
33405.1,26436.2
33411.8,26504.4
33431.7,26570
33464,26630.5
33507.5,26683.4
33560.5,26726.9
33600.6,26748.4
33600.5,26748.5
33523,26833.1
33463.4,26931.1
33424.2,27038.9
33423.4,27043.7
33471.2,27134.3
34000,27134.3
34000,27126.4
34100,27126.4
34100,27134.3
34628.8,27134.3
34676.6,27043.7
34675.8,27038.9
34636.6,26931.1
34577,26833.1
34499.5,26748.5
34499.4,26748.4
34539.5,26726.9
34592.5,26683.4
34636,26630.5
34668.3,26570
34688.2,26504.4
34694.9,26436.2
34694.9,25963.8
34688.2,25895.6
34668.3,25830
34636,25769.5
34592.5,25716.6
34539.5,25673.1
34479.1,25640.8
34413.5,25620.9
34345.3,25614.1
33754.7,25614.1
33686.5,25620.9
33620.9,25640.8
33560.5,25673.1
33507.5,25716.6
33464,25769.5
33431.7,25830
33411.8,25895.6
33405.1,25963.8
33060.7,25963.8
33069.9,25933.7
33074.2,25889.7
33074.2,25889.7
33075.7,25875
33074.2,25860.3
33074.2,25357.1
33091.5,25339.8
33136.1,25273
33166.8,25198.9
33182.5,25120.1
33182.5,25039.9
33166.8,24961.1
33136.1,24887
33091.5,24820.2
33074.2,24802.9
33074.2,24139.7
33075.7,24125
33074.2,24110.3
33074.2,24110.3
33069.9,24066.3
33052.8,24009.9
33029.6,23966.5
33025,23958
32997,23923.8
32987.6,23912.4
32976.2,23903
32480.6,23407.5
32515.1,23407.5
32593.9,23391.8
32668,23361.1
32734.8,23316.5
32752.1,23299.2
34135.3,23299.2
34150,23300.7
34164.7,23299.2
34164.7,23299.2
34208.7,23294.9
34265.1,23277.8
34317,23250
34362.6,23212.6
34372,23201.2
35061.2,22512
35072.6,22502.6
35110,22457
35137.8,22405.1
35154.9,22348.7
35159.2,22304.7
35159.2,22304.7
35160.7,22290
35159.2,22275.3
35159.2,21627.1
35176.5,21609.8
35221.1,21543
35251.8,21468.9
35267.5,21390.1
35267.5,21309.9
35251.8,21231.1
35221.1,21157
35176.5,21090.2
35119.8,21033.5
35053,20988.9
34978.9,20958.2
34900.1,20942.5
34819.9,20942.5
34741.1,20958.2
34667,20988.9
34600.2,21033.5
34543.5,21090.2
34498.9,21157
34468.2,21231.1
34452.5,21309.9
34452.5,21390.1
34468.2,21468.9
34498.9,21543
34543.5,21609.8
34560.8,21627.1
34560.8,22166.1
34026.1,22700.8
32752.1,22700.8
32734.8,22683.5
32668,22638.9
32593.9,22608.2
32515.1,22592.5
32434.9,22592.5
32356.1,22608.2
32282,22638.9
32215.2,22683.5
32158.5,22740.2
32113.9,22807
32083.2,22881.1
32067.5,22959.9
32067.5,22994.4
30057.5,20984.3
30057.5,20959.9
30041.8,20881.1
30011.1,20807
29966.5,20740.2
29909.8,20683.5
29843,20638.9
29768.9,20608.2
29690.1,20592.5
29609.9,20592.5
29531.1,20608.2
29457,20638.9
29390.2,20683.5
29333.5,20740.2
29288.9,20807
29258.2,20881.1
29242.5,20959.9
29242.5,21040.1
29258.2,21118.9
29288.9,21193
29333.5,21259.8
29390.2,21316.5
29457,21361.1
29531.1,21391.8
29609.9,21407.5
29634.3,21407.5
32475.8,24248.9
32475.8,24802.9
32458.5,24820.2
32413.9,24887
32383.2,24961.1
32367.5,25039.9
32367.5,25120.1
32383.2,25198.9
32413.9,25273
32458.5,25339.8
32475.8,25357.1
32475.8,25751.1
31776.1,26450.8
29114.7,26450.8
29100,26449.3
29085.3,26450.8
29085.3,26450.8
29041.3,26455.1
28984.9,26472.2
28933,26500
28900,26527
28887.4,26537.4
28878,26548.8
27298.8,28128
27287.4,28137.4
27278,28148.8
27278,28148.8
27250,28183
27222.2,28234.9
27205.1,28291.3
27199.3,28350
27200.8,28364.7
27200.8,28737
26988.2,28737
26939.2,28741.8
26892.1,28756.1
26848.6,28779.3
26810.6,28810.6
26779.3,28848.6
26756.1,28892.1
26741.8,28939.2
26737,28988.2
26737,30011.8
26741.8,30060.8
26756.1,30107.9
26779.3,30151.4
26810.6,30189.4
26848.6,30220.7
26892.1,30243.9
26939.2,30258.2
26988.2,30263
27200.8,30263
27200.8,30476.1
26576.1,31100.8
23798.9,31100.8
23149.2,30451.1
23149.2,18444.4
24185,18444.4
24185,18555.6
24206.8,18664.8
24249.3,18767.6
24311.2,18860.1
24389.9,18938.8
24481.4,19000
24389.9,19061.2
24311.2,19139.9
24249.3,19232.4
24206.8,19335.2
24185,19444.4
24185,19555.6
24206.8,19664.8
24249.3,19767.6
24311.2,19860.1
24389.9,19938.8
24481.4,20000
24389.9,20061.2
24311.2,20139.9
24249.3,20232.4
24206.8,20335.2
24185,20444.4
24185,20555.6
24206.8,20664.8
24249.3,20767.6
24311.2,20860.1
24389.9,20938.8
24481.4,21000
24389.9,21061.2
24311.2,21139.9
24249.3,21232.4
24206.8,21335.2
24185,21444.4
24185,21555.6
24206.8,21664.8
24249.3,21767.6
24311.2,21860.1
24389.9,21938.8
24481.4,22000
24389.9,22061.2
24311.2,22139.9
24249.3,22232.4
24206.8,22335.2
24185,22444.4
24185,22555.6
24206.8,22664.8
24249.3,22767.6
24311.2,22860.1
24389.9,22938.8
24481.4,23000
24389.9,23061.2
24311.2,23139.9
24249.3,23232.4
24206.8,23335.2
24185,23444.4
24185,23555.6
24206.8,23664.8
24249.3,23767.6
24311.2,23860.1
24389.9,23938.8
24481.4,24000
24389.9,24061.2
24311.2,24139.9
24249.3,24232.4
24206.8,24335.2
24185,24444.4
24185,24555.6
24206.8,24664.8
24249.3,24767.6
24311.2,24860.1
24389.9,24938.8
24481.4,25000
24389.9,25061.2
24311.2,25139.9
24249.3,25232.4
24206.8,25335.2
24185,25444.4
24185,25555.6
24206.8,25664.8
24249.3,25767.6
24311.2,25860.1
24389.9,25938.8
24481.4,26000
24389.9,26061.2
24311.2,26139.9
24249.3,26232.4
24206.8,26335.2
24185,26444.4
24185,26555.6
24206.8,26664.8
24249.3,26767.6
24311.2,26860.1
24389.9,26938.8
24481.4,27000
24389.9,27061.2
24311.2,27139.9
24249.3,27232.4
24206.8,27335.2
24185,27444.4
24185,27555.6
24206.8,27664.8
24249.3,27767.6
24311.2,27860.1
24389.9,27938.8
24481.4,28000
24389.9,28061.2
24311.2,28139.9
24249.3,28232.4
24206.8,28335.2
24185,28444.4
24185,28555.6
24206.8,28664.8
24249.3,28767.6
24311.2,28860.1
24389.9,28938.8
24481.4,29000
24389.9,29061.2
24311.2,29139.9
24249.3,29232.4
24206.8,29335.2
24185,29444.4
24185,29555.6
24206.8,29664.8
24249.3,29767.6
24311.2,29860.1
24389.9,29938.8
24481.4,30000
24389.9,30061.2
24311.2,30139.9
24249.3,30232.4
24206.8,30335.2
24185,30444.4
24185,30555.6
24206.8,30664.8
24249.3,30767.6
24311.2,30860.1
24389.9,30938.8
24482.4,31000.7
24585.2,31043.2
24694.4,31065
24805.6,31065
24914.8,31043.2
25017.6,31000.7
25110.1,30938.8
25188.8,30860.1
25250.7,30767.6
25293.2,30664.8
25315,30555.6
25315,30444.4
25293.2,30335.2
25250.7,30232.4
25188.8,30139.9
25110.1,30061.2
25018.6,30000
25110.1,29938.8
25188.8,29860.1
25250.7,29767.6
25293.2,29664.8
25315,29555.6
25315,29444.4
25293.2,29335.2
25250.7,29232.4
25188.8,29139.9
25110.1,29061.2
25018.6,29000
25110.1,28938.8
25188.8,28860.1
25250.7,28767.6
25293.2,28664.8
25315,28555.6
25315,28444.4
25293.2,28335.2
25250.7,28232.4
25188.8,28139.9
25110.1,28061.2
25018.6,28000
25110.1,27938.8
25188.8,27860.1
25229.5,27799.2
25985.3,27799.2
26000,27800.7
26014.7,27799.2
26014.7,27799.2
26058.7,27794.9
26115.1,27777.8
26167,27750
26212.6,27712.6
26222,27701.2
29865.7,24057.5
29890.1,24057.5
29968.9,24041.8
30043,24011.1
30109.8,23966.5
30166.5,23909.8
30211.1,23843
30241.8,23768.9
30257.5,23690.1
30257.5,23609.9
30241.8,23531.1
30211.1,23457
30166.5,23390.2
30109.8,23333.5
30043,23288.9
29968.9,23258.2
29890.1,23242.5
29809.9,23242.5
29731.1,23258.2
29657,23288.9
29590.2,23333.5
29572.9,23350.8
29323.9,23350.8
28599.2,22626.1
28599.2,22478.6
28631.1,22491.8
28709.9,22507.5
28790.1,22507.5
28868.9,22491.8
28943,22461.1
29009.8,22416.5
29066.5,22359.8
29111.1,22293
29141.8,22218.9
29157.5,22140.1
29157.5,22059.9
29141.8,21981.1
29111.1,21907
29066.5,21840.2
29049.2,21822.9
29049.2,20823.9
30051.2,19822
30062.6,19812.6
30100,19767
30127.8,19715.1
30144.9,19658.7
30149.2,19614.7
30149.2,19614.7
30150.7,19600
30149.2,19585.3
30149.2,19459.9
32892.5,19459.9
32892.5,19540.1
32908.2,19618.9
32938.9,19693
32983.5,19759.8
33040.2,19816.5
33107,19861.1
33181.1,19891.8
33259.9,19907.5
33340.1,19907.5
33418.9,19891.8
33493,19861.1
33559.8,19816.5
33616.5,19759.8
33661.1,19693
33691.8,19618.9
33707.5,19540.1
33707.5,19515.7
34651.2,18572
34662.6,18562.6
34700,18517
34727.8,18465.1
34744.9,18408.7
34749.2,18364.7
34749.2,18364.7
34750.7,18350
34749.2,18335.3
34749.2,17227.1
34766.5,17209.8
34811.1,17143
34841.8,17068.9
34857.5,16990.1
34857.5,16909.9
34841.8,16831.1
34811.1,16757
34766.5,16690.2
34709.8,16633.5
34643,16588.9
34568.9,16558.2
34490.1,16542.5
34409.9,16542.5
34331.1,16558.2
34257,16588.9
34190.2,16633.5
34133.5,16690.2
34088.9,16757
34058.2,16831.1
34042.5,16909.9
34042.5,16990.1
34058.2,17068.9
34088.9,17143
34133.5,17209.8
34150.8,17227.1
34150.8,18226.1
33284.3,19092.5
33259.9,19092.5
33181.1,19108.2
33107,19138.9
33040.2,19183.5
32983.5,19240.2
32938.9,19307
32908.2,19381.1
32892.5,19459.9
30149.2,19459.9
30149.2,17527.1
30166.5,17509.8
30211.1,17443
30241.8,17368.9
30257.5,17290.1
30257.5,17209.9
30241.8,17131.1
30211.1,17057
30166.5,16990.2
30149.2,16972.9
30149.2,16864.7
30150.7,16850
30149.2,16835.3
30149.2,16835.3
30144.9,16791.3
30127.8,16734.9
30100,16683
30100,16683
30072,16648.8
30062.6,16637.4
30051.2,16628
29749.2,16326.1
29749.2,16252.9
29795.9,16322.7
29877.3,16404.1
29973.1,16468.1
30079.5,16512.2
30192.4,16534.6
30307.6,16534.6
30420.5,16512.2
30526.9,16468.1
30622.7,16404.1
30704.1,16322.7
30750,16254
30795.9,16322.7
30877.3,16404.1
30973.1,16468.1
31079.5,16512.2
31192.4,16534.6
31307.6,16534.6
31420.5,16512.2
31526.9,16468.1
31622.7,16404.1
31704.1,16322.7
31768.1,16226.9
31812.2,16120.5
31834.6,16007.6
31834.6,15892.4
31812.2,15779.5
31768.1,15673.1
31704.1,15577.3
31622.7,15495.9
31554,15450
31622.7,15404.1
31704.1,15322.7
31768.1,15226.9
31812.2,15120.5
31821.3,15074.8
33373.4,15074.8
33374.2,15079.6
33413.4,15187.4
33473,15285.5
33550.5,15370
33643,15437.8
33747,15486.3
33858.4,15513.5
33950,15456.8
33950,14984.3
34050,14984.3
34050,15456.8
34141.6,15513.5
34253,15486.3
34357,15437.8
34449.5,15370
34527,15285.5
34586.6,15187.4
34625.8,15079.6
34626.6,15074.8
34578.8,14984.3
34050,14984.3
33950,14984.3
33421.2,14984.3
33373.4,15074.8
31821.3,15074.8
31834.6,15007.6
31834.6,14892.4
31812.2,14779.5
31768.1,14673.1
31704.1,14577.3
31622.7,14495.9
31554,14450
31622.7,14404.1
31704.1,14322.7
31768.1,14226.9
31812.2,14120.5
31834.6,14007.6
31834.6,13892.4
31812.2,13779.5
31785,13713.8
33355.1,13713.8
33355.1,14186.2
33361.8,14254.4
33381.7,14320
33414,14380.5
33457.5,14433.4
33510.5,14476.9
33550.6,14498.4
33550.5,14498.5
33473,14583.1
33413.4,14681.1
33374.2,14788.9
33373.4,14793.7
33421.2,14884.3
33950,14884.3
33950,14876.4
34050,14876.4
34050,14884.3
34578.8,14884.3
34626.6,14793.7
34625.8,14788.9
34586.6,14681.1
34527,14583.1
34449.5,14498.5
34449.4,14498.4
34489.5,14476.9
34542.5,14433.4
34586,14380.5
34618.3,14320
34638.2,14254.4
34644.9,14186.2
34644.9,13713.8
34638.2,13645.6
34618.3,13580
34586,13519.5
34542.5,13466.6
34489.5,13423.1
34429.1,13390.8
34363.5,13370.9
34295.3,13364.1
33704.7,13364.1
33636.5,13370.9
33570.9,13390.8
33510.5,13423.1
33457.5,13466.6
33414,13519.5
33381.7,13580
33361.8,13645.6
33355.1,13713.8
31785,13713.8
31768.1,13673.1
31704.1,13577.3
31622.7,13495.9
31554,13450
31622.7,13404.1
31704.1,13322.7
31768.1,13226.9
31812.2,13120.5
31834.6,13007.6
31834.6,12892.4
31812.2,12779.5
31768.1,12673.1
31704.1,12577.3
31622.7,12495.9
31526.9,12431.9
31420.5,12387.8
31307.6,12365.4
31192.4,12365.4
31079.5,12387.8
30973.1,12431.9
30877.3,12495.9
30825.4,12547.8
30816.7,12519.2
30793.5,12475.8
30762.3,12437.7
30724.2,12406.5
30680.8,12383.3
30633.7,12369
30584.6,12364.1
29915.4,12364.1
29866.3,12369
29819.2,12383.3
29775.8,12406.5
29737.7,12437.7
29706.5,12475.8
29683.3,12519.2
29669,12566.3
29664.1,12615.4
29664.1,12939.3
29662.6,12937.4
29657.5,12933.2
29657.5,12909.9
29641.8,12831.1
29611.1,12757
29566.5,12690.2
29509.8,12633.5
29443,12588.9
29368.9,12558.2
29290.1,12542.5
29209.9,12542.5
29131.1,12558.2
29057,12588.9
28990.2,12633.5
28933.5,12690.2
28888.9,12757
28858.2,12831.1
28842.5,12909.9
28842.5,12990.1
28858.2,13068.9
28888.9,13143
28933.5,13209.8
28990.2,13266.5
29057,13311.1
29131.1,13341.8
29150.8,13345.7
29150.8,13554.6
29090.1,13542.5
29009.9,13542.5
28931.1,13558.2
28857,13588.9
28790.2,13633.5
28733.5,13690.2
28688.9,13757
28658.2,13831.1
28642.5,13909.9
28642.5,13990.1
28658.2,14068.9
28688.9,14143
28733.5,14209.8
28750.8,14227.1
28750.8,16576.1
28098.8,17228
28087.4,17237.4
28078,17248.8
28078,17248.8
28050,17283
28022.2,17334.9
28005.1,17391.3
27999.3,17450
28000.8,17464.7
28000.8,22735.3
27999.3,22750
28000.8,22764.7
28000.8,22764.7
28005.1,22808.7
28020.7,22860.1
28022.2,22865.1
28050,22917
28064.8,22935
28087.4,22962.6
28098.8,22972
28978,23851.2
28987.4,23862.6
29033,23900
29084.9,23927.8
29134.1,23942.7
25876.1,27200.8
25229.5,27200.8
25188.8,27139.9
25110.1,27061.2
25018.6,27000
25110.1,26938.8
25188.8,26860.1
25250.7,26767.6
25293.2,26664.8
25315,26555.6
25315,26444.4
25293.2,26335.2
25250.7,26232.4
25188.8,26139.9
25110.1,26061.2
25018.6,26000
25110.1,25938.8
25188.8,25860.1
25250.7,25767.6
25293.2,25664.8
25315,25555.6
25315,25444.4
25293.2,25335.2
25250.7,25232.4
25188.8,25139.9
25110.1,25061.2
25018.6,25000
25110.1,24938.8
25188.8,24860.1
25250.7,24767.6
25293.2,24664.8
25315,24555.6
25315,24444.4
25293.2,24335.2
25250.7,24232.4
25188.8,24139.9
25110.1,24061.2
25018.6,24000
25110.1,23938.8
25188.8,23860.1
25250.7,23767.6
25293.2,23664.8
25315,23555.6
25315,23444.4
25293.2,23335.2
25250.7,23232.4
25188.8,23139.9
25110.1,23061.2
25018.6,23000
25110.1,22938.8
25188.8,22860.1
25250.7,22767.6
25293.2,22664.8
25315,22555.6
25315,22444.4
25293.2,22335.2
25250.7,22232.4
25188.8,22139.9
25110.1,22061.2
25018.6,22000
25110.1,21938.8
25188.8,21860.1
25250.7,21767.6
25293.2,21664.8
25315,21555.6
25315,21444.4
25293.2,21335.2
25250.7,21232.4
25188.8,21139.9
25110.1,21061.2
25018.6,21000
25110.1,20938.8
25188.8,20860.1
25250.7,20767.6
25293.2,20664.8
25315,20555.6
25315,20444.4
25293.2,20335.2
25250.7,20232.4
25188.8,20139.9
25110.1,20061.2
25018.6,20000
25110.1,19938.8
25188.8,19860.1
25250.7,19767.6
25293.2,19664.8
25315,19555.6
25315,19444.4
25293.2,19335.2
25250.7,19232.4
25188.8,19139.9
25110.1,19061.2
25018.6,19000
25110.1,18938.8
25188.8,18860.1
25250.7,18767.6
25293.2,18664.8
25315,18555.6
25315,18444.4
25293.2,18335.2
25250.7,18232.4
25188.8,18139.9
25110.1,18061.2
25017.6,17999.3
25013.4,17997.6
25086.7,17953.7
25168.7,17879.3
25234.7,17790.3
25282,17690.2
25298,17637.4
25250,17550
24800,17550
24800,17557.9
24700,17557.9
24700,17550
24250,17550
24202,17637.4
24218,17690.2
24265.3,17790.3
24331.3,17879.3
24413.3,17953.7
24486.6,17997.6
24482.4,17999.3
24389.9,18061.2
24311.2,18139.9
24249.3,18232.4
24206.8,18335.2
24185,18444.4
23149.2,18444.4
23149.2,17473.9
23823.9,16799.2
24270.5,16799.2
24311.2,16860.1
24389.9,16938.8
24482.4,17000.7
24486.6,17002.4
24413.3,17046.3
24331.3,17120.7
24265.3,17209.7
24218,17309.8
24202,17362.6
24250,17450
24700,17450
24700,17442.1
24800,17442.1
24800,17450
25250,17450
25298,17362.6
25282,17309.8
25234.7,17209.7
25168.7,17120.7
25086.7,17046.3
25013.4,17002.4
25017.6,17000.7
25110.1,16938.8
25188.8,16860.1
25250.7,16767.6
25293.2,16664.8
25315,16555.6
25315,16444.4
25293.2,16335.2
25250.7,16232.4
25188.8,16139.9
25110.1,16061.2
25017.6,15999.3
24914.8,15956.8
24805.6,15935
24694.4,15935
24585.2,15956.8
24482.4,15999.3
24389.9,16061.2
24311.2,16139.9
24270.5,16200.8
23714.7,16200.8
23700,16199.3
23685.3,16200.8
23685.3,16200.8
23641.3,16205.1
23584.9,16222.2
23533,16250
23500,16277
23487.4,16287.4
23478,16298.8
22648.8,17128
22637.4,17137.4
22628,17148.8
22628,17148.8
22600,17183
22572.2,17234.9
22555.1,17291.3
22549.3,17350
22550.8,17364.7
22550.8,30560.3
22550,30568.3
22550,29343.7
22549.8,29338.8
22542.2,29262
22540.3,29252.4
22517.9,29178.5
22514.1,29169.5
22477.7,29101.4
22472.3,29093.3
22423.3,29033.6
22416.4,29026.7
22356.7,28977.7
22348.6,28972.3
22280.5,28935.9
22271.5,28932.1
22197.6,28909.7
22188,28907.8
22111.2,28900.2
22106.3,28900
19149,28900
19188.8,28860.1
19250.7,28767.6
19293.2,28664.8
19315,28555.6
19315,28444.4
19293.2,28335.2
19250.7,28232.4
19188.8,28139.9
19110.1,28061.2
19018.6,28000
19110.1,27938.8
19188.8,27860.1
19250.7,27767.6
19293.2,27664.8
19315,27555.6
19315,27444.4
19293.2,27335.2
19250.7,27232.4
19188.8,27139.9
19110.1,27061.2
19018.6,27000
19110.1,26938.8
19188.8,26860.1
19250.7,26767.6
19293.2,26664.8
19315,26555.6
19315,26444.4
19293.2,26335.2
19250.7,26232.4
19188.8,26139.9
19110.1,26061.2
19018.6,26000
19110.1,25938.8
19188.8,25860.1
19250.7,25767.6
19293.2,25664.8
19315,25555.6
19315,25444.4
19293.2,25335.2
19250.7,25232.4
19188.8,25139.9
19110.1,25061.2
19018.6,25000
19110.1,24938.8
19188.8,24860.1
19250.7,24767.6
19293.2,24664.8
19315,24555.6
19315,24444.4
19293.2,24335.2
19250.7,24232.4
19188.8,24139.9
19110.1,24061.2
19018.6,24000
19110.1,23938.8
19188.8,23860.1
19250.7,23767.6
19293.2,23664.8
19315,23555.6
19315,23444.4
19293.2,23335.2
19250.7,23232.4
19188.8,23139.9
19110.1,23061.2
19018.6,23000
19110.1,22938.8
19188.8,22860.1
19250.7,22767.6
19293.2,22664.8
19315,22555.6
19315,22444.4
19293.2,22335.2
19250.7,22232.4
19188.8,22139.9
19110.1,22061.2
19018.6,22000
19110.1,21938.8
19188.8,21860.1
19250.7,21767.6
19293.2,21664.8
19315,21555.6
19315,21444.4
19293.2,21335.2
19250.7,21232.4
19188.8,21139.9
19110.1,21061.2
19018.6,21000
19110.1,20938.8
19188.8,20860.1
19250.7,20767.6
19293.2,20664.8
19315,20555.6
19315,20444.4
19293.2,20335.2
19250.7,20232.4
19188.8,20139.9
19110.1,20061.2
19017.6,19999.3
19013.4,19997.6
19086.7,19953.7
19168.7,19879.3
19234.7,19790.3
19282,19690.2
19298,19637.4
19250,19550
18800,19550
18800,19557.9
18700,19557.9
18700,19550
18250,19550
18202,19637.4
18218,19690.2
18265.3,19790.3
18331.3,19879.3
18413.3,19953.7
18486.6,19997.6
18482.4,19999.3
18389.9,20061.2
18311.2,20139.9
18249.3,20232.4
18206.8,20335.2
18185,20444.4
18185,20555.6
18206.8,20664.8
18249.3,20767.6
18311.2,20860.1
18389.9,20938.8
18481.4,21000
18389.9,21061.2
18311.2,21139.9
18249.3,21232.4
18206.8,21335.2
18185,21444.4
18185,21555.6
18206.8,21664.8
18249.3,21767.6
18311.2,21860.1
18389.9,21938.8
18481.4,22000
18389.9,22061.2
18311.2,22139.9
18249.3,22232.4
18206.8,22335.2
18185,22444.4
18185,22555.6
18206.8,22664.8
18249.3,22767.6
18311.2,22860.1
18389.9,22938.8
18481.4,23000
18389.9,23061.2
18311.2,23139.9
18249.3,23232.4
18206.8,23335.2
18185,23444.4
18185,23555.6
18206.8,23664.8
18249.3,23767.6
18311.2,23860.1
18389.9,23938.8
18481.4,24000
18389.9,24061.2
18311.2,24139.9
18249.3,24232.4
18206.8,24335.2
18185,24444.4
18185,24555.6
18206.8,24664.8
18249.3,24767.6
18311.2,24860.1
18389.9,24938.8
18481.4,25000
18389.9,25061.2
18311.2,25139.9
18249.3,25232.4
18206.8,25335.2
18185,25444.4
18185,25555.6
18206.8,25664.8
18249.3,25767.6
18311.2,25860.1
18389.9,25938.8
18481.4,26000
18389.9,26061.2
18311.2,26139.9
18249.3,26232.4
18206.8,26335.2
18185,26444.4
18185,26555.6
18206.8,26664.8
18249.3,26767.6
18311.2,26860.1
18389.9,26938.8
18481.4,27000
18389.9,27061.2
18311.2,27139.9
18249.3,27232.4
18206.8,27335.2
18185,27444.4
18185,27555.6
18206.8,27664.8
18249.3,27767.6
18311.2,27860.1
18389.9,27938.8
18481.4,28000
18389.9,28061.2
18311.2,28139.9
18249.3,28232.4
18206.8,28335.2
18185,28444.4
18185,28555.6
18206.8,28664.8
18249.3,28767.6
18311.2,28860.1
18351,28900
18096.2,28900
18026.7,28893.2
17962.3,28873.6
17902.9,28841.9
17850.8,28799.2
17808.1,28747.1
17776.4,28687.7
17759.8,28633.2
17759.8,16185
18183.8,16185
18183.8,16815
18188.7,16864
18203,16911.1
18226.2,16954.5
18257.4,16992.6
18295.5,17023.8
18338.9,17047
18386,17061.3
18389.4,17061.7
18311.2,17139.9
18249.3,17232.4
18206.8,17335.2
18185,17444.4
18185,17555.6
18206.8,17664.8
18249.3,17767.6
18311.2,17860.1
18389.9,17938.8
18481.4,18000
18389.9,18061.2
18311.2,18139.9
18249.3,18232.4
18206.8,18335.2
18185,18444.4
18185,18555.6
18206.8,18664.8
18249.3,18767.6
18311.2,18860.1
18389.9,18938.8
18482.4,19000.7
18486.6,19002.4
18413.3,19046.3
18331.3,19120.7
18265.3,19209.7
18218,19309.8
18202,19362.6
18250,19450
18700,19450
18700,19442.1
18800,19442.1
18800,19450
19250,19450
19298,19362.6
19282,19309.8
19234.7,19209.7
19168.7,19120.7
19086.7,19046.3
19013.4,19002.4
19017.6,19000.7
19110.1,18938.8
19188.8,18860.1
19250.7,18767.6
19293.2,18664.8
19315,18555.6
19315,18444.4
19293.2,18335.2
19250.7,18232.4
19188.8,18139.9
19110.1,18061.2
19018.6,18000
19110.1,17938.8
19188.8,17860.1
19250.7,17767.6
19293.2,17664.8
19315,17555.6
19315,17444.4
19293.2,17335.2
19250.7,17232.4
19188.8,17139.9
19110.6,17061.7
19114,17061.3
19161.1,17047
19204.5,17023.8
19242.6,16992.6
19273.8,16954.5
19297,16911.1
19311.3,16864
19316.2,16815
19316.2,16185
19311.3,16136
19297,16088.9
19273.8,16045.5
19242.6,16007.4
19204.5,15976.2
19161.1,15953
19114,15938.7
19065,15933.8
18435,15933.8
18386,15938.7
18338.9,15953
18295.5,15976.2
18257.4,16007.4
18226.2,16045.5
18203,16088.9
18188.7,16136
18183.8,16185
17759.8,16185
17759.8,15609
26883.3,15609
26919.5,15712.5
26977.4,15811.5
27053.4,15897.3
27144.7,15966.6
27247.7,16016.7
27358.6,16045.8
27450,15990.6
27450,15518.5
27550,15518.5
27550,15990.6
27641.4,16045.8
27752.3,16016.7
27855.3,15966.6
27946.6,15897.3
28022.6,15811.5
28080.5,15712.5
28116.7,15609
28069,15518.5
27550,15518.5
27450,15518.5
26931,15518.5
26883.3,15609
17759.8,15609
17759.8,15516.8
17776.4,15462.3
17808.1,15402.9
17850.8,15350.8
17902.9,15308.1
17962.3,15276.4
18026.7,15256.8
18096.2,15250
20306.3,15250
20311.2,15249.8
20388,15242.2
20397.6,15240.3
20471.5,15217.9
20480.5,15214.1
20548.6,15177.7
20556.7,15172.3
20616.4,15123.3
20623.3,15116.4
20672.3,15056.7
20677.7,15048.6
20714.1,14980.5
20717.9,14971.5
20740.3,14897.6
20742.2,14888
20749.8,14811.2
20750,14806.3
20750,14484.3
26863.3,14484.3
26874.6,14598.9
26908,14709.1
26962.3,14810.6
27035.4,14899.7
27124.4,14972.7
27134.5,14978.1
27053.4,15039.7
26977.4,15125.5
26919.5,15224.5
26883.3,15328
26931,15418.5
27450,15418.5
27450,15410.6
27550,15410.6
27550,15418.5
28069,15418.5
28116.7,15328
28080.5,15224.5
28022.6,15125.5
27946.6,15039.7
27865.5,14978.1
27875.6,14972.7
27964.6,14899.7
28037.7,14810.6
28092,14709.1
28125.4,14598.9
28136.7,14484.3
28125.4,14369.6
28092,14259.4
28037.7,14157.9
27964.6,14068.8
27939.6,14048.3
27979.7,14026.9
28032.7,13983.4
28076.1,13930.5
28108.5,13870
28128.3,13804.4
28135.1,13736.2
28135.1,13263.8
28128.3,13195.6
28108.5,13130
28076.1,13069.5
28032.7,13016.6
27979.7,12973.1
27919.2,12940.8
27853.6,12920.9
27785.4,12914.1
27214.6,12914.1
27146.4,12920.9
27080.8,12940.8
27020.3,12973.1
26967.3,13016.6
26923.9,13069.5
26891.5,13130
26871.7,13195.6
26864.9,13263.8
26864.9,13736.2
26871.7,13804.4
26891.5,13870
26923.9,13930.5
26967.3,13983.4
27020.3,14026.9
27060.4,14048.3
27035.4,14068.8
26962.3,14157.9
26908,14259.4
26874.6,14369.6
26863.3,14484.3
20750,14484.3
20750,12596.2
20756.8,12526.7
20776.4,12462.3
20808.1,12402.9
20850.8,12350.8
20902.9,12308.1
20962.3,12276.4
21016.8,12259.8
35383.2,12259.8
Z" /> 
</g>
</g>
</g> 
</svg>
